<svg xmlns="http://www.w3.org/2000/svg" viewBox="0 0 501.6 501.6" style="enable-background:new 0 0 501.551 501.551;"><path d="M149.9 0L43.4 107.6v373a21 21 0 0 0 20.9 20.9h373a21 21 0 0 0 20.9-20.9V20.9A21 21 0 0 0 437.3 0H149.9z" fill="#F2F2F2"/><path d="M149.9 86.7V0L43.4 107.6h86.7c11.5 0 19.9-9.4 19.9-20.9z" fill="#CDD6E0"/><path d="M246.1 74.2h159.9v190.2H246.1z" fill="#84DBFF"/><path d="M92.5 156.7h123.3v26.1H92.5zm0 81.5h123.3v26.1H92.5zm0 80.5h316.6v26.1H92.5zm0 81.5h316.6v26.1H92.5z" fill="#CDD6E0"/></svg>