<svg xmlns="http://www.w3.org/2000/svg" viewBox="0 0 52.7 39.4" style="enable-background:new 0 0 52.7 39.4;"><path d="M49.2 39.5H3.3C1.5 39.5 0 38 0 36.2V3.4C0 1.6 1.5.1 3.3.1h45.9c1.8 0 3.3 1.5 3.3 3.3v32.8c0 1.8-1.5 3.3-3.3 3.3z" fill="#eaeaea"/><path d="M6.5 39.5H3.3C1.5 39.5 0 38 0 36.2V3.4C0 1.6 1.5.1 3.3.1s3.3 1.5 3.3 3.3v36.1z" fill="#d54c3f"/><path d="M45.9 39.5h3.3c1.8 0 3.3-1.5 3.3-3.3V3.4c0-1.8-1.5-3.3-3.3-3.3s-3.3 1.5-3.3 3.3v36.1z" fill="#b63524"/><path d="M51.1 6.1c.8-.6 1.4-1.6 1.4-2.7 0-1.8-1.5-3.3-3.3-3.3-.7 0-1.3.2-1.9.6L26.2 16 5.1.7C4.6.3 4 .1 3.3.1 1.5.1 0 1.6 0 3.4c0 1.1.6 2.1 1.4 2.7L1.3 6l24.9 18.2" fill="#de5145"/><path d="M51.2 6l-25 18.2" fill="none"/><path d="M49.2.1c-.7 0-1.3.2-1.9.6L26.2 16 5.1.7C4.6.3 4 .1 3.3.1h45.9z" fill="#efefef"/><path d="M6.6 11.2L1 5.8c.1.1.3.2.4.3L1.3 6l5.2 3.8.1 1.4" fill="#c64132"/><path d="M22.6 27L6.5 39.5l.1-28.4 16 15.9" fill="#e3e3e3"/><linearGradient id="A" gradientUnits="userSpaceOnUse" x1="6.54922" y1="18.41133" x2="26.23653" y2="18.41133"><stop offset="0" stop-color="#C8C8C8"/><stop offset="1" stop-color="#CDCDCD"/></linearGradient><path d="M22.6 27l3.6-2.8L6.6 9.8v1.3l16 15.9z" fill="url(#A)"/><linearGradient id="B" gradientUnits="userSpaceOnUse" x1="22.58871" y1="24.65041" x2="45.92493" y2="24.65041"><stop offset="0" stop-color="#D9D9D9"/><stop offset="1" stop-color="#E2E2E2"/></linearGradient><path d="M35.1 39.5h10.8V9.8L26.2 24.2 22.6 27z" fill="url(#B)"/></svg>