<svg xmlns="http://www.w3.org/2000/svg" viewBox="0 0 82.7 82.7" height="50" width="50"><defs><style><![CDATA[.cls-1{fill:#fdfdfd;} svg{background-color:#80c7f2;}]]></style></defs><g id="Layer_1"><path class="cls-1" d="M22.9 56.2A23.7 23.7 0 0 0 35.7 60C51.2 60 60 46.9 59.4 35.1a16.8 16.8 0 0 0 4.2-4.3 17.2 17.2 0 0 1-4.8 1.3 8.4 8.4 0 0 0 3.7-4.6 16.7 16.7 0 0 1-5.3 2 8.4 8.4 0 0 0-14.2 7.6 23.7 23.7 0 0 1-17.2-8.7 8.4 8.4 0 0 0 2.6 11.1 8.3 8.3 0 0 1-3.8-1 8.4 8.4 0 0 0 6.7 8.3 8.4 8.4 0 0 1-3.8.1 8.4 8.4 0 0 0 7.8 5.8 16.8 16.8 0 0 1-12.4 3.4z"/></g></svg>