<svg xmlns="http://www.w3.org/2000/svg" viewBox="0 0 800 600" style="enable-background:new 0 0 800 600;"><style><![CDATA[.D1{fill:#80676c;stroke:#503617;stroke-miterlimit:10}.D0{fill:none;stroke:#78644c;stroke-miterlimit:10}.AF{fill:#664f34}.D{opacity:0.41;fill:#4a4a49;stroke:#4a4a49;stroke-miterlimit:10}.B{fill:#92a8b4;stroke:#4a4a49;stroke-width:2;stroke-miterlimit:10}]]></style><path class="B" d="M562.1 336.5l-18 15.2 3.5 22.5-48.3-18.6 14.5-37.6zm-335.8 1l18 15.2-3.5 22.5 48.3-18.6-14.5-37.6z"/><path class="D" d="M284.9 350.1l2.3 5.5-21.3 1.7zm217-.5l-1.7 4.9 25.4 3"/><g stroke-width="2" stroke="#503617"><path d="M404 163.9l.8 4.9c1.5 9.4 14.2 11.4 18.5 2.9l2.2-4.4c5.1-10 20.2-5.1 18.4 6l-.8 4.9c-1.5 9.4 9.9 15.3 16.7 8.5l3.5-3.5c7.9-8 20.8 1.4 15.7 11.4l-2.3 4.4c-4.4 8.5 4.7 17.6 13.2 13.2l4.4-2.3c10-5.1 19.4 7.8 11.4 15.7l-3.5 3.5c-6.8 6.7-.9 18.2 8.5 16.7l4.9-.8c11.1-1.8 16 13.4 6 18.4l-4.4 2.2c-8.5 4.3-6.5 17 2.9 18.5l4.9.8c11.1 1.7 11.1 17.7 0 19.4l-4.9.8c-9.4 1.5-11.4 14.2-2.9 18.5l4.4 2.2c10 5.1 5.1 20.2-6 18.4l-4.9-.8c-9.4-1.5-15.3 9.9-8.5 16.7l3.5 3.5c8 7.9-1.4 20.8-11.4 15.7l-4.4-2.3c-8.5-4.4-17.6 4.7-13.2 13.2l2.3 4.4c5.1 10-7.8 19.4-15.7 11.4l-3.5-3.5c-6.7-6.8-18.2-.9-16.7 8.5l.8 4.9c1.8 11.1-13.4 16-18.4 6l-2.2-4.4c-4.3-8.5-17-6.5-18.5 2.9l-.8 4.9c-1.7 11.1-17.7 11.1-19.4 0l-.8-4.9c-1.5-9.4-14.2-11.4-18.5-2.9l-2.2 4.4c-5.1 10-20.2 5.1-18.4-6l.8-4.9c1.5-9.4-9.9-15.3-16.7-8.5l-3.5 3.5c-7.9 8-20.8-1.4-15.7-11.4l2.3-4.4c4.4-8.5-4.7-17.6-13.2-13.2l-4.4 2.3c-10 5.1-19.4-7.8-11.4-15.7l3.5-3.5c6.8-6.7.9-18.2-8.5-16.7l-4.9.8c-11.1 1.8-16-13.4-6-18.4l4.4-2.2c8.5-4.3 6.5-17-2.9-18.5l-4.9-.8c-11.1-1.7-11.1-17.7 0-19.4l4.9-.8c9.4-1.5 11.4-14.2 2.9-18.5l-4.4-2.2c-10-5.1-5.1-20.2 6-18.4l4.9.8c9.4 1.5 15.3-9.9 8.5-16.7l-3.5-3.5c-8-7.9 1.4-20.8 11.4-15.7l4.4 2.3c8.5 4.4 17.6-4.7 13.2-13.2l-2.3-4.4c-5.1-10 7.8-19.4 15.7-11.4l3.5 3.5c6.7 6.8 18.2.9 16.7-8.5l-.8-4.9c-1.8-11.1 13.4-16 18.4-6l2.2 4.4c4.3 8.5 17 6.5 18.5-2.9l.8-4.9c1.7-11.1 17.7-11.1 19.4 0z" fill="#cfbba6" stroke-miterlimit="10"/><circle cx="394.3" cy="294.5" r="120" fill="#b9937e"/></g><circle cx="394.2" cy="294.5" r="102.7" fill="#f9e8d8"/><path class="AF" d="M496.2 294.5c.1.3.3.1.2-.8l-.3-.7.1 1.5zm.4-6.3c-.2-1.1-.6-2.3-.9-1.6.4 1.1.3 1.3.8 2.5.1.9-.1 1.6-.2 1.5.1.3 0 1.4.2 1.9a11 11 0 0 0-.1-4.4c0-.3.2 0 .2.1zM454 210.5l.5.4c-.2-.1-.3-.3-.5-.4zm-52.9-19.1z"/><path class="AF" d="M391.3 190.9zm62.7 19.6l-1.2-1c-.1.1.6.5 1.2 1zm40.3 65.4c.1.3.1.6.2.8 0-.3-.1-.6-.2-.8zm-21.6-48.7l.3.4c.1.1.2.1.4.2l-.7-.6zm11.2 15.7c-.2-.4-.5-.4-.7-.5.2.2.4.4.6.7 0 .1.1 0 .1-.2zm10.6 28.5l.2.5c0-.1-.1-.3-.2-.5zm-31.4-54.1c0-.1 0-.1-.1-.2 0 0 0 .1.1.2zm30.1 99c0-.1 0-.2 0 0zm3.8-21.8v.3c.1 0 .1.1.2.1l-.2-.4zm-123.5-102c.5-.1.3 0 0 0zm-80.8 124c-.2-1.9 1 2.9.6.1 0 .2-.9-2.4-.6-.1zm201.5-41.1c0-.3-.1-.5-.1-.8.1.3.1.6.1.8zm-200.8 41.2v-.3.3zm42.4-107.9c.1 0 .3-.1.4-.1-.1-.1-.2-.1-.4.1zm27.7-13l-.7.2c.2-.1.5-.2.7-.2zm-39.9 23.2c-.3.3-.4.3-.8.8l.1-.1c.1-.2.3-.4.7-.7zm-11.2 12.2c.1-.1.2-.1.2-.2.1-.1.2-.3.3-.4l-.5.6zm159.2 129c.3-.2.5-.3.7-.4-.3 0 1.2-1.8-.7.4zm22.9-84.3c-.1-.1-.1-.2-.2-.5 0 .2 0 .4.2.5-.1.1-.1.1 0 0zM324.6 221l-1.9 1.7c.6-.4 1.3-1.1 1.9-1.7z"/><path class="AF" d="M366.2 392.1l.6.1c-.3-.1-.5-.1-.6-.1zm-48.6-163.7a10 10 0 0 0-1.1 1c-.1.1-.1.2-.1.3l1.2-1.3zm154.7 131.3zm9.2-14.3c-1.2 2.1-.3 1.2-.3 1.7-1.5 2.5-1 1-1.7 1.7a15 15 0 0 0-1.1 2.2c-.3.7-.7 1.3-1.1 1.8-.1 0-.3.3-.2 0-.8 1.8-3.4 4.6-4.6 6.6-.1.1-.2.2-.3.2.4-.2.6-.1.6.1-.7.8-1.2 1.7-1.6 1.9.5-.5.4-.6.6-.9l-.7.9c-.9.6.9-1.3.8-1.4l-2.1 2.8c-.7.9-1.5 1.7-2.1 2.3-.5 0 2.7-3 .9-1.5 0 0 .5-.5 1-.9l.9-1c-1.7 1.2 1.1-1.2-.6-.2l-2.5 2.8c-.7.7-1.3 1.5-2.6 2.7-.4.7.4 0-.1.7-.8.9-1.5 1.5-2 1.9s-.9.6-1.3.8c-.7.4-1.4.7-2.6 2-.6.8-.6 1.3-2.8 2.8l.5-.9c-2.7 2.1-1.2 1.6-4.3 3.5.4-.5 2.1-1.7 1.7-1.4-2.1 1.1-1.2 1.1-2.7 2.2l-.5-.1c-3 2-6.3 4.4-9.8 6.2.2-.2.7-.6-.2-.3a58 58 0 0 1-7.1 3.4l-3.7 1.4c-1.2.5-2.5.8-3.6 1.1l-1.7.9c-.4.1-.8.1-.4-.1-1.9.4 0 .2-.9.6-1 .3-1.4.2-.8 0-3.1 1.3-9.2 2.8-12.7 3.1l.7-.2c-2.7.3-3 1-5.6 1.1l.5-.1-17.2.1c-.4.2-1.9 0-3.3-.1s-2.8-.3-3-.1l-7-1.7c-1.3-.2-1.9 0-3.5-.3v-.3l-2.2-.2s-.3-.1-.5-.3l-.5-.3-1.5-.3c.6.2 1.2.5 1.1.5-1.1-.3-2.5-.7-3.6-1.1s-1.8-.8-1.8-.9l-2.6-.8c-.7-.2-1.3-.4-1.8-.6l-.8-.3c.2-.1 1 .2 1.7.4-2.8-.8-.4-.5-3-1.2.3.2-.3.1-.3.1l-5.5-2.8c-1.8-1-3.8-1.8-5.7-3-1-.5-2-1.1-2.9-1.6l-2.9-1.8c1.3 1 .8 1.1-.3.4l-.3-.6c-.8-.3 1.1.9-.5.1-1.4-1-.7-1 .1-.5l-1.8-1.1c0-.2.4.1.6.1-.8-.3-2.7-2.3-3.9-2.8v-.1l-6.1-5-1.9-1.7c-.2.2-1.3-.9-2.2-1.5l-6-6.9c-1.6-1.7-.6-.4-1.4-1.1.1-.3-2-2.9-.8-1.6-1.3-1.5-2-2.6-2.8-3.7-.4-.6-.9-1.1-1.4-1.8l-1.8-2.6c.2.5.5 1.1.3.8-.5-.7-1-1.8-.9-1.8l.2.2c-1.6-2.3-3.1-5.2-4.3-8.1l-5.1-11.5c-.6-2 .6 1.2.2-.4l-1.3-3.2c-.3-1-.6-1.9-.8-2.8l-1.5-6.9c0-.5-.1-1.1-.2-1.8-.2-1.3-.5-2.7-.7-4.2l-.9-7.9c-.3-1.1 0-1.3 0-2.2-.1.1-.1 1.2-.2.5-.3-4.7-.2-9.6.4-14.5l2.8-14.4c.4-1.7.4-2.2.3-2.9 0-.6.1-1.4.9-3.5v1.3c1.6-7 4.9-13.7 8-20-.1.4-.1.5-.4 1.1a24 24 0 0 0 2.6-4.9c.6-.9.3-.1.7-.6.9-1.2 1.7-3.3 2.4-3.8.1-.1-.2.4-.3.6.5-.9 2.6-3.6 1.9-3.1l4.4-5.6c.7-1.2 3-3.3 3-3.9.2.4 3.4-3.1 4.5-4.4-.3.5 1.1-.9.8-.3l2.2-2.5c2.9-1.9 5.1-4.8 7.1-5.4a84 84 0 0 1 13.2-8.8c0 .3-1.2.9-2.4 1.6s-2.3 1.3-2.1 1.5c1-.6 1.9-1.2 2.8-1.8l2.5-1.5c1.6-1 3.3-1.8 5.5-2.7 1.1-.5-.6.5-.9.7 2.1-1.1 4.3-1.9 6.4-2.7l4.7-1.7c.5-.2 1-.3 1.5-.5l-.8.4c.8-.2 1.9-.5 1.8-.6l-.8.3c-1.4.1 3.1-1.5 3.2-1.7-1.3.9 4.2-.8 2.1.4.5-.2 1.2-.4 1-.5.8-.1 1.1-.1.3.2l2.3-.7c.4-.1.8-.3 2.2-.5 0 .1-.5.2-.8.4 1.3-.4 2.7-.9 5-1.1-.1.1.1.1-.5.2 2-.3 3.6-.6 5.4-.8l2.7-.3c.9-.1 1.9-.1 3-.1-1.3.5 1.5.1 1.7.5 0 0 .6 0 1.2-.1h1.2l-.9-.2c2.1.1 3.9-.2 5.6 0h-.8c-.4 0-.8.1-.8.1h.6c.4 0 .8 0 1.3.1l1.9.1-2.2-.3c2.1 0-.2-.5 2.5-.2-.6 0 2.1.1 3.1.5 1 0 2.1 0 3.6.3.4.2-.4.4-.1.5 1-.1 4.8.7 6.1.7-.4 0-.5.2-.4.2l.9-.1c.9.3 1 .4.9.5 2.8.7-.8-.7 2.5.3-.3 0-.2 0-.7-.1 3.3.9 6.4 1.6 9.4 2.8.8.7-2.6-.8-1.7-.2 4.3 1.3 8.9 2.9 12.9 4.9l-.7-.4c.8-.2 2.8 1.7 4.9 2.5-.5-.2-.8-.1-.6-.1a53 53 0 0 0 4.2 2.3l4.6 2.8c1.4 1.1 3.8 2.7 5.2 4 .5.2 1.4.9 1 .4 4.1 4.3 8.8 7.1 11.9 11.4-.4-.5-1.1-1-.8-.6l3.1 3.2c-.1-.4-.3-.5-.8-1.4.5.3 1.4 1.2 2.1 2.1-1.4-1.4-.3.2.2 1 0-.2.2 0 .2-.1 1.1 2.1.6 0 2.4 2.7l-.2-.1c.8.9 1.5 1.7 2.3 2.8.1.6-.8-1-1.1-.9 1 1.5 2.5 2.6 3.1 4.1-.5-.6-1.1-1.5-1.6-2.1l1.5 2.8s.4.7.8 1.3c.2.3.4.7.5.9l.2.4-.2-.4c-.1-.2-.2-.3-.2-.3.9.8 1.5 1.8 2.1 2.8.3.5.6 1.1 1 1.7.3.6.7 1.2 1.2 1.8-1.7-2.4-.4-.3-.8-.4.3.7.7 1.8.5 1.6.4.6.7 1.1.9 1.8.2.6.5 1.3 1.1 2.2-.1.1.6 1.4.3 1.2.8 1.7 0-.5.2-.4 1.5 2.5 2.2 6.4 3.9 10.2l2 5.1c.2.6.4 1.2.6 2 .1 1.1-.6-.8-.6-.8.2 1.8.6 3.1 1 4.8-.1-.3-.2 0-.2.6.3 1.3.5.8.7 2.6-.2-.3-.4-.6-.6-1.3l.6 2.3c.2.8.3 1.6.5 2.4-.1.5-.4-1-.6-1.5l1 5.3v-1.2c.1.7-.2.4-.3-.1-.4-1.6-.2-2.3-.1-2.4l.2 1.2c.2-.6 0-1.8-.2-3.1l-.9-3.9.6.9-.8-2.4c0-.5.2-.9.4.2-.1-1.7-.5-1.5-.6-2.9 0-.2 0-.1.1 0l-.5-1.6c.2.3.2-.3.4.7-.2-1.5-.6-2.7-1-3.6-.3-.9-.6-1.6-.6-2.2l.1.2c-1.4-4-.4-.3-1.7-3.2v-2.3l-.4-.3c-.1-.4-.4-1.2-.3-1.1-.8-1.4 0 .3-.6-.5l-1.3-3.5c-.5-1.1-.9-2.1-.8-2.4-.5-.6.7 1.9-.4-.1.1-.4-.2-1-.6-1.7l-1.3-2.4c.5.4 1.2 2.1.5.3-.5-.4-.9-1.2-1.3-2.2-.4-.9-.8-1.9-1.3-2.5-.2.1-.6-.7-1.2-1.7l-2.2-3.4c.2.1-2.7-4.3-4.1-6.4h.1c-.6-.1-2.1-2.3-3.4-3.6.2-.1.5.1 1.2.8 0 0-.3-.3-.6-.7-.3-.3-.6-.7-.6-.7-.4-.2-.8-.6-1.6-1.5l.5.2c-.4-.4-.8-.9-1.2-1.3l-1.3-1.3c-.9-.9-1.8-1.9-2.9-3-.3.1 1.2 2.2-1.2.1 0-.2.1-.4.7.1-.2-.2-.8-.6-1.1-1l1.1.7c-.9-1-.7-.4-1.4-1.1.2-.1-.5-.7-.3-.7.2.2.6.7 1 1a33 33 0 0 1-2.2-2.4c0 .2-.2.2-.9-.4-1.8-1.5-.5-.7-1.4-1.7-.5-.3-1.6-1.3-1.8-1.1-.5-.4-.6-.6-.7-.8-.5-.3-1.6-1.2-2.5-1.8s-1.6-1-1.1-.5l.2.2c-.1 0-.1-.1-.2-.1-.9-.5-1.7-1.1-2.5-1.7-.9-.6-1.7-1.2-2.6-1.7-1.7-1.2-3.5-2.3-5.2-3.2l.1-.1c-1-.6-2.2-1.1-3.3-1.7l-3-1.3c-.6-.3-1.4-.8-1.1-.8-1.7-.7-1.9-.7-4.3-1.8 1.8.5-.5-.4 1.8.6-2.2-.9-2.6-1.3-5.1-1.9.9 0-1.6-.9-2.7-1.2l1.5.7-3.3-1.1.7-.1c-1.1-.5-2.2-.8-3.3-1-1.1-.3-2.1-.5-3.1-.6-2-.3-3.9-.7-5.6-1.3-1.3 0 2.6.6 1.4.7-2.2-.4-4.4-1.3-5.1-1.4-3-.5-2.9.1-6-.4.4.1.7.5-1.6.4-2.2-.2-2.7-.7-1.3-.7.5 0 .8.1.8.1.7 0 1.7 0 .8-.2l-.3.1c-.5-.1-1.6-.2-2.4-.3s-1.4-.1-1-.2c-1.7.1-.7.2.5.3l-7.4-.2c.5.1.9.2.4.2l-2.9.1c-.3.1-.4.2-1.9.3-1.7-.1.6-.5-2.4-.1-1.8 0-.4-.3.3-.4l-1.9.2c-.6.1-1.2.1-1.8.2l-2.9.2 1.4-.3c-.8.2-1.5.2-2.2.4a1 1 0 0 0 .4.1c.2 0 .4.1.4.1-.8 0-1.5.2-1.5.1-.8.3.7.3-.9.8-1.1.1-3.3.7-3.7.5 3.4-.6-.4-.3 2.4-.8-.6.1-1.2.3-2.1.4-.1 0 .1-.1.3-.1-3.3.5-1.4.7-4.8 1.4.4-.3-.9-.1-1.4.1 1.3-.4.7.1-.5.6-2.2.5-2.3.8-3.4 1.1l1.3-.3c-.4.3-1.4.6-2.9 1.1-.2-.1 1.3-.5.8-.4-1.5.9-3.8.9-5.9 2-1.1.3-.2-.3-1.2 0-2.4 1.2-2.8.9-5.3 2.2.8-.1.9-.2-.8.8l4.1-2.1-2.6 1.5c1.3-.6 2.6-1.4 3.4-1.6-1.2.7-1.1.6-.4.5-1.9.5-3.4 1.7-5.4 2.5l-.2-.6c-1.5.6-2.8 1.4-4.2 2.2-1.3.9-2.8 1.8-4.7 2.9 0 0 .3-.2.6-.3.3-.2.6-.3.6-.3-.4.5-2.2 1.5-3.3 2.3 0-.2-.8.2-1.3.4.1.1-2.6 1.8-2.7 2.4 0 0-.4.2-.9.5-.4.2-.8.5-.8.5-2.8 2.1-2.8 2.8-5.3 5 .6-.8-.6.1 1-1.5l-1.5 1.5c-.3.2-.8.7-1.4 1.3s-1.1 1.2-1.6 1.5c-.3.4-.2.6-1.2 1.5-.1.1-.1-.1-.1-.1 0 .1-1.3 1.5-.4.8-2.8 2-6.5 7-8.6 9.1l-2.2 3.1c-.7 1.1-1.5 2.1-2.1 3.1 0-.2-.1-.1.2-.4-1.8 2.5-.5 1.9-2.6 4.7-.6.7-.4.3-.1-.2s.6-1 .3-.6c-.4 0-.9 1-1.5 2.1l-1.8 2.9c-1 1.5-1.8 4-3 6.6 0 0 0-.2-.1-.1l-2.7 8.1c0-.9.3-1.2-.1-.8-.4 1.2.5-.2-.2 2.2-.4.7-1.1 2.4-1.4 2.5 0 0 .2-.6.3-1.1l.4-1.1c-.4.5-.6 1.2-.8 2l-.5 2.1-.1-.2c-1 3.5-.5 3.7-1.4 7.4l.2-.4c-.1 2.1-.5 1.7-.7 3.8l-.5.6c0 .3-.1.8-.1 1.4s-.1 1.2-.1 1.9l-.3 4.1c-.2-1.4.1-4.4.1-6.2l-.5 5.4c0-.6 0-1.3.2-1.8 0 1.7.1 4-.1 6.7-.8-.5-.4 7.2-.9 9.2l.1 1.8c.1.6.1 1.2.2 1.8l.3 3.7c.3 2.5.5 5.2 1 8 .2-2.1.3 1.6.8 1.2a21 21 0 0 1 .4 1.9s.1 1 .3 2c.1.5.1 1 .2 1.4 0 .4.1.6.1.6 0 .5-.1.2-.2-.2s-.3-.9-.3-.8c.7 2.9.1 1.3.4 3.2.1-.4.6.9 1 2.5l-.4-2.3c.7 1.9.8 2.8 1 3.7s.3 1.8 1.1 3.7l-.6-1.2c.7 2 2.8 7.3 4.2 9 .1.4.1.9-.3.1l7.2 12.9c.6.8 1.1 1.2 1.7 2.3-.1 0-.3-.2-.1.1.3.4 1.7 1.9 2.3 3l-.8-.8c.7 1 1.3 1.9 2 2.7.6.8 1.3 1.5 1.9 2.1l3.9 3.9c-.3.3 2.2 3.2 3.6 4.6h-.1l3 2.8 2.9 2.3c.9.8 1.9 1.4 2.9 2.1l3.1 2.2c.6.6 1.5 1.3 2.5 2.1s2.3 1.5 3.5 2.4c1.3.9 2.7 1.6 4 2.4s2.6 1.5 3.8 2.2c-.7-.4.3-.2 1.1.1 1.1.7 3.2 1.2 2.9 1.5l-.4-.2c.7.7 3 1.8 4.9 2.4l.5-.4c1.1.7 2.5 1.3 4 1.8s3 1.1 4.6 1.4l4.2 1.1a17 17 0 0 1 2.9.9c1.3.2 2.8.5 4 .5l-.1.3 6.6 1.1c.4 0 .8.1 1.3.2.5 0 1 .1 1.5.1l-.9.1c2.4.2 3.1-.5 5.4-.5l.7.4 12.7-.3c-.1.1-.2.2-.9.3 2 0 7.7-.6 6.9-1 .1.4 4.3-.7 6.5-1.3l-.3.4c1.8-.8 1.8-.9 4.4-1.6.6-.1.6.1-.2.2 2.1-.4 1.5-.7 4-1.2l-.9.4c2.1-.6 1.9-.6 3-1.2 1.3-.5 3.9-1.3 4.3-1.1.2-.3 1.3-.9 2.5-1.3.2 0-.2.3-.4.4.9-.3 1.6-.6 2.3-.9s1.2-.6 1.8-.9c1.1-.6 2-1 3.2-1.5.1.1.3 0 .5 0l-4.6 2.1c.1.2 2.3-.7.7.4.8-.5 1.9-1.1 3.1-1.8a29 29 0 0 1 3.4-1.9c.1 0 .2-.1.3-.1l-.2.1c.5-.2.9-.5 1.3-.7.7-.3 1.1-.5 1.7-.9.3 0 2.4-1.2 3.4-1.9-.2-.2 1.1-1-.2-.4.2-.1-.2.2-.8.6-.1.1-.3.2-.4.3l.1-.1-2.5 1.5c.7-.6 1.5-1.2 2.7-1.7.4-.5.9-1 1.1-1.3l2.8-1.2c.9-.4 1.7-.9 2-.9 1.4-1.1 3.1-2.3 4.6-3.6l2-1.8c.6-.6 1.1-1.1 1.4-1.6.7-.7 1-.6 1.3-.8l-1.1 1.1 4.5-4.7c2-1.7-.8 1.3 1.7-1.3l-.2.4c1.3-1.2 2.4-2.3 3.4-3.4l5.3-7.2c1-1.3 1.9-2.7 3.2-4.1-.3.4-.5.6-.6.7l1-1.3 2.7-4.2c1.1-2 2.3-3.9 3.2-5.9l5.5-12.1c.9-2.3.8-2.6 1.1-4.1l.5-.4.4-2.6c.2-.9.4-1.7.7-2.5s.5-1.6.8-2.4.5-1.6.8-2.6l.4-3.1-.3.5c.2-.8.4-2.1.5-3.1.1-1.1.3-1.9.3-1.7 0-.2-.1-.6 0-1.2h.2l.1-4c.3-3.1.6.5.9-4 0-1.7-.3-4.9-.5-4.2 0 .7-.1 1.8-.3 1.8v-1.6c-.5-.3-.9-1.5-1.3 2.3l.2 2.6-.3.8s.1-.5.1-1.1v-1.1c-.2 1.2-.1 2 0 2.9-.1.2-.2.6-.3 1.1l.2 2.6c-.2.3-.2-1.2-.5.5.1 1.2.6-1.1.4.9-.4 1.2-.5.8-.5 2.3-.1.2-.2-.1-.2-.7 0 .7-.1 1.5-.2 2.3s-.2 1.5-.1 1.8c-.2.6-.4 1.7-.6 2.6s-.4 1.6-.6 1.5c0 .4-.2 2.3-.4 3.5 0-1.1-.2 0-.6 1.2-.4 1.3-.8 2.7-1 2.4 0 .9-.4 2.3-.9 3.8l-.8 2.4c-.3.8-.6 1.5-.8 2.2 0-.2.1-.5.2-.7l-1.4 2.8c.3.3-.7 2.7-1 4-1.2 1.7.1-1.3-.5-.9.2 0-.1.8-.4 1.6-.3.7-.6 1.4-.3 1.2-.9 1.2-.7 1.1-1.3 1.7.3.5-.5 1.3-.9 2.5-1.3 1.8-.7.3-1.8 2.4-.4 1 .5-.9.5-.9zM441 385l1-.6c-.2.2-.5.3-1 .6zm-4.3 2.2l1.9-.9c.2 0 .1.2-.4.4.2-.2-.9.2-1.5.5zm10-3.1c-.7.4-.9.5-1 .5.3-.2.7-.4 1.2-.7 0 0 0-.1.1-.1l-.3.3z"/><path class="AF" d="M447.8 383.1c.1-.1.1-.1.3-.2-.1.1-.3.1-.4.2l-.2.2c0-.1.1-.1.3-.2zm6.7-172.2s.1.1 0 0c.1.1.1.1 0 0zm-83.1 182.4l.4.1zm102-163.3c0 .1.1.2.2.3-.1 0-.1-.1-.2-.3zm6.7 9.4l.8 1.4c-.3-.6-.6-1.1-.8-1.4zm4.3 7.7c.1.1.1.1.2.1l-.2-.1zm-119.8-49.8c-.1 0-.2.1-.3.1-.8.3-.3.1.3-.1zM406 193h-1.4c.8 0 1.4.1 1.4 0zm-81.2 27.8l-.2.2.2-.2zm77.9-28l1.9.2a11 11 0 0 0-1.9-.2zm92.7 90.9v.4-.4zm.1.4l.1.5c0-.2 0-.4-.1-.5z"/><path class="AF" d="M495.7 285.6l-.1-1c0 .3 0 .8.1 1zm-2.1-13.5l-.1-.1.1.1z"/><path class="AF" d="M492.8 268.6c.2.8.3 2.1.6 3.3l.1.1c-.3-.5-.3-2.6-.7-3.4zm-3.7-14.5l.2.4.9 2.4c-.1-.5-.2-1.2.3 0-1.1-3.6.1.9-1.4-2.8zm-3.9-8.6c.8 1.4.1-.1.2 0-.6-.9-.7-1.1-.2 0zm-48.9-45.3l.3-.2c-1.2-.5-.1.1-.3.2zm-12.5-3.3l.6.2c.3.1.5.3.5.3h.6l-.9-.2c-.3-.2-.8-.3-.8-.3zm-6.9-3.7l.5.1-2-.4zm-102.8 35.5l.5-.1c.5-.7.3-1.1-.5.1zm-21 44.1c-.3.5-.6 1.8-.6 2.7.2-1.1.5-2.1.6-2.7zM358.2 392l-1-.3c.1 0 .5.2 1 .3.4.2.8.3.8.3s-.2-.1-.4-.1l-.4-.2z"/><path d="M336.1 222.9c.2.4 23.3-14.1 23.6-13.6.5.9-37.5 26.4-37 27.3.7 1.3 57.6-35.1 58.4-33.7 1.1 1.9-66.3 41.8-65.4 43.4 1 1.8 70.9-43.1 71.8-41.5 1.2 2-77.7 47.7-76.5 49.8 1.5 2.6 87.1-53.1 88.3-51s-95 56.9-93.4 59.8c1.3 2.2 98.4-59.8 99.7-57.6 1.2 2.1-97.7 58.7-96 61.6s108.1-65.7 109.5-63.2c1.9 3.3-114.2 68.2-112.5 71.2 1.6 2.8 117.4-71.1 118.8-68.6 1.6 2.8-124 72.5-121.9 76.2s127.1-76.8 128.5-74.2c1.8 3.2-127.1 75.1-125.2 78.5 2 3.5 124.4-75.6 126-72.8 2.1 3.7-136 80.2-134.2 83.4 1.9 3.2 143.2-87 145.1-83.8 2 3.5-147.3 85.5-145 89.5 1.9 3.2 147.9-89.7 149.7-86.4 2 3.4-149.4 87.2-147.1 91.3 2.1 3.7 147.4-90 149.6-86.3 2.1 3.6-148.6 85.6-146.1 90 2.3 3.9 148-89.7 149.8-86.5 2.6 4.5-150.6 86.9-148.1 91 2.4 4.1 154.3-93.3 156.1-90.1 2.4 4.2-155.9 90-153.4 94.2 2.3 3.9 146.6-89.8 148.8-85.9 2.2 3.7-152.3 87.7-149.9 91.9 2.4 4.1 152.3-92.3 154.2-89 2.6 4.6-156.6 90.7-154 95.1 2.3 4.1 157.4-95.9 159.6-92.1 1.8 3.2-154.7 90.7-152.8 94 2.7 4.7 155.1-95.7 157.7-91.1 2.7 4.6-157 91.1-154.8 94.8 2.3 4.1 153.2-94 155.6-89.8 1.9 3.2-155.7 90.7-153.6 94.3 2.6 4.5 153.2-93.8 155.5-89.8 1.9 3.3-159.7 92.6-157.2 97s160.5-98.8 163.2-94.2c2.8 4.8-161.2 93.5-159.1 97.2 1.9 3.2 154-95.2 156.8-90.5 2.1 3.6-158.2 92.2-155.9 96.1 2.4 4.1 156.8-95 158.7-91.6 1.8 3.2-157.4 90.7-154.9 95.2 2.5 4.3 152.1-93.5 154.5-89.2 1.8 3-149 87.1-147.1 90.4 2.3 3.9 150.3-91.2 152.2-87.9 2 3.4-149.3 87.5-147.4 90.6 2.1 3.6 146.4-89.1 148.4-85.7 2.5 4.3-150 86.6-147.6 90.7 1.9 3.3 141.1-86.9 143.5-82.8 1.7 2.9-141.7 82.9-139.7 86.3 1.9 3.3 140.5-85.6 142.5-82.3 2 3.5-134 77.5-131.8 81.3 1.6 2.8 130.7-80.8 133-76.8 1.9 3.2-133.7 77.4-131.5 81.3 1.6 2.7 124.5-77 126.7-73.2 1.9 3.3-120 71.2-118.5 73.8 1.9 3.2 119.1-72.3 120.7-69.7 1.9 3.4-114.7 68.3-113.3 70.8 1.4 2.3 108.5-66.4 110.1-63.6 1.8 3.1-112.5 67.2-110.9 70.1 1.3 2.3 108.4-66.5 110.1-63.6 1.5 2.6-97.7 59.8-96.5 61.8 1.3 2.3 93.9-57.9 95.5-55.1 1.1 1.8-86.6 53.6-85.5 55.5s81.2-49.7 82.4-47.6-75.2 46.8-74.1 48.8c1.1 1.9 64-38.9 64.9-37.4.8 1.4-46 31.4-45.4 32.5.5.9 35.7-21.9 36.3-20.9" fill="none" stroke="#d4a87f" stroke-width="3" stroke-linecap="round" stroke-linejoin="round"/><circle cx="394.3" cy="294.5" r="80" fill="#c6c5ba" stroke="#5b453b" stroke-width="2"/><path d="M525.6 357.5c-84.6-31.9-178-31.9-262.7 0-.1 0-.2 0-.3-.1L244.3 309c0-.1 0-.2.1-.3 96.5-36.4 203-36.4 299.5 0 .1 0 .2.2.1.3l-18.3 48.4c.1.1 0 .1-.1.1z" fill="#92a8b4"/><path d="M525.6 357.5c-84.6-31.9-178-31.9-262.7 0-.1 0-.2 0-.3-.1L244.3 309c0-.1 0-.2.1-.3 96.5-36.4 203-36.4 299.5 0 .1 0 .2.2.1.3l-18.3 48.4c.1.1 0 .1-.1.1z" fill="none" stroke="#4a4a49" stroke-width="2" stroke-miterlimit="10"/><path class="D0" d="M368.3 346.1m.6 3.1"/><path class="D1" d="M335 255.8l1.4 5.1 5.3-.3-4.5 2.9 2 5-4.2-3.4-4.1 3.4 1.9-5-4.5-2.9 5.4.3zm118 0l1.4 5.1 5.3-.3-4.5 2.9 2 5-4.2-3.4-4.1 3.4 1.9-5-4.5-2.9 5.4.3zm-102.1-23.3l1 3.8 3.9-.3-3.3 2.1 1.4 3.7-3-2.5-3 2.5 1.4-3.7-3.3-2.1 3.9.3zm86.2 0l1 3.8 3.9-.3-3.3 2.1 1.4 3.7-3-2.5-3 2.5 1.4-3.7-3.3-2.1 3.9.3zm-86.2 113l1 3.8 3.9-.3-3.3 2.1 1.4 3.7-3-2.5-3 2.5 1.4-3.7-3.3-2.1 3.9.3zm86.2 0l1 3.8 3.9-.3-3.3 2.1 1.4 3.7-3-2.5-3 2.5 1.4-3.7-3.3-2.1 3.9.3zM374 221l.4 1.7 1.9-.1-1.6 1 .7 1.7-1.4-1.2-1.4 1.2.6-1.7-1.5-1 1.8.1zm40.1 0l.4 1.7 1.8-.1-1.5 1 .7 1.7-1.4-1.2-1.4 1.2.6-1.7-1.5-1 1.8.1zM374 364l.4 1.7 1.9-.1-1.6 1 .7 1.7-1.4-1.2-1.4 1.2.6-1.7-1.5-1 1.8.1zm40.1 0l.4 1.7 1.8-.1-1.5 1 .7 1.7-1.4-1.2-1.4 1.2.6-1.7-1.5-1 1.8.1z"/></svg>