<svg xmlns="http://www.w3.org/2000/svg" viewBox="0 0 325 57"><style><![CDATA[.G, .F{fill-opacity:0}.F{fill:#6a4f60}.I{stroke:#3a1c31}.G{stroke:#6db3be;fill:#ffeded}]]></style><g fill="none" fill-rule="evenodd"><g fill-rule="nonzero"><g stroke-width="1"><path class="G" d="M.2 15.2H56v40.5H.2l20-20.3z"/><path class="I" d="M7.5 53.4h46.7v-36H7.5l17.8 18-17.8 18zm3.157-1.269L27.2 35.5l-.3-.3-16.4-16.6h42.2v33.531H10.657z"></path></g><path class="F" d="M34.955 41.002l21.081 14.269V41.002z"/><g stroke-width="1"><path class="G" d="M322.8 15.2H267v40.5h55.8l-20-20.3z"/><path class="I" d="M315.5 53.4h-46.7v-36h46.7l-17.8 18 17.8 18zm-3.157-1.269L295.8 35.5l.3-.3 16.4-16.6h-42.2v33.531h42.043z"></path></g><path class="F" d="M287.82 41.002L266.98 55.263V41.002z"/><path class="G" d="M34 .752h255.2V41H34z"/><path class="I" d="M36.6 2.7v36.413h249.9V2.7z" stroke-width="1"/></g><path class="I" d="M38.1 4.422V37.7h246.8V4.254z" stroke-width="1"/></g></svg>