<svg xmlns="http://www.w3.org/2000/svg" viewBox="0 0 112 68.001"><defs><style>.a{fill:#36567a;}</style></defs><g transform="translate(-4386.906 -17)"><path class="a" d="M4407.722,85h-.156a18.694,18.694,0,0,1-10.408-3.026,20.426,20.426,0,0,1-6.369-7.3,39.3,39.3,0,0,1-3.883-17.619V55.28a113.519,113.519,0,0,1,1.4-16.728,2.5,2.5,0,0,1,2.361-1.972c.091,0,.185,0,.28.014a9.361,9.361,0,0,1,4.66,1.781c3.813,2.715,5.956,4.451,6.369,5.161.107,1.22.264,3.256.466,6.051.1,2.843.313,6.016.621,9.431.517,4.972,1.092,9.821,1.709,14.415.72,4.6,1.451,7.06,2.173,7.3a.785.785,0,0,0,.216.031c.753,0,1.517-1.148,2.27-3.412a58.437,58.437,0,0,0,2.174-8.72c.825-4.015,1.557-8.146,2.175-12.28.516-4.014.882-6.469,1.088-7.3a18.876,18.876,0,0,1,.932-3.914c.413-.709.778-1.068,1.087-1.068.721.236,1.349,1.194,1.864,2.848.617,1.768,1.087,3.025,1.4,3.737l-.155.356a8.714,8.714,0,0,0,3.106,1.958,13.772,13.772,0,0,0,4.505,1.424,26.078,26.078,0,0,0,4.064.317,28.989,28.989,0,0,0,5.256-.5,18.282,18.282,0,0,0,7.3-3.025,25.305,25.305,0,0,0,4.349-3.916c-4.432-4.487-7.307-8.739-8.544-12.635a13.888,13.888,0,0,1-.659-6.317,13.244,13.244,0,0,1,2.369-5.784A12.566,12.566,0,0,1,4445.47,19a8.485,8.485,0,0,1,4.334-1.178,9.732,9.732,0,0,1,1.257.084,9.287,9.287,0,0,1,3.728,1.247,11.2,11.2,0,0,1,3.418,3.2,13.817,13.817,0,0,1,3.184,7.741,18.121,18.121,0,0,1-1.942,8.987,41.086,41.086,0,0,1-4.815,7.83,35.1,35.1,0,0,0,14.757,5.873,31.687,31.687,0,0,0,5.243.445,30.307,30.307,0,0,0,5.165-.445,21.337,21.337,0,0,0,9.631-4.271,6.583,6.583,0,0,0,2.641-4.138,13.977,13.977,0,0,0-.465-6.362c-1.444-4.959-3.692-8.671-6.68-11.033-2.589-2-4.741-3.017-6.4-3.017a3.228,3.228,0,0,0-2.46,1.059,5.985,5.985,0,0,0-1.514,3.871,20.4,20.4,0,0,0,.737,6.273c.626,2.661,1.5,4.01,2.586,4.01a1.571,1.571,0,0,0,.521-.095,1.512,1.512,0,0,0,.933-.832c.342-.788.133-2.065-.622-3.795a10.12,10.12,0,0,1,2.641-2.67,1.849,1.849,0,0,1,1.118-.427,2.326,2.326,0,0,1,1.679.962,10.75,10.75,0,0,1,.465,3.915,11.1,11.1,0,0,1-.932,2.848,7.045,7.045,0,0,1-2.72,2.809,8.127,8.127,0,0,1-4,.936c-.14,0-.283,0-.427-.008A7.491,7.491,0,0,1,4472.5,41.8a6.43,6.43,0,0,1-2.486-3.071,16.46,16.46,0,0,1-1.243-5.16,18.6,18.6,0,0,1,.621-4.805,15.9,15.9,0,0,1,3.457-6.051,18.817,18.817,0,0,1,6.02-4.271,12.807,12.807,0,0,1,5.62-1.442c.2,0,.4.006.593.018a12.347,12.347,0,0,1,7.456,2.669,12.792,12.792,0,0,1,3.574,4.094,18.7,18.7,0,0,1,2.173,6.051,21.348,21.348,0,0,1,.622,5.161,31.864,31.864,0,0,1-1.243,8.543,22.109,22.109,0,0,1-3.3,6.985,28.253,28.253,0,0,1-5.864,6.007,18.679,18.679,0,0,1-9.787,4.093h-2.485a29.916,29.916,0,0,1-7.922-1.068,38.985,38.985,0,0,1-8.7-3.6,46.143,46.143,0,0,1-8.079-5.828,37.782,37.782,0,0,1-5.591,4.271,37.522,37.522,0,0,1-4.506,2.136,35.431,35.431,0,0,1-5.281,1.423,31.627,31.627,0,0,1-5.243.445,30.236,30.236,0,0,1-5.165-.445,11.542,11.542,0,0,1-6.524-2.848c-.1,1.3-.261,2.561-.466,3.738-.41,2.819-.88,5.573-1.4,8.186a67.587,67.587,0,0,1-3.573,12.635,10.676,10.676,0,0,1-2.6,3.915A5.505,5.505,0,0,1,4407.722,85Zm37.608-60.2a3.139,3.139,0,0,0-.543.047c-1.443.355-1.966,2.212-1.554,5.518a19.274,19.274,0,0,0,2.408,7.074A28.472,28.472,0,0,0,4451,44.068a24.052,24.052,0,0,0,2.019-4.449,11.147,11.147,0,0,0,.117-6.674,14.606,14.606,0,0,0-4-6.14A5.705,5.705,0,0,0,4445.33,24.8Z"/></g></svg>