<svg xmlns="http://www.w3.org/2000/svg" viewBox="0 0 501.551 501.551" style="enable-background:new 0 0 501.551 501.551;"><path d="M480.653 0H20.898C9.404 0 0 9.404 0 20.898v459.755c0 11.494 9.404 20.898 20.898 20.898h459.755c11.494 0 20.898-9.404 20.898-20.898V20.898C501.551 9.404 492.147 0 480.653 0z" fill="#F2F2F2"/><path d="M36.571 36.571h428.408v345.861H36.571z" fill="#84DBFF"/><path d="M261.224 382.433H36.571v-87.771c17.763-5.224 37.616-7.314 57.469-7.314 25.078 0 50.155 4.18 71.053 12.539 6.269 2.09 11.494 4.18 16.718 7.314 36.573 16.717 64.785 42.84 79.413 75.232z" fill="#334A5E"/><path d="M464.98 271.673v110.759H127.478c9.404-29.257 29.257-55.38 55.38-76.278 42.841-34.482 103.445-55.38 172.408-55.38 38.661.002 77.322 7.316 109.714 20.899z" fill="#40596B"/><g fill="#fff"><circle cx="122.253" cy="122.253" r="42.841"/><path d="M433.633 101.355c1.045-3.135 1.045-6.269 1.045-9.404 0-16.718-13.584-31.347-31.347-31.347-11.494 0-21.943 6.269-27.167 15.673-3.135-2.09-7.314-2.09-11.494-2.09-14.629 0-26.122 10.449-28.212 24.033-8.359 2.09-14.629 9.404-14.629 17.763 0 10.449 8.359 18.808 18.808 18.808h82.547c10.449 0 18.808-8.359 18.808-18.808 0-6.269-3.135-11.493-8.359-14.628z"/></g></svg>