<svg xmlns="http://www.w3.org/2000/svg" xmlns:xlink="http://www.w3.org/1999/xlink" viewBox="0 0 110 110"><defs><style>.a{fill:#d59cc2;}.b{fill:#d4cfe9;}.c{fill:#fff;}.d{fill:#464974;}.e{fill:#f0f5fa;}.f{fill:#e7ecf0;}.g{fill:#dadfe3;opacity:0.509;}.h{fill:#fcfcfc;}.i{fill:#232e38;}.j{fill:#c0c5cc;}.k{fill:#ff859d;}.l{fill:#d0d4d9;}.m{fill:#bacee6;}.n{fill:#ffdfc7;}.o{fill:#263547;}.p{fill:#424256;}.q{fill:none;}.r{filter:url(#a);}</style><filter id="a" x="6.928" y="35.632" width="20.518" height="20.518" filterUnits="userSpaceOnUse"><feOffset dy="3" input="SourceAlpha"/><feGaussianBlur stdDeviation="3" result="b"/><feFlood flood-opacity="0.161"/><feComposite operator="in" in2="b"/><feComposite in="SourceGraphic"/></filter></defs><g transform="translate(-920.634 -830.728)"><g transform="translate(914.634 929.728)"><circle class="a" cx="53" cy="53" r="53" transform="translate(8.268 8.732) rotate(-90)"/><g transform="translate(6 -21.786)"><path class="b" d="M299.8-1020.268v10.094H409.568v-10.094Z" transform="translate(-299.795 1020.268)"/><ellipse class="c" cx="1.388" cy="1.388" rx="1.388" ry="1.388" transform="translate(4.038 3.785)"/><g transform="translate(1.766 0)"><rect class="d" width="0.757" height="1.766"/><rect class="d" width="0.757" height="1.009" transform="translate(2.019)"/><rect class="d" width="0.757" height="1.766" transform="translate(4.038)"/><rect class="d" width="0.757" height="1.009" transform="translate(6.056)"/><rect class="d" width="0.757" height="1.766" transform="translate(8.075)"/><rect class="d" width="0.757" height="1.009" transform="translate(10.094)"/><rect class="d" width="0.757" height="1.766" transform="translate(12.365)"/><rect class="d" width="0.757" height="1.009" transform="translate(14.384)"/><rect class="d" width="0.757" height="1.766" transform="translate(16.403)"/><rect class="d" width="0.757" height="1.009" transform="translate(18.422)"/><rect class="d" width="0.757" height="1.766" transform="translate(20.441)"/><rect class="d" width="0.757" height="1.009" transform="translate(22.459)"/><rect class="d" width="0.757" height="1.766" transform="translate(24.478)"/><rect class="d" width="0.757" height="1.009" transform="translate(26.497)"/><rect class="d" width="0.757" height="1.766" transform="translate(28.516)"/><rect class="d" width="0.757" height="1.009" transform="translate(30.535)"/><rect class="d" width="0.757" height="1.766" transform="translate(32.553)"/><rect class="d" width="0.757" height="1.009" transform="translate(34.572)"/><rect class="d" width="0.757" height="1.766" transform="translate(36.591)"/><rect class="d" width="0.757" height="1.009" transform="translate(38.61)"/><rect class="d" width="0.757" height="1.766" transform="translate(40.629)"/><rect class="d" width="0.757" height="1.009" transform="translate(42.648)"/><rect class="d" width="0.757" height="1.766" transform="translate(44.666)"/><rect class="d" width="0.757" height="1.009" transform="translate(46.685)"/><rect class="d" width="0.757" height="1.766" transform="translate(48.704)"/><rect class="d" width="0.757" height="1.009" transform="translate(50.723)"/><rect class="d" width="0.757" height="1.766" transform="translate(52.742)"/><rect class="d" width="0.757" height="1.009" transform="translate(54.76)"/><rect class="d" width="0.757" height="1.766" transform="translate(56.779)"/><rect class="d" width="0.757" height="1.009" transform="translate(58.798)"/><rect class="d" width="0.757" height="1.766" transform="translate(60.817)"/><rect class="d" width="0.757" height="1.009" transform="translate(62.836)"/><rect class="d" width="0.757" height="1.766" transform="translate(64.855)"/><rect class="d" width="0.757" height="1.009" transform="translate(66.873)"/><rect class="d" width="0.757" height="1.766" transform="translate(68.892)"/><rect class="d" width="0.757" height="1.009" transform="translate(70.911)"/><rect class="d" width="0.757" height="1.766" transform="translate(72.93)"/><rect class="d" width="0.757" height="1.009" transform="translate(74.949)"/><rect class="d" width="0.757" height="1.766" transform="translate(76.967)"/><rect class="d" width="0.757" height="1.009" transform="translate(78.986)"/><rect class="d" width="0.757" height="1.766" transform="translate(81.005)"/><rect class="d" width="0.757" height="1.009" transform="translate(83.024)"/><rect class="d" width="0.757" height="1.766" transform="translate(85.043)"/><rect class="d" width="0.757" height="1.009" transform="translate(87.062)"/><rect class="d" width="0.757" height="1.766" transform="translate(89.08)"/><rect class="d" width="0.757" height="1.009" transform="translate(91.099)"/><rect class="d" width="0.757" height="1.766" transform="translate(93.118)"/><rect class="d" width="0.757" height="1.009" transform="translate(95.137)"/><rect class="d" width="0.757" height="1.766" transform="translate(97.156)"/><rect class="d" width="0.757" height="1.009" transform="translate(99.174)"/><rect class="d" width="0.757" height="1.766" transform="translate(101.193)"/><rect class="d" width="0.757" height="1.009" transform="translate(103.212)"/><rect class="d" width="0.757" height="1.766" transform="translate(105.231)"/></g></g><g transform="translate(30.381 -30.871)"><rect class="e" width="23.721" height="1.009" transform="translate(0 8.075)"/><rect class="f" width="16.151" height="8.075" transform="translate(3.785 0)"/><path class="g" d="M429.273-1058l11.1,8.076h3.718V-1058Z" transform="translate(-424.153 1057.999)"/></g><g transform="translate(11.455 -76.546)"><path class="h" d="M326.984-1076s-.005,1.528-.005,3.533a.91.91,0,0,0,1.023,1.009H387.03a.89.89,0,0,0,1.018-1.009V-1076Z" transform="translate(-326.978 1117.133)"/><path class="i" d="M.665,0H60.4a.665.665,0,0,1,.665.665V40.376H0V.665A.665.665,0,0,1,.665,0Z"/><rect class="c" width="55.517" height="35.834" transform="translate(2.776 2.271)"/><rect class="j" width="61.069" height="1.009" transform="translate(0 40.376)"/></g><g transform="translate(61.673 -49.04)"><g transform="translate(3.785)"><path class="i" d="M.824,0H41.988a.824.824,0,0,1,.824.824V26.694H0V.824A.824.824,0,0,1,.824,0Z"/><rect class="c" width="39.79" height="24.176" transform="translate(1.511 1.511)"/><g transform="translate(5.029 2.77)"><rect class="k" width="13.081" height="4.029" transform="translate(-2)"/><rect class="e" width="22.413" height="4.029" transform="translate(12.34)"/><rect class="l" width="36.753" height="4.533" transform="translate(-2 5.54)"/><rect class="m" width="11" height="5.5" transform="translate(-2 11.584)"/><rect class="m" width="11" height="5.5" transform="translate(10.912 11.584)"/><rect class="m" width="11" height="5.5" transform="translate(23.762 11.584)"/><rect class="n" width="11" height="3.143" transform="translate(-2 18.384)"/><rect class="n" width="11" height="3.143" transform="translate(10.912 18.384)"/><rect class="n" width="11" height="3.143" transform="translate(23.762 18.384)"/></g></g><g transform="translate(0 26.245)"><rect class="e" width="50.618" height="1.007" transform="translate(0 0)"/><rect class="j" width="9.318" height="1.007" transform="translate(20.65 0)"/></g></g><g transform="translate(21.297 -70.238)"><path class="i" d="M.618,0H40.683A.618.618,0,0,1,41.3.618v26.97a.618.618,0,0,1-.618.618H.618A.618.618,0,0,1,0,27.588V.618A.618.618,0,0,1,.618,0Z"/><rect class="c" width="33.746" height="26.694" transform="translate(3.785 0.757)"/><g transform="translate(0.631 12.87)"><g class="r" transform="matrix(1, 0, 0, 1, -15.93, -41.63)"><circle class="l" cx="1.259" cy="1.259" r="1.259" transform="translate(15.93 41.63)"/></g><circle class="o" cx="1.007" cy="1.007" r="1.007" transform="translate(0.252 0.252)"/></g><g transform="translate(38.358 10.346)"><circle class="l" cx="0.504" cy="0.504" r="0.504" transform="translate(0.712 3.164)"/></g></g><g transform="translate(35.933 -66.705)"><g transform="translate(-242.567 -219.023)"><path class="i" d="M1.79-962.89a1.613,1.613,0,0,1-1.678-1.539v-12.414a.108.108,0,0,1-.112-.1v-1.385a.108.108,0,0,1,.112-.1v-.41a.108.108,0,0,1-.112-.1v-1.385a.108.108,0,0,1,.112-.1v-.77a.108.108,0,0,1-.112-.1v-.616a.108.108,0,0,1,.112-.1v-1.436A1.613,1.613,0,0,1,1.79-985h8.42a1.613,1.613,0,0,1,1.678,1.539v3.565a.108.108,0,0,1,.112.1v2.309a.108.108,0,0,1-.112.1v12.953a1.613,1.613,0,0,1-1.678,1.539Z" transform="translate(243 1204)"/><path class="p" d="M48.874-965.839a.164.164,0,0,1,.168-.161.165.165,0,0,1,.168.161.164.164,0,0,1-.168.161A.164.164,0,0,1,48.874-965.839Zm-1.79.08a.082.082,0,0,1-.084-.08.082.082,0,0,1,.084-.08H48.4a.082.082,0,0,1,.084.08.082.082,0,0,1-.084.08Z" transform="translate(201.259 1185.7)"/></g><path class="c" d="M9.518,92.958H1.137a1.229,1.229,0,0,1-.442-.081,1.145,1.145,0,0,1-.361-.221,1.03,1.03,0,0,1-.244-.328.945.945,0,0,1-.089-.4V73.032a.945.945,0,0,1,.089-.4A1.029,1.029,0,0,1,.333,72.3a1.145,1.145,0,0,1,.361-.221A1.229,1.229,0,0,1,1.137,72h1.08a.149.149,0,0,1,.1.037.123.123,0,0,1,.042.09v.08a.52.52,0,0,0,.049.221.566.566,0,0,0,.134.18.63.63,0,0,0,.2.122.676.676,0,0,0,.243.045H7.728a.614.614,0,0,0,.221-.041.572.572,0,0,0,.181-.111.515.515,0,0,0,.122-.164.473.473,0,0,0,.045-.2v-.129A.136.136,0,0,1,8.439,72h1.08a1.229,1.229,0,0,1,.442.081,1.145,1.145,0,0,1,.361.221,1.029,1.029,0,0,1,.244.328.945.945,0,0,1,.089.4V91.925a.945.945,0,0,1-.089.4,1.03,1.03,0,0,1-.244.328,1.145,1.145,0,0,1-.361.221A1.229,1.229,0,0,1,9.518,92.958Z" transform="translate(1.106 -71.469)"/><rect class="k" width="9" height="1.5" transform="translate(1.933 2.277)"/><path class="n" d="M0,0H9V3.35H0Z" transform="translate(1.933 16.671)"/><rect class="l" width="9" height="2" transform="translate(1.933 4.477)"/><rect class="m" width="9" height="4" transform="translate(1.933 7.081)"/><rect class="m" width="9" height="4" transform="translate(1.933 11.876)"/><path class="p" d="M44.7-965.758a.082.082,0,0,1-.084-.08.082.082,0,0,1,.084-.08h3.7a.082.082,0,0,1,.084.08.082.082,0,0,1-.084.08Z" transform="translate(-40.181 986.896)"/></g><rect class="q" width="110" height="110" transform="translate(6 -99)"/></g></g></svg>