<svg xmlns="http://www.w3.org/2000/svg" xmlns:xlink="http://www.w3.org/1999/xlink" viewBox="0 0 110 110"><defs><style>.a{fill:rgba(255,255,255,0);}.b{opacity:0.996;}.c{fill:#ededed;}.d{fill:none;}.e{fill:url(#a);}.f{fill:url(#b);}.g{fill:#474f59;}.h{fill:url(#c);}.i{fill:#d59cc2;}.j{fill:#faebc8;}.k,.q,.r,.s{fill:#fff;}.l{fill:#464974;}.m{clip-path:url(#d);}.n{fill:#282a42;}.o{fill:#fbb47e;}.p{fill:#043a3d;}.q{opacity:0.6;}.r{opacity:0.601;}.s{opacity:0.996;}</style><linearGradient id="a" x1="0.5" x2="0.5" y2="1" gradientUnits="objectBoundingBox"><stop offset="0" stop-color="#474f59"/><stop offset="0.562" stop-color="#474f59"/><stop offset="1" stop-color="#0e1012"/></linearGradient><linearGradient id="b" x1="0.804" y1="0.103" x2="0.802" y2="0.846" gradientUnits="objectBoundingBox"><stop offset="0" stop-color="#f2f2f2"/><stop offset="0.764" stop-color="#f2f2f2"/><stop offset="1" stop-color="#d0cece"/></linearGradient><linearGradient id="c" x1="0.5" y1="1.178" x2="0.5" y2="0.567" gradientUnits="objectBoundingBox"><stop offset="0" stop-color="#b0c5df"/><stop offset="1" stop-color="#fafafa"/></linearGradient><clipPath id="d"><circle class="a" cx="53" cy="53" r="53" transform="translate(913 694)"/></clipPath></defs><g transform="translate(-913 -700)"><g class="b" transform="translate(2 8)"><circle class="c" cx="53" cy="53" r="53" transform="translate(913 694)"/><rect class="d" width="110" height="110" transform="translate(911 692)"/><g transform="translate(17.088 -343.194)"><rect class="e" width="80.491" height="5.395" transform="translate(912.667 1050)"/><path class="f" d="M239.808-808.039v5.4l-7-2.7Z" transform="translate(672.859 1858.039)"/><path class="g" d="M235.433-808.52v2.031l-2.625-1.014Z" transform="translate(672.859 1860.201)"/><rect class="h" width="2.625" height="5.395" transform="translate(993.157 1050)"/><path class="i" d="M298.231-766h-1.75v5.4h1.75c1.487,0,2.646-.354,2.625-2.7S299.714-766,298.231-766Z" transform="translate(699.301 1816)"/></g><g transform="translate(999.84 693.48) rotate(90)"><path class="j" d="M299.8-1008.268v-12h30v12Z" transform="translate(-299.795 1019.108)"/><circle class="k" cx="1.5" cy="1.5" r="1.5" transform="translate(3.471 2.84)"/><g transform="translate(1.956 8.883)"><rect class="l" width="0.838" height="1.956"/><rect class="l" width="0.838" height="1.118" transform="translate(2.236 0.838)"/><rect class="l" width="0.838" height="1.956" transform="translate(4.471)"/><rect class="l" width="0.838" height="1.118" transform="translate(6.707 0.838)"/><rect class="l" width="0.838" height="1.956" transform="translate(8.942)"/><rect class="l" width="0.838" height="1.118" transform="translate(11.178 0.838)"/><rect class="l" width="0.838" height="1.956" transform="translate(13.693)"/><rect class="l" width="0.838" height="1.118" transform="translate(15.929 0.838)"/><rect class="l" width="0.838" height="1.956" transform="translate(18.164)"/><rect class="l" width="0.838" height="1.118" transform="translate(20.4 0.838)"/><rect class="l" width="0.838" height="1.956" transform="translate(22.636)"/><rect class="l" width="0.838" height="1.118" transform="translate(24.871 0.838)"/><rect class="l" width="0.838" height="1.956" transform="translate(27.107)"/></g></g><g class="m"><path class="l" d="M0,0H44V60H0Z" transform="translate(975 723)"/><rect class="n" width="44" height="5" transform="translate(975 723)"/></g><rect class="o" width="26" height="17" transform="translate(991 767)"/><circle class="k" cx="4" cy="4" r="4" transform="translate(1000 772)"/><circle class="o" cx="3.4" cy="3.4" r="3.4" transform="translate(1000.6 772.6)"/><path class="k" d="M1003.244,775.016v2.5l3-1.254Z" transform="translate(-0.244 -0.216)"/><rect class="p" width="26" height="4" transform="translate(991 784)"/><rect class="q" width="2" height="1" transform="translate(992 785.5)"/><rect class="r" width="2" height="1" transform="translate(995 785.5)"/><rect class="q" width="15" height="1" transform="translate(998 785.5)"/><rect class="q" width="2" height="1" transform="translate(1014 785.5)"/><rect class="s" width="2" height="1" transform="translate(1003.5 785) rotate(90)"/><rect class="k" width="5" height="1" transform="translate(998 785.5)"/></g></g></svg>