<svg xmlns="http://www.w3.org/2000/svg" xmlns:xlink="http://www.w3.org/1999/xlink" viewBox="0 0 110 110"><defs><style>.a{fill:#ffd3b2;}.b{fill:none;}.c{fill:url(#a);}.d{fill:url(#b);}.e{fill:#474f59;}.f{fill:url(#c);}.g{fill:#d59cc2;}.h{fill:#f0f5fa;}.i{fill:#e7ecf0;}.j{fill:#dadfe3;opacity:0.509;}.k{fill:#fcfcfc;}.l{fill:#232e38;}.m{fill:#bacee6;}.n{fill:#c0c5cc;}.o{fill:#fff;}.p{fill:#464974;}.q{fill:#fcfbfc;}.r{fill:#d4cfe9;}.s{fill:#ededed;}.t{fill:#d0d4d9;}.u{fill:#ab6789;}.v{fill:#731745;}</style><linearGradient id="a" x1="0.5" x2="0.5" y2="1" gradientUnits="objectBoundingBox"><stop offset="0" stop-color="#474f59"/><stop offset="0.562" stop-color="#474f59"/><stop offset="1" stop-color="#0e1012"/></linearGradient><linearGradient id="b" x1="0.804" y1="0.103" x2="0.802" y2="0.846" gradientUnits="objectBoundingBox"><stop offset="0" stop-color="#f2f2f2"/><stop offset="0.764" stop-color="#f2f2f2"/><stop offset="1" stop-color="#d0cece"/></linearGradient><linearGradient id="c" x1="0.5" y1="1.178" x2="0.5" y2="0.567" gradientUnits="objectBoundingBox"><stop offset="0" stop-color="#b0c5df"/><stop offset="1" stop-color="#ededed"/></linearGradient></defs><g transform="translate(-913 -970)"><path class="a" d="M53,0A53,53,0,1,1,0,53,53,53,0,0,1,53,0Z" transform="translate(915 972)"/><rect class="b" width="110" height="110" transform="translate(913 970)"/><g transform="translate(8.332 -1)"><rect class="c" width="92" height="5" transform="translate(913.668 1050)"/><path class="d" d="M240.808-808.039v5l-8-2.5Z" transform="translate(672.859 1858.039)"/><path class="e" d="M235.808-808.52v1.883l-3-.94Z" transform="translate(672.859 1860.077)"/><rect class="f" width="3" height="5" transform="translate(1005.668 1050)"/><path class="g" d="M298.481-766h-2v5h2c1.7,0,3.024-.328,3-2.5S300.176-766,298.481-766Z" transform="translate(712.187 1816)"/></g><g transform="translate(13 7.775)"><g transform="translate(937.314 1033.497)"><rect class="h" width="20.607" height="0.859" transform="translate(0 6.869)"/><rect class="i" width="13.738" height="6.869" transform="translate(3.435 0)"/><path class="j" d="M429.772-1058.129l9.445,6.869h2.576v-6.869Z" transform="translate(-424.62 1058.129)"/></g><g transform="translate(921 994)"><path class="k" d="M326.523-1075.587v2.576a.761.761,0,0,0,.859.859H378.9c.726,0,.859-.425.859-.859v-2.576Z" transform="translate(-326.523 1111.65)"/><path class="l" d="M.4-.454H51.922A1.186,1.186,0,0,1,52.781.4V34.751H-.455V.4A1.186,1.186,0,0,1,.4-.454Z" transform="translate(0.455 0.454)"/><rect class="m" width="48.084" height="30.911" transform="translate(2.576 2.576)"/><rect class="n" width="53.236" height="0.859" transform="translate(0 35.204)"/></g></g><g transform="translate(974.915 1025.347)"><g transform="translate(3.046 0.04)"><path class="l" d="M.4.04H35.418a.985.985,0,0,1,.854.848V22.943H-.458V.888A.985.985,0,0,1,.4.04Z" transform="translate(0.458 -0.04)"/><rect class="m" width="34.107" height="20.723" transform="translate(1.312 1.312)"/></g><g transform="translate(1.085 22.778)"><path class="h" d="M.758,0h41.1V.875H.758Z" transform="translate(-0.758 0)"/><rect class="n" width="6.996" height="0.875" transform="translate(16.936 0)"/></g></g><g transform="translate(0 -2)"><circle class="o" cx="7" cy="7" r="7" transform="translate(954 1019)"/><g transform="translate(804.471 720.487)"><g transform="translate(151.529 300.713)"><path class="g" d="M162.023,135.7a1.274,1.274,0,0,1-.136,1.924,1.39,1.39,0,0,1,.329,1.794.944.944,0,0,0-.765.007.755.755,0,0,0-.6-.126.977.977,0,0,0-1.236-.721.821.821,0,0,0-.106-.416,1.02,1.02,0,0,0,.626-.282.744.744,0,0,0,1,.155.875.875,0,0,0,.449.434c.032-.08.064-.161.1-.241a.646.646,0,0,1-.1-1.112l-.148-.215a.9.9,0,0,0-.38.866.494.494,0,0,1-.763-.1.713.713,0,0,0,.059-.521.8.8,0,0,0,.251-1.043.854.854,0,0,0,.9-.861.755.755,0,0,0,.5-.55c-.083-.022-.166-.041-.249-.058a.539.539,0,0,1-.966.147c-.067.056-.131.114-.2.173a.934.934,0,0,0,.648.327c-.135,1.15-2,.334-1.62-.589a.6.6,0,0,1,.806-.344C161.675,132.51,162.979,134.414,162.023,135.7Zm-2.662-.481a1.35,1.35,0,0,0,.894.833.517.517,0,0,1-.291.929.465.465,0,0,1-.108.787c-.646.38-.82-.209-1.587.194a.9.9,0,0,1,.748-1.434C158.642,136.126,158.63,135.291,159.362,135.218Zm-.084,3.75c.633-.279,1.173-.225,1.338.444a.678.678,0,0,0-.267.629.844.844,0,0,0,.425,1.572.948.948,0,0,0,.607.734c.035-.079.063-.161.094-.242a.6.6,0,0,1,.033-1.167c-.019-.084-.038-.169-.056-.253a.845.845,0,0,0-.674.665c-.716-.09-.791-.83-.129-1.176-.157-.667.37-.8.786-.411.746-.627,1.635.636.758,1.571,1.034,1.119-.13,2.494-1.123,1.479-.758.305-1.219-.134-1.117-.9-.792.226-1.277-.4-1.043-1.179a1.46,1.46,0,0,1-.979-1.6C158.031,137.65,159.793,137.807,159.278,138.967Z" transform="translate(-157.927 -133.581)"/><path class="g" d="M636.549,134a.6.6,0,0,1,.806.344c.376.923-1.485,1.738-1.62.589a.935.935,0,0,0,.648-.327c-.064-.059-.129-.117-.2-.173a.539.539,0,0,1-.966-.147c-.084.017-.167.036-.249.058a.755.755,0,0,0,.5.55.854.854,0,0,0,.9.861.794.794,0,0,0,.252,1.043.711.711,0,0,0,.059.521.494.494,0,0,1-.763.1.9.9,0,0,0-.38-.866l-.148.215a.646.646,0,0,1-.1,1.112c.033.08.065.16.1.241a.875.875,0,0,0,.449-.434.744.744,0,0,0,1-.155,1.02,1.02,0,0,0,.626.282.821.821,0,0,0-.106.416.977.977,0,0,0-1.236.721.755.755,0,0,0-.6.126.945.945,0,0,0-.765-.007,1.39,1.39,0,0,1,.329-1.794,1.274,1.274,0,0,1-.136-1.924c-.849-1.141.059-2.5.94-2.017A1.992,1.992,0,0,1,636.549,134Zm1.419,2.183a.9.9,0,0,1,.748,1.434,1.025,1.025,0,0,0-.882-.094c-.523.156-1.331-.3-.813-.887a.517.517,0,0,1-.291-.929,1.345,1.345,0,0,0,.894-.833C638.347,134.952,638.347,135.783,637.967,136.187Zm.108,4.2c.233.778-.25,1.406-1.044,1.179.1.771-.363,1.208-1.116.9-1,1.021-2.151-.367-1.123-1.479-.878-.936.01-2.2.758-1.571.411-.385.944-.261.786.411.659.344.59,1.085-.129,1.176a.845.845,0,0,0-.674-.665c-.019.084-.037.169-.056.253a.6.6,0,0,1,.033,1.166c.032.081.059.163.094.242a.948.948,0,0,0,.607-.734.844.844,0,0,0,.425-1.572.677.677,0,0,0-.267-.629c.165-.671.705-.723,1.338-.444-.417-.937.581-1.1,1.007-.686A1.567,1.567,0,0,1,638.076,140.39Z" transform="translate(-629.062 -133.242)"/></g></g><rect class="o" width="6" height="3" transform="translate(958 1017)"/><rect class="p" width="9" height="1" transform="translate(956.5 1017)"/><path class="p" d="M239-798v-5c0-1.46,3.069-3,3.5-3s3.5,1.54,3.5,3v5Z" transform="translate(718.5 1816)"/><path class="p" d="M.154.513.789.424a29.365,29.365,0,0,1,.634,8.615c-.25,5.551-1.277,8.43-1.27,13.61S.695,37,.695,37H0s-.444-7.646-.444-14.352S.539,14.592.789,9.039A28.372,28.372,0,0,0,.154.513Z" transform="translate(960.5 974)"/></g><g transform="translate(964 905.781)"><path class="l" d="M42.035,342.648H1v-2H42.035Z" transform="translate(5.662 -251.429)"/><g transform="translate(19.429 63.668)"><path class="m" d="M111.571,90.673v20h5v-20Z" transform="translate(-112 -85.122)"/><rect class="q" width="5" height="1.8" transform="translate(-0.429 8.551)"/><rect class="q" width="5" height="1.5" transform="translate(-0.429 20.551)"/></g><g transform="translate(23.857 62.736)"><path class="p" d="M224.143,91.7v19h3v-19Z" transform="translate(-224 -84.219)"/><rect class="r" width="1" height="14" transform="translate(1.143 10.483)"/></g><g transform="translate(35.208 62.523) rotate(-11)"><path class="s" d="M343.9,84.425v17h3v-17Z" transform="translate(-348 -74.894)"/><rect class="t" width="3" height="2" transform="translate(-4.102 11.53)"/><rect class="t" width="3" height="5" transform="translate(-4.102 19.53)"/></g><g transform="translate(15.321 71.866)"><path class="u" d="M80,109.219V125.2c0,.035-.06,0,0,0h3.973V109.219Z" transform="translate(-80.294 -107.866)"/><rect class="o" width="0.8" height="10" transform="translate(0.479 4.353)"/><rect class="o" width="0.8" height="5" transform="translate(2.079 4.353)"/></g><g transform="translate(31.388 60.219)"><path class="v" d="M287.612,60.986v22h6v-22Z" transform="translate(-292 -53.986)"/><path class="s" d="M0-.211H6v2.2H0Z" transform="translate(-4.388 7.211)"/><rect class="s" width="6" height="1" transform="translate(-4.388 28)"/><rect class="s" width="1" height="10" transform="translate(-3.388 12)"/><rect class="s" width="1" height="4" transform="translate(-1.888 12)"/><rect class="s" width="1" height="14" transform="translate(-0.388 12)"/></g><g transform="translate(-7 -0.424)"><path class="o" d="M255.878,117.5v17h3v-17Z" transform="translate(-236.878 -44.862)"/><rect class="p" width="3" height="2" transform="translate(19 75.643)"/><rect class="p" width="3" height="1" transform="translate(19 86.643)"/></g></g></g></svg>