<svg xmlns="http://www.w3.org/2000/svg" viewBox="0 0 15.123 24"><g id="arrow--up" transform="translate(-11.873 -9.002)"><path id="arrow--up__arrow" d="M17.529 40.721l-.977.963a.643.643 0 0 0 0 .909l2.859 2.614L.643 45.2a.659.659 0 0 0-.643.665v.944a1.078 1.078 0 0 0 1.074 1.047l18.338.027-2.859 2.6a.643.643 0 0 0 0 .909l.977.952a.643.643 0 0 0 .909 0l5.371-5.348a.643.643 0 0 0 0-.909l-5.371-5.362a.643.643 0 0 0-.91-.004z" fill="#36567a" transform="rotate(-90 3.734 29.267)"/><path id="arrow--up__tail" d="M14.49 30.41c-.32 0-.613-.078-.931.27-.589.589-1.373 1.377-1.373 1.377-.712.712 0 .966.385.966h7.767v-2.614z" fill="#36567a" transform="translate(-.009 -.021)"/></g></svg>
