<svg xmlns="http://www.w3.org/2000/svg" viewBox="0 0 23.998 11.996"><g id="arrow--left" transform="translate(-8.003 -14.003)"><path id="arrow--left__path" d="M17.529 40.721l-.977.963a.643.643 0 0 0 0 .909l2.859 2.614L.643 45.2a.659.659 0 0 0-.643.665v1.375a.643.643 0 0 0 .643.643h18.768l-2.859 2.6a.643.643 0 0 0 0 .909l.977.952a.643.643 0 0 0 .909 0l5.371-5.348a.643.643 0 0 0 0-.909l-5.371-5.362a.643.643 0 0 0-.909-.004z" class="cls-1" fill="#36567a" data-name="arrow--left" transform="rotate(180 16 33.266)"/></g></svg>
