<svg xmlns="http://www.w3.org/2000/svg" viewBox="0 0 24 24"><g><path fill="#36567a" d="M14.73 9.27a6.57 6.57 0 0 1 .46 8.77c-.3.37-.14.2-4 4.04a6.56 6.56 0 0 1-9.28-9.28c1.54-1.54 2.43-2.44 2.98-2.98a.56.56 0 0 1 .96.4 8.12 8.12 0 0 0 .22 1.76.56.56 0 0 1-.15.52l-2.15 2.15a3.94 3.94 0 0 0 5.57 5.57l3.52-3.52a3.94 3.94 0 0 0-1.07-6.33.56.56 0 0 1-.3-.58 2.42 2.42 0 0 1 .7-1.44l.2-.2a.56.56 0 0 1 .64-.1 6.53 6.53 0 0 1 1.7 1.2zm7.35-7.35a6.56 6.56 0 0 0-9.28 0c-3.86 3.85-3.7 3.67-4 4.04a6.56 6.56 0 0 0 2.16 10 .56.56 0 0 0 .65-.12l.2-.2a2.42 2.42 0 0 0 .7-1.43.56.56 0 0 0-.3-.57 3.94 3.94 0 0 1-1.07-6.33l3.52-3.52a3.94 3.94 0 0 1 5.57 5.57l-2.15 2.15a.56.56 0 0 0-.15.53 8.12 8.12 0 0 1 .22 1.77.56.56 0 0 0 .96.38c.55-.54 1.44-1.44 2.98-2.97a6.56 6.56 0 0 0 0-9.27z"/></g></svg>