<?xml version="1.0" encoding="utf-8"?>
<!-- Generator: Adobe Illustrator 21.1.0, SVG Export Plug-In . SVG Version: 6.00 Build 0)  -->
<svg version="1.1" id="SL_1" xmlns="http://www.w3.org/2000/svg" xmlns:xlink="http://www.w3.org/1999/xlink" x="0px" y="0px"
     viewBox="0 0 800 600" style="enable-background:new 0 0 800 600;" xml:space="preserve">
<style type="text/css">
    .st0{fill:#92A8B4;stroke:#4A4A49;stroke-width:2;stroke-miterlimit:10;}
    .st1{opacity:0.41;fill:#4A4A49;stroke:#4A4A49;stroke-miterlimit:10;}
    .st2{fill:#CFBBA6;stroke:#503617;stroke-width:2;stroke-miterlimit:10;}
    .st3{fill:#B9937E;stroke:#503617;stroke-width:2;stroke-miterlimit:10;}
    .st4{fill:#F9E8D8;}
    .st5{fill:#664F34;}
    .st6{fill:none;stroke:#D4A87F;stroke-width:3;stroke-linecap:round;stroke-linejoin:round;}
    .st7{fill:#C6C5BA;stroke:#5B453B;stroke-width:2;stroke-miterlimit:10;}
    .st8{fill:#92A8B4;}
    .st9{fill:none;stroke:#4A4A49;stroke-width:2;stroke-miterlimit:10;}
    .st10{fill:none;stroke:#78644C;stroke-miterlimit:10;}
    .st11{fill:#80676C;stroke:#503617;stroke-miterlimit:10;}
    [class*='st']{fill-opacity:0;}
</style>
<polygon class="st0" points="562.1,336.5 544.1,351.7 547.6,374.2 499.3,355.6 504,343.6 508.6,331.6 513.8,318 "/>
<polygon class="st0" points="226.3,337.5 244.3,352.7 240.8,375.2 289.1,356.6 284.5,344.6 279.9,332.6 274.6,319 "/>
<polygon class="st1" points="284.9,350.1 287.2,355.6 265.9,357.3 "/>
<polyline class="st1" points="501.9,349.6 500.2,354.5 525.6,357.5 "/>
<path class="st2" d="M404,163.9l0.8,4.9c1.5,9.4,14.2,11.4,18.5,2.9l2.2-4.4c5.1-10,20.2-5.1,18.4,6l-0.8,4.9
    c-1.5,9.4,9.9,15.3,16.7,8.5l3.5-3.5c7.9-8,20.8,1.4,15.7,11.4l-2.3,4.4c-4.4,8.5,4.7,17.6,13.2,13.2l4.4-2.3
    c10-5.1,19.4,7.8,11.4,15.7l-3.5,3.5c-6.8,6.7-0.9,18.2,8.5,16.7l4.9-0.8c11.1-1.8,16,13.4,6,18.4l-4.4,2.2
    c-8.5,4.3-6.5,17,2.9,18.5l4.9,0.8c11.1,1.7,11.1,17.7,0,19.4l-4.9,0.8c-9.4,1.5-11.4,14.2-2.9,18.5l4.4,2.2c10,5.1,5.1,20.2-6,18.4
    l-4.9-0.8c-9.4-1.5-15.3,9.9-8.5,16.7l3.5,3.5c8,7.9-1.4,20.8-11.4,15.7l-4.4-2.3c-8.5-4.4-17.6,4.7-13.2,13.2l2.3,4.4
    c5.1,10-7.8,19.4-15.7,11.4l-3.5-3.5c-6.7-6.8-18.2-0.9-16.7,8.5l0.8,4.9c1.8,11.1-13.4,16-18.4,6l-2.2-4.4
    c-4.3-8.5-17-6.5-18.5,2.9l-0.8,4.9c-1.7,11.1-17.7,11.1-19.4,0l-0.8-4.9c-1.5-9.4-14.2-11.4-18.5-2.9l-2.2,4.4
    c-5.1,10-20.2,5.1-18.4-6l0.8-4.9c1.5-9.4-9.9-15.3-16.7-8.5l-3.5,3.5c-7.9,8-20.8-1.4-15.7-11.4l2.3-4.4
    c4.4-8.5-4.7-17.6-13.2-13.2l-4.4,2.3c-10,5.1-19.4-7.8-11.4-15.7l3.5-3.5c6.8-6.7,0.9-18.2-8.5-16.7l-4.9,0.8
    c-11.1,1.8-16-13.4-6-18.4l4.4-2.2c8.5-4.3,6.5-17-2.9-18.5l-4.9-0.8c-11.1-1.7-11.1-17.7,0-19.4l4.9-0.8
    c9.4-1.5,11.4-14.2,2.9-18.5l-4.4-2.2c-10-5.1-5.1-20.2,6-18.4l4.9,0.8c9.4,1.5,15.3-9.9,8.5-16.7l-3.5-3.5
    c-8-7.9,1.4-20.8,11.4-15.7l4.4,2.3c8.5,4.4,17.6-4.7,13.2-13.2l-2.3-4.4c-5.1-10,7.8-19.4,15.7-11.4l3.5,3.5
    c6.7,6.8,18.2,0.9,16.7-8.5l-0.8-4.9c-1.8-11.1,13.4-16,18.4-6l2.2,4.4c4.3,8.5,17,6.5,18.5-2.9l0.8-4.9
    C386.3,152.8,402.3,152.8,404,163.9z"/>
<circle class="st3" cx="394.3" cy="294.5" r="120"/>
<g>
    <circle class="st4" cx="394.2" cy="294.5" r="102.7"/>
    <g>
        <g>
            <g>
                <g>
                    <path class="st5" d="M496.2,294.5c0.1,0.3,0.3,0.1,0.2-0.8l-0.3-0.7L496.2,294.5z"/>
                    <path class="st5" d="M496.6,288.2c-0.2-1.1-0.6-2.3-0.9-1.6c0.4,1.1,0.3,1.3,0.8,2.5c0.1,0.9-0.1,1.6-0.2,1.5
                        c0.1,0.3,0,1.4,0.2,1.9c0.2-1.2,0.3-2.8-0.1-4.4C496.4,287.8,496.6,288.1,496.6,288.2z"/>
                    <path class="st5" d="M454,210.5l0.5,0.4C454.3,210.8,454.2,210.6,454,210.5z"/>
                    <path class="st5" d="M401.1,191.4c0.4,0,0.6,0,0.6,0C401.3,191.4,401,191.4,401.1,191.4z"/>
                    <path class="st5" d="M391.3,190.9c0.2,0,0.4,0,0.6,0C391.7,190.9,391.5,190.9,391.3,190.9z"/>
                    <path class="st5" d="M454,210.5l-1.2-1C452.7,209.6,453.4,210,454,210.5z"/>
                    <path class="st5" d="M494.3,275.9c0.1,0.3,0.1,0.6,0.2,0.8C494.5,276.4,494.4,276.1,494.3,275.9
                        C494.3,275.9,494.3,275.9,494.3,275.9z"/>
                    <path class="st5" d="M472.7,227.2l0.3,0.4c0.1,0.1,0.2,0.1,0.4,0.2L472.7,227.2z"/>
                    <path class="st5" d="M483.9,242.9c-0.2-0.4-0.5-0.4-0.7-0.5c0.2,0.2,0.4,0.4,0.6,0.7C483.8,243.2,483.9,243.1,483.9,242.9z"/>
                    <path class="st5" d="M494.5,271.4l0.2,0.5C494.7,271.8,494.6,271.6,494.5,271.4z"/>
                    <path class="st5" d="M463.1,217.3c0-0.1,0-0.1-0.1-0.2C463,217.1,463,217.2,463.1,217.3z"/>
                    <path class="st5" d="M493.2,316.3C493.2,316.3,493.2,316.3,493.2,316.3C493.2,316.2,493.2,316.1,493.2,316.3z"/>
                    <path class="st5" d="M497,294.5l0,0.3c0.1,0,0.1,0.1,0.2,0.1L497,294.5z"/>
                    <path class="st5" d="M373.5,192.5C373.5,192.5,373.6,192.5,373.5,192.5C374,192.4,373.8,192.5,373.5,192.5z"/>
                    <path class="st5" d="M292.7,316.5c-0.2-1.9,1,2.9,0.6,0.1C293.3,316.8,292.4,314.2,292.7,316.5z"/>
                    <path class="st5" d="M494.2,275.4c0-0.3-0.1-0.5-0.1-0.8C494.2,274.9,494.2,275.2,494.2,275.4z"/>
                    <path class="st5" d="M293.4,316.6L293.4,316.6l0-0.3C293.4,316.4,293.4,316.5,293.4,316.6z"/>
                    <path class="st5" d="M335.8,208.7c0.1,0,0.3-0.1,0.4-0.1C336.1,208.5,336,208.5,335.8,208.7z"/>
                    <path class="st5" d="M363.5,195.7l-0.7,0.2C363,195.8,363.3,195.7,363.5,195.7z"/>
                    <path class="st5" d="M323.6,218.9c-0.3,0.3-0.4,0.3-0.8,0.8c0,0,0.1-0.1,0.1-0.1C323,219.4,323.2,219.2,323.6,218.9z"/>
                    <path class="st5" d="M312.4,231.1c0.1-0.1,0.2-0.1,0.2-0.2c0.1-0.1,0.2-0.3,0.3-0.4L312.4,231.1z"/>
                    <path class="st5" d="M471.6,360.1c0.3-0.2,0.5-0.3,0.7-0.4C472,359.7,473.5,357.9,471.6,360.1z"/>
                    <path class="st5" d="M494.5,275.8c-0.1-0.1-0.1-0.2-0.2-0.5C494.3,275.5,494.3,275.7,494.5,275.8
                        C494.4,275.9,494.4,275.9,494.5,275.8z"/>
                    <path class="st5" d="M324.6,221l-1.9,1.7C323.3,222.3,324,221.6,324.6,221z"/>
                    <path class="st5" d="M366.2,392.1l0.6,0.1C366.5,392.1,366.3,392.1,366.2,392.1z"/>
                    <path class="st5" d="M317.6,228.4c-0.4,0.3-0.7,0.6-1.1,1c-0.1,0.1-0.1,0.2-0.1,0.3L317.6,228.4z"/>
                    <path class="st5" d="M472.3,359.7C472.3,359.7,472.3,359.7,472.3,359.7C472.3,359.7,472.3,359.7,472.3,359.7z"/>
                    <path class="st5" d="M481.5,345.4c-1.2,2.1-0.3,1.2-0.3,1.7c-1.5,2.5-1,1-1.7,1.7c-0.5,0.8-0.8,1.5-1.1,2.2
                        c-0.3,0.7-0.7,1.3-1.1,1.8c-0.1,0-0.3,0.3-0.2,0c-0.8,1.8-3.4,4.6-4.6,6.6c-0.1,0.1-0.2,0.2-0.3,0.2c0.4-0.2,0.6-0.1,0.6,0.1
                        c-0.7,0.8-1.2,1.7-1.6,1.9c0.5-0.5,0.4-0.6,0.6-0.9l-0.7,0.9c-0.9,0.6,0.9-1.3,0.8-1.4c-0.7,0.9-1.4,1.9-2.1,2.8
                        c-0.7,0.9-1.5,1.7-2.1,2.3c-0.5,0,2.7-3,0.9-1.5c0,0,0.5-0.5,1-0.9c0.5-0.5,0.9-1,0.9-1c-1.7,1.2,1.1-1.2-0.6-0.2
                        c-1.2,1.3-1.9,2-2.5,2.8c-0.7,0.7-1.3,1.5-2.6,2.7c-0.4,0.7,0.4,0-0.1,0.7c-0.8,0.9-1.5,1.5-2,1.9c-0.5,0.4-0.9,0.6-1.3,0.8
                        c-0.7,0.4-1.4,0.7-2.6,2c-0.6,0.8-0.6,1.3-2.8,2.8l0.5-0.9c-2.7,2.1-1.2,1.6-4.3,3.5c0.4-0.5,2.1-1.7,1.7-1.4
                        c-2.1,1.1-1.2,1.1-2.7,2.2l-0.5-0.1c-3,2-6.3,4.4-9.8,6.2c0.2-0.2,0.7-0.6-0.2-0.3c-2.2,1.3-4.7,2.4-7.1,3.4
                        c-1.3,0.5-2.5,0.9-3.7,1.4c-1.2,0.5-2.5,0.8-3.6,1.1l-1.7,0.9c-0.4,0.1-0.8,0.1-0.4-0.1c-1.9,0.4,0,0.2-0.9,0.6
                        c-1,0.3-1.4,0.2-0.8,0c-3.1,1.3-9.2,2.8-12.7,3.1l0.7-0.2c-2.7,0.3-3,1-5.6,1.1l0.5-0.1c-6,0.5-12.6,0.8-17.2,0.1
                        c-0.4,0.2-1.9,0-3.3-0.1c-1.4-0.1-2.8-0.3-3-0.1c-1.7-0.4-2.3-0.5-3-0.7c-0.8-0.2-1.7-0.5-4-1c-1.3-0.2-1.9,0-3.5-0.3l0-0.3
                        l-2.2-0.2c0,0-0.3-0.1-0.5-0.3c-0.3-0.2-0.5-0.3-0.5-0.3l-1.5-0.3c0.6,0.2,1.2,0.5,1.1,0.5c-1.1-0.3-2.5-0.7-3.6-1.1
                        c-1.1-0.4-1.8-0.8-1.8-0.9c0,0-1.3-0.4-2.6-0.8c-0.7-0.2-1.3-0.4-1.8-0.6c-0.5-0.2-0.8-0.3-0.8-0.3c0.2-0.1,1,0.2,1.7,0.4
                        c-2.8-0.8-0.4-0.5-3-1.2c0.3,0.2-0.3,0.1-0.3,0.1c-0.6-0.3-1.6-0.8-2.7-1.3c-1.1-0.5-2.3-1-3.3-1.5l0.5,0c-1.8-1-3.8-1.8-5.7-3
                        c-1-0.5-2-1.1-2.9-1.6c-1-0.6-1.9-1.2-2.9-1.8c1.3,1,0.8,1.1-0.3,0.4L338,379c-0.8-0.3,1.1,0.9-0.5,0.1c-1.4-1-0.7-1,0.1-0.5
                        l-1.8-1.1c0-0.2,0.4,0.1,0.6,0.1c-0.8-0.3-2.7-2.3-3.9-2.8l0-0.1c-0.9-0.7-1.7-1.3-2.4-1.9c-0.7-0.6-1.3-1.1-1.9-1.6
                        c-0.6-0.5-1.2-1-1.8-1.5c-0.6-0.5-1.2-1.1-1.9-1.7c-0.2,0.2-1.3-0.9-2.2-1.5c-0.9-1-1.9-2.1-2.9-3.3c-1-1.2-2-2.4-3.1-3.6
                        c-1.6-1.7-0.6-0.4-1.4-1.1c0.1-0.3-2-2.9-0.8-1.6c-1.3-1.5-2-2.6-2.8-3.7c-0.4-0.6-0.9-1.1-1.4-1.8c-0.5-0.7-1.1-1.5-1.8-2.6
                        c0.2,0.5,0.5,1.1,0.3,0.8c-0.5-0.7-1-1.8-0.9-1.8l0.2,0.2c-1.6-2.3-3.1-5.2-4.3-8.1c-0.7-1.4-1.2-2.8-1.7-4.1
                        c-0.3-0.6-0.6-1.3-0.8-1.8c-0.3-0.6-0.5-1.1-0.8-1.6l0.1,0.2c0,0-0.5-1.1-1-2.1c-0.5-1-0.9-2.1-0.9-2.1c-0.6-2,0.6,1.2,0.2-0.4
                        c-0.5-1.2-0.9-2.2-1.3-3.2c-0.3-1-0.6-1.9-0.8-2.8c-0.5-1.8-0.8-3.5-1.4-5.5c0-0.4,0-0.9-0.1-1.4c0-0.5-0.1-1.1-0.2-1.8
                        c-0.2-1.3-0.5-2.7-0.7-4.2c-0.2-1.5-0.4-3-0.6-4.4c-0.1-1.4-0.2-2.7-0.1-3.8l-0.2,0.3c-0.3-1.1,0-1.3,0-2.2
                        c-0.1,0.1-0.1,1.2-0.2,0.5c-0.3-4.7-0.2-9.6,0.4-14.5c0.6-4.9,1.5-9.7,2.8-14.4c0.4-1.7,0.4-2.2,0.3-2.9c0-0.6,0.1-1.4,0.9-3.5
                        l0,1.3c1.6-7,4.9-13.7,8-20c-0.1,0.4-0.1,0.5-0.4,1.1c0.9-1.2,2.7-4.7,2.6-4.9c0.6-0.9,0.3-0.1,0.7-0.6
                        c0.9-1.2,1.7-3.3,2.4-3.8c0.1-0.1-0.2,0.4-0.3,0.6c0.5-0.9,2.6-3.6,1.9-3.1c0.8-1,1.6-2,2.3-3c0.7-0.9,1.4-1.9,2.1-2.6
                        c0.7-1.2,3-3.3,3-3.9c0.2,0.4,3.4-3.1,4.5-4.4c-0.3,0.5,1.1-0.9,0.8-0.3c1.3-1.3,2.6-2.5,2.2-2.5c2.9-1.9,5.1-4.8,7.1-5.4
                        c4.4-3.6,8.8-6.4,13.2-8.8c0,0.3-1.2,0.9-2.4,1.6c-1.2,0.7-2.3,1.3-2.1,1.5c1-0.6,1.9-1.2,2.8-1.8c0.9-0.5,1.7-1,2.5-1.5
                        c1.6-1,3.3-1.8,5.5-2.7c1.1-0.5-0.6,0.5-0.9,0.7c2.1-1.1,4.3-1.9,6.4-2.7c1.1-0.4,2.1-0.7,3.2-1.1c0.5-0.2,1-0.4,1.5-0.6
                        c0.5-0.2,1-0.3,1.5-0.5c0,0-0.4,0.2-0.8,0.4c0.8-0.2,1.9-0.5,1.8-0.6l-0.8,0.3c-1.4,0.1,3.1-1.5,3.2-1.7
                        c-1.3,0.9,4.2-0.8,2.1,0.4c0.5-0.2,1.2-0.4,1-0.5c0.8-0.1,1.1-0.1,0.3,0.2c1.5-0.4,1.9-0.6,2.3-0.7c0.4-0.1,0.8-0.3,2.2-0.5
                        c0,0.1-0.5,0.2-0.8,0.4c1.3-0.4,2.7-0.9,5-1.1c-0.1,0.1,0.1,0.1-0.5,0.2c2-0.3,3.6-0.6,5.4-0.8c0.9-0.1,1.7-0.2,2.7-0.3
                        c0.9-0.1,1.9-0.1,3-0.1c-1.3,0.5,1.5,0.1,1.7,0.5c0,0,0.6,0,1.2-0.1c0.6,0,1.2,0,1.2,0l-0.9-0.2c2.1,0.1,3.9-0.2,5.6,0
                        c0,0-0.4,0-0.8,0c-0.4,0-0.8,0.1-0.8,0.1s0.2,0,0.6,0c0.4,0,0.8,0,1.3,0.1c1,0.1,1.9,0.1,1.9,0.1l-2.2-0.3
                        c2.1,0-0.2-0.5,2.5-0.2c-0.6,0,2.1,0.1,3.1,0.5l0,0c1,0,2.1,0,3.6,0.3c0.4,0.2-0.4,0.4-0.1,0.5c1-0.1,4.8,0.7,6.1,0.7
                        c-0.4,0-0.5,0.2-0.4,0.2l0.9-0.1c0.9,0.3,1,0.4,0.9,0.5c2.8,0.7-0.8-0.7,2.5,0.3c-0.3,0-0.2,0-0.7-0.1c3.3,0.9,6.4,1.6,9.4,2.8
                        c0.8,0.7-2.6-0.8-1.7-0.2c4.3,1.3,8.9,2.9,12.9,4.9l-0.7-0.4c0.8-0.2,2.8,1.7,4.9,2.5c-0.5-0.2-0.8-0.1-0.6-0.1
                        c1.3,0.8,2.6,1.5,4.2,2.3c1.5,0.9,3.2,1.8,5.1,3l-0.5-0.2c1.4,1.1,3.8,2.7,5.2,4c0.5,0.2,1.4,0.9,1,0.4
                        c4.1,4.3,8.8,7.1,11.9,11.4c-0.4-0.5-1.1-1-0.8-0.6c0,0,0.2,0.2,0.5,0.5c0.3,0.3,0.7,0.7,1.1,1.1c0.8,0.8,1.5,1.6,1.5,1.6
                        c-0.1-0.4-0.3-0.5-0.8-1.4c0.5,0.3,1.4,1.2,2.1,2.1c-1.4-1.4-0.3,0.2,0.2,1c0-0.2,0.2,0,0.2-0.1c1.1,2.1,0.6,0,2.4,2.7
                        l-0.2-0.1c0.8,0.9,1.5,1.7,2.3,2.8c0.1,0.6-0.8-1-1.1-0.9c1,1.5,2.5,2.6,3.1,4.1c-0.5-0.6-1.1-1.5-1.6-2.1
                        c0.8,1.6,0.9,1.8,1.6,2.9l-0.1-0.1c0,0,0.4,0.7,0.8,1.3c0.2,0.3,0.4,0.7,0.5,0.9c0.1,0.2,0.2,0.4,0.2,0.4s-0.1-0.2-0.2-0.4
                        c-0.1-0.2-0.2-0.3-0.2-0.3c0.9,0.8,1.5,1.8,2.1,2.8c0.3,0.5,0.6,1.1,1,1.7c0.3,0.6,0.7,1.2,1.2,1.8c-1.7-2.4-0.4-0.3-0.8-0.4
                        c0.3,0.7,0.7,1.8,0.5,1.6c0.4,0.6,0.7,1.1,0.9,1.8c0.2,0.6,0.5,1.3,1.1,2.2c-0.1,0.1,0.6,1.4,0.3,1.2c0.8,1.7,0-0.5,0.2-0.4
                        c1.5,2.5,2.2,6.4,3.9,10.2c0.6,1.7,1,2.7,1.4,3.6c0.2,0.5,0.4,1,0.6,1.5c0.2,0.6,0.4,1.2,0.6,2c0.1,1.1-0.6-0.8-0.6-0.8
                        c0.2,1.8,0.6,3.1,1,4.8c-0.1-0.3-0.2,0-0.2,0.6c0.3,1.3,0.5,0.8,0.7,2.6c-0.2-0.3-0.4-0.6-0.6-1.3c0.2,0.8,0.4,1.6,0.6,2.3
                        c0.2,0.8,0.3,1.6,0.5,2.4c-0.1,0.5-0.4-1-0.6-1.5c0.3,1.8,0.8,4.8,1,5.3l0-1.2c0.1,0.7-0.2,0.4-0.3-0.1
                        c-0.4-1.6-0.2-2.3-0.1-2.4l0.2,1.2c0.2-0.6,0-1.8-0.2-3.1c-0.3-1.3-0.7-2.7-0.9-3.9l0.6,0.9l-0.8-2.4c0-0.5,0.2-0.9,0.4,0.2
                        c-0.1-1.7-0.5-1.5-0.6-2.9c0-0.2,0-0.1,0.1,0l-0.5-1.6c0.2,0.3,0.2-0.3,0.4,0.7c-0.2-1.5-0.6-2.7-1-3.6
                        c-0.3-0.9-0.6-1.6-0.6-2.2l0.1,0.2c-1.4-4-0.4-0.3-1.7-3.2l0-2.3l-0.4-0.3c-0.1-0.4-0.4-1.2-0.3-1.1c-0.8-1.4,0,0.3-0.6-0.5
                        c-0.3-1-0.8-2.3-1.3-3.5c-0.5-1.1-0.9-2.1-0.8-2.4c-0.5-0.6,0.7,1.9-0.4-0.1c0.1-0.4-0.2-1-0.6-1.7c-0.4-0.7-0.9-1.5-1.3-2.4
                        c0.5,0.4,1.2,2.1,0.5,0.3c-0.5-0.4-0.9-1.2-1.3-2.2c-0.4-0.9-0.8-1.9-1.3-2.5c-0.2,0.1-0.6-0.7-1.2-1.7c-0.6-1-1.4-2.3-2.2-3.4
                        c0.2,0.1-2.7-4.3-4.1-6.4l0.1,0c-0.6-0.1-2.1-2.3-3.4-3.6c0.2-0.1,0.5,0.1,1.2,0.8c0,0-0.3-0.3-0.6-0.7
                        c-0.3-0.3-0.6-0.7-0.6-0.7c-0.4-0.2-0.8-0.6-1.6-1.5l0.5,0.2c-0.4-0.4-0.8-0.9-1.2-1.3c-0.4-0.4-0.9-0.8-1.3-1.3
                        c-0.9-0.9-1.8-1.9-2.9-3c-0.3,0.1,1.2,2.2-1.2,0.1c0-0.2,0.1-0.4,0.7,0.1c-0.2-0.2-0.8-0.6-1.1-1l1.1,0.7
                        c-0.9-1-0.7-0.4-1.4-1.1c0.2-0.1-0.5-0.7-0.3-0.7c0.2,0.2,0.6,0.7,1,1c-0.9-0.9-1.9-2-2.2-2.4c0,0.2-0.2,0.2-0.9-0.4
                        c-1.8-1.5-0.5-0.7-1.4-1.7c-0.5-0.3-1.6-1.3-1.8-1.1c-0.5-0.4-0.6-0.6-0.7-0.8c-0.5-0.3-1.6-1.2-2.5-1.8
                        c-0.9-0.6-1.6-1-1.1-0.5l0.2,0.2c-0.1,0-0.1-0.1-0.2-0.1c0,0,0,0,0,0l0,0c-0.9-0.5-1.7-1.1-2.5-1.7c-0.9-0.6-1.7-1.2-2.6-1.7
                        c-1.7-1.2-3.5-2.3-5.2-3.2l0.1-0.1c-1-0.6-2.2-1.1-3.3-1.7c-1.1-0.5-2.1-1-3-1.3c-0.6-0.3-1.4-0.8-1.1-0.8
                        c-1.7-0.7-1.9-0.7-4.3-1.8c1.8,0.5-0.5-0.4,1.8,0.6c-2.2-0.9-2.6-1.3-5.1-1.9c0.9,0-1.6-0.9-2.7-1.2l1.5,0.7
                        c-1.2-0.4-2.2-0.7-3.3-1.1l0.7-0.1c-1.1-0.5-2.2-0.8-3.3-1c-1.1-0.3-2.1-0.5-3.1-0.6c-2-0.3-3.9-0.7-5.6-1.3
                        c-1.3,0,2.6,0.6,1.4,0.7c-2.2-0.4-4.4-1.3-5.1-1.4c-3-0.5-2.9,0.1-6-0.4c0.4,0.1,0.7,0.5-1.6,0.4c-2.2-0.2-2.7-0.7-1.3-0.7
                        c0.5,0,0.8,0.1,0.8,0.1c0.7,0,1.7,0,0.8-0.2l-0.3,0.1c-0.5-0.1-1.6-0.2-2.4-0.3c-0.8-0.1-1.4-0.1-1-0.2
                        c-1.7,0.1-0.7,0.2,0.5,0.3c-2.8-0.2-4.5-0.2-7.4-0.2c0.5,0.1,0.9,0.2,0.4,0.2c-2.2,0-2.6,0-2.9,0.1c-0.3,0.1-0.4,0.2-1.9,0.3
                        c-1.7-0.1,0.6-0.5-2.4-0.1c-1.8,0-0.4-0.3,0.3-0.4c-0.7,0.1-1.3,0.2-1.9,0.2c-0.6,0.1-1.2,0.1-1.8,0.2
                        c-1.1,0.1-2.1,0.1-2.9,0.2l1.4-0.3c-0.8,0.2-1.5,0.2-2.2,0.4c0,0,0.2,0,0.4,0.1c0.2,0,0.4,0.1,0.4,0.1c-0.8,0-1.5,0.2-1.5,0.1
                        c-0.8,0.3,0.7,0.3-0.9,0.8c-1.1,0.1-3.3,0.7-3.7,0.5c3.4-0.6-0.4-0.3,2.4-0.8c-0.6,0.1-1.2,0.3-2.1,0.4c-0.1,0,0.1-0.1,0.3-0.1
                        c-3.3,0.5-1.4,0.7-4.8,1.4c0.4-0.3-0.9-0.1-1.4,0.1c1.3-0.4,0.7,0.1-0.5,0.6c-2.2,0.5-2.3,0.8-3.4,1.1l1.3-0.3
                        c-0.4,0.3-1.4,0.6-2.9,1.1c-0.2-0.1,1.3-0.5,0.8-0.4c-1.5,0.9-3.8,0.9-5.9,2c-1.1,0.3-0.2-0.3-1.2,0c-2.4,1.2-2.8,0.9-5.3,2.2
                        c0.8-0.1,0.9-0.2-0.8,0.8l4.1-2.1l-2.6,1.5c1.3-0.6,2.6-1.4,3.4-1.6c-1.2,0.7-1.1,0.6-0.4,0.5c-1.9,0.5-3.4,1.7-5.4,2.5
                        l-0.2-0.6c-1.5,0.6-2.8,1.4-4.2,2.2c-1.3,0.9-2.8,1.8-4.7,2.9c0,0,0.3-0.2,0.6-0.3c0.3-0.2,0.6-0.3,0.6-0.3
                        c-0.4,0.5-2.2,1.5-3.3,2.3c0-0.2-0.8,0.2-1.3,0.4c0.1,0.1-2.6,1.8-2.7,2.4c0,0-0.4,0.2-0.9,0.5c-0.4,0.2-0.8,0.5-0.8,0.5
                        c-2.8,2.1-2.8,2.8-5.3,5c0.6-0.8-0.6,0.1,1-1.5c-0.8,0.7-1.6,1.4-1.5,1.5c-0.3,0.2-0.8,0.7-1.4,1.3c-0.6,0.6-1.1,1.2-1.6,1.5
                        c-0.3,0.4-0.2,0.6-1.2,1.5c-0.1,0.1-0.1-0.1-0.1-0.1c0,0.1-1.3,1.5-0.4,0.8c-2.8,2-6.5,7-8.6,9.1c-0.7,1-1.5,2-2.2,3.1
                        c-0.7,1.1-1.5,2.1-2.1,3.1c0-0.2-0.1-0.1,0.2-0.4c-1.8,2.5-0.5,1.9-2.6,4.7c-0.6,0.7-0.4,0.3-0.1-0.2c0.3-0.5,0.6-1,0.3-0.6
                        c-0.4,0-0.9,1-1.5,2.1c-0.6,1.1-1.3,2.5-2,3.4l0.2-0.5c-1,1.5-1.8,4-3,6.6c0,0,0-0.2-0.1-0.1c-0.3,1-0.8,2.3-1.2,3.8
                        c-0.5,1.5-1.1,3-1.5,4.3c0-0.9,0.3-1.2-0.1-0.8c-0.4,1.2,0.5-0.2-0.2,2.2c-0.4,0.7-1.1,2.4-1.4,2.5c0,0,0.2-0.6,0.3-1.1
                        c0.2-0.6,0.4-1.1,0.4-1.1c-0.4,0.5-0.6,1.2-0.8,2c-0.2,0.8-0.3,1.5-0.5,2.1l-0.1-0.2c-1,3.5-0.5,3.7-1.4,7.4l0.2-0.4
                        c-0.1,2.1-0.5,1.7-0.7,3.8l-0.5,0.6c0,0.3-0.1,0.8-0.1,1.4c0,0.6-0.1,1.2-0.1,1.9c-0.1,1.4-0.2,2.9-0.3,4.1
                        c-0.2-1.4,0.1-4.4,0.1-6.2c-0.2,1.4-0.6,4.7-0.5,5.4c0-0.6,0-1.3,0.2-1.8c0,1.7,0.1,4-0.1,6.7c-0.8-0.5-0.4,7.2-0.9,9.2
                        l0.1,1.8c0.1,0.6,0.1,1.2,0.2,1.8c0.1,1.2,0.2,2.5,0.3,3.7c0.3,2.5,0.5,5.2,1,8c0.2-2.1,0.3,1.6,0.8,1.2
                        c0.3,1.3,0.4,1.8,0.4,1.9c0,0,0.1,1,0.3,2c0.1,0.5,0.1,1,0.2,1.4c0,0.4,0.1,0.6,0.1,0.6c0,0.5-0.1,0.2-0.2-0.2
                        c-0.1-0.4-0.3-0.9-0.3-0.8c0.7,2.9,0.1,1.3,0.4,3.2c0.1-0.4,0.6,0.9,1,2.5l-0.4-2.3c0.7,1.9,0.8,2.8,1,3.7
                        c0.2,0.9,0.3,1.8,1.1,3.7l-0.6-1.2c0.7,2,2.8,7.3,4.2,9c0.1,0.4,0.1,0.9-0.3,0.1c2.1,4.6,5.6,9.8,7.5,13.1l-0.3-0.2
                        c0.6,0.8,1.1,1.2,1.7,2.3c-0.1,0-0.3-0.2-0.1,0.1c0.3,0.4,1.7,1.9,2.3,3l-0.8-0.8c0.7,1,1.3,1.9,2,2.7c0.6,0.8,1.3,1.5,1.9,2.1
                        c1.3,1.3,2.5,2.4,3.9,3.9c-0.3,0.3,2.2,3.2,3.6,4.6l-0.1,0c1,1,2,1.9,3,2.8c1,0.8,1.9,1.6,2.9,2.3c0.9,0.8,1.9,1.4,2.9,2.1
                        c1,0.7,2,1.4,3.1,2.2c0.6,0.6,1.5,1.3,2.5,2.1c1,0.8,2.3,1.5,3.5,2.4c1.3,0.9,2.7,1.6,4,2.4c1.3,0.8,2.6,1.5,3.8,2.2
                        c-0.7-0.4,0.3-0.2,1.1,0.1c1.1,0.7,3.2,1.2,2.9,1.5l-0.4-0.2c0.7,0.7,3,1.8,4.9,2.4l0.5-0.4c1.1,0.7,2.5,1.3,4,1.8
                        c1.5,0.5,3,1.1,4.6,1.4c1.5,0.4,2.9,0.8,4.2,1.1c1.2,0.3,2.3,0.6,2.9,0.9c1.3,0.2,2.8,0.5,4,0.5l-0.1,0.3
                        c1.7,0.3,3,0.6,4.4,0.8c0.7,0.1,1.4,0.2,2.2,0.3c0.4,0,0.8,0.1,1.3,0.2c0.5,0,1,0.1,1.5,0.1l-0.9,0.1c2.4,0.2,3.1-0.5,5.4-0.5
                        l0.7,0.4c2.1,0.1,4.3,0.2,6.4,0.2c1.1,0,2.1,0,3.2-0.1c1.1-0.1,2.1-0.2,3.1-0.4c-0.1,0.1-0.2,0.2-0.9,0.3c2,0,7.7-0.6,6.9-1
                        c0.1,0.4,4.3-0.7,6.5-1.3l-0.3,0.4c1.8-0.8,1.8-0.9,4.4-1.6c0.6-0.1,0.6,0.1-0.2,0.2c2.1-0.4,1.5-0.7,4-1.2l-0.9,0.4
                        c2.1-0.6,1.9-0.6,3-1.2c1.3-0.5,3.9-1.3,4.3-1.1c0.2-0.3,1.3-0.9,2.5-1.3c0.2,0-0.2,0.3-0.4,0.4c0.9-0.3,1.6-0.6,2.3-0.9
                        c0.7-0.3,1.2-0.6,1.8-0.9c1.1-0.6,2-1,3.2-1.5c0.1,0.1,0.3,0,0.5,0c-2.6,1.3-4.8,2.2-4.6,2.1c0.1,0.2,2.3-0.7,0.7,0.4
                        c0.8-0.5,1.9-1.1,3.1-1.8c1.1-0.7,2.3-1.4,3.4-1.9c0.1,0,0.2-0.1,0.3-0.1l-0.2,0.1c0.5-0.2,0.9-0.5,1.3-0.7
                        c0.7-0.3,1.1-0.5,1.7-0.9c0.3,0,2.4-1.2,3.4-1.9c-0.2-0.2,1.1-1-0.2-0.4c0.2-0.1-0.2,0.2-0.8,0.6c-0.1,0.1-0.3,0.2-0.4,0.3
                        c0,0,0,0,0.1-0.1c-0.7,0.4-1.5,0.9-2.5,1.5c0.7-0.6,1.5-1.2,2.7-1.7c0.4-0.5,0.9-1,1.1-1.3c0.8-0.3,1.8-0.8,2.8-1.2
                        c0.9-0.4,1.7-0.9,2-0.9c1.4-1.1,3.1-2.3,4.6-3.6c0.7-0.6,1.4-1.2,2-1.8c0.6-0.6,1.1-1.1,1.4-1.6c0.7-0.7,1-0.6,1.3-0.8
                        c-0.4,0.4-0.9,0.9-1.1,1.1c1.5-1.4,4.4-4.1,4.5-4.7c2-1.7-0.8,1.3,1.7-1.3l-0.2,0.4c1.3-1.2,2.4-2.3,3.4-3.4
                        c0.9-1.2,1.8-2.3,2.7-3.5c0.8-1.2,1.7-2.4,2.6-3.7c1-1.3,1.9-2.7,3.2-4.1c-0.3,0.4-0.5,0.6-0.6,0.7c0.3-0.4,0.7-0.9,1-1.3
                        l0.9-1.4c0.6-0.9,1.2-1.9,1.8-2.8c1.1-2,2.3-3.9,3.2-5.9c2.1-4,3.7-8.1,5.5-12.1c0.9-2.3,0.8-2.6,1.1-4.1l0.5-0.4
                        c0,0,0.1-0.6,0.2-1.3c0.1-0.6,0.2-1.3,0.2-1.3c0.2-0.9,0.4-1.7,0.7-2.5c0.3-0.8,0.5-1.6,0.8-2.4c0.3-0.8,0.5-1.6,0.8-2.6
                        c0.2-0.9,0.3-2,0.4-3.1l-0.3,0.5c0.2-0.8,0.4-2.1,0.5-3.1c0.1-1.1,0.3-1.9,0.3-1.7c0-0.2-0.1-0.6,0-1.2l0.2,0c0,0,0.1-1,0.1-2
                        c0-1,0-2,0-2c0.3-3.1,0.6,0.5,0.9-4c0-1.7-0.3-4.9-0.5-4.2c0,0.7-0.1,1.8-0.3,1.8l0-1.6c-0.5-0.3-0.9-1.5-1.3,2.3l0.2,2.6
                        l-0.3,0.8c0,0,0.1-0.5,0.1-1.1c0-0.6,0-1.1,0-1.1c-0.2,1.2-0.1,2,0,2.9c-0.1,0.2-0.2,0.6-0.3,1.1l0.2,2.6
                        c-0.2,0.3-0.2-1.2-0.5,0.5c0.1,1.2,0.6-1.1,0.4,0.9c-0.4,1.2-0.5,0.8-0.5,2.3c-0.1,0.2-0.2-0.1-0.2-0.7c0,0.7-0.1,1.5-0.2,2.3
                        c-0.1,0.8-0.2,1.5-0.1,1.8c-0.2,0.6-0.4,1.7-0.6,2.6c-0.2,0.9-0.4,1.6-0.6,1.5c0,0.4-0.2,2.3-0.4,3.5c0-1.1-0.2,0-0.6,1.2
                        c-0.4,1.3-0.8,2.7-1,2.4c0,0.9-0.4,2.3-0.9,3.8c-0.3,0.8-0.5,1.6-0.8,2.4c-0.3,0.8-0.6,1.5-0.8,2.2c0-0.2,0.1-0.5,0.2-0.7
                        c-0.6,1.5-0.9,1.9-1.4,2.8c0.3,0.3-0.7,2.7-1,4c-1.2,1.7,0.1-1.3-0.5-0.9c0.2,0-0.1,0.8-0.4,1.6c-0.3,0.7-0.6,1.4-0.3,1.2
                        c-0.9,1.2-0.7,1.1-1.3,1.7c0.3,0.5-0.5,1.3-0.9,2.5c-1.3,1.8-0.7,0.3-1.8,2.4C480.6,347.3,481.5,345.4,481.5,345.4z M441,385
                        L441,385c0.4-0.2,0.8-0.4,1-0.6C441.8,384.6,441.5,384.7,441,385z M436.7,387.2c0.5-0.2,1.2-0.5,1.9-0.9c0.2,0,0.1,0.2-0.4,0.4
                        C438.4,386.5,437.3,386.9,436.7,387.2z M446.7,384.1c-0.7,0.4-0.9,0.5-1,0.5c0.3-0.2,0.7-0.4,1.2-0.7c0,0,0-0.1,0.1-0.1
                        C446.9,383.9,446.8,384,446.7,384.1z"/>
                    <path class="st5" d="M447.8,383.1c0.1-0.1,0.1-0.1,0.3-0.2c-0.1,0.1-0.3,0.1-0.4,0.2c-0.1,0.1-0.1,0.1-0.2,0.2
                        C447.5,383.2,447.6,383.2,447.8,383.1z"/>
                    <path class="st5" d="M454.5,210.9L454.5,210.9C454.5,210.9,454.6,211,454.5,210.9C454.6,211,454.6,211,454.5,210.9z"/>
                    <polygon class="st5" points="371.4,393.3 371.4,393.3 371.8,393.4                    "/>
                    <path class="st5" d="M473.4,230c0,0.1,0.1,0.2,0.2,0.3C473.5,230.3,473.5,230.2,473.4,230z"/>
                    <path class="st5" d="M480.1,239.4l0.8,1.4C480.6,240.2,480.3,239.7,480.1,239.4z"/>
                    <path class="st5" d="M484.4,247.1c0.1,0.1,0.1,0.1,0.2,0.1l0,0L484.4,247.1z"/>
                    <path class="st5" d="M364.6,197.3c-0.1,0-0.2,0.1-0.3,0.1C363.5,197.7,364,197.5,364.6,197.3z"/>
                    <path class="st5" d="M406,193c-0.4,0-0.9,0-1.4,0C405.4,193,406,193.1,406,193z"/>
                    <path class="st5" d="M324.8,220.8C324.8,220.8,324.8,220.8,324.8,220.8c-0.1,0.1-0.1,0.1-0.2,0.2L324.8,220.8z"/>
                    <path class="st5" d="M402.7,192.8c0.7,0.1,1.4,0.1,1.9,0.2C404.1,192.9,403.3,192.8,402.7,192.8z"/>
                    <path class="st5" d="M495.4,283.7l0,0.4c0,0,0,0,0,0L495.4,283.7z"/>
                    <path class="st5" d="M495.5,284.1l0.1,0.5C495.6,284.4,495.6,284.2,495.5,284.1z"/>
                    <path class="st5" d="M495.7,285.6l-0.1-1C495.6,284.9,495.6,285.4,495.7,285.6z"/>
                    <path class="st5" d="M493.6,272.1l-0.1-0.1C493.5,272,493.6,272.1,493.6,272.1z"/>
                    <path class="st5" d="M492.8,268.6c0.2,0.8,0.3,2.1,0.6,3.3l0.1,0.1C493.2,271.5,493.2,269.4,492.8,268.6z"/>
                    <path class="st5" d="M489.1,254.1c0,0,0.1,0.2,0.2,0.4c0.1,0.3,0.2,0.6,0.4,1c0.3,0.7,0.5,1.4,0.5,1.4c-0.1-0.5-0.2-1.2,0.3,0
                        C489.4,253.3,490.6,257.8,489.1,254.1z"/>
                    <path class="st5" d="M485.2,245.5c0.8,1.4,0.1-0.1,0.2,0C484.8,244.6,484.7,244.4,485.2,245.5z"/>
                    <path class="st5" d="M436.3,200.2l0.3-0.2C435.4,199.5,436.5,200.1,436.3,200.2z"/>
                    <path class="st5" d="M423.8,196.9c0,0,0.3,0.1,0.6,0.2c0.3,0.1,0.5,0.3,0.5,0.3l0.6,0c0,0-0.4-0.1-0.9-0.2
                        C424.3,197,423.8,196.9,423.8,196.9z"/>
                    <polygon class="st5" points="416.9,193.2 417.4,193.3 415.4,192.9                    "/>
                    <path class="st5" d="M314.1,228.7l0.5-0.1C315.1,227.9,314.9,227.5,314.1,228.7z"/>
                    <path class="st5" d="M293.1,272.8c-0.3,0.5-0.6,1.8-0.6,2.7C292.7,274.4,293,273.4,293.1,272.8z"/>
                    <path class="st5" d="M358.2,392l-1-0.3C357.3,391.7,357.7,391.9,358.2,392c0.4,0.2,0.8,0.3,0.8,0.3s-0.2-0.1-0.4-0.1
                        C358.4,392.1,358.2,392,358.2,392z"/>
                </g>
            </g>
        </g>
    </g>
</g>
<g>
    <g>
        <path class="st6" d="M336.1,222.9c0.2,0.4,23.3-14.1,23.6-13.6c0.5,0.9-37.5,26.4-37,27.3c0.7,1.3,57.6-35.1,58.4-33.7
            c1.1,1.9-66.3,41.8-65.4,43.4c1,1.8,70.9-43.1,71.8-41.5c1.2,2-77.7,47.7-76.5,49.8c1.5,2.6,87.1-53.1,88.3-51
            c1.2,2.1-95,56.9-93.4,59.8c1.3,2.2,98.4-59.8,99.7-57.6c1.2,2.1-97.7,58.7-96,61.6c1.7,2.9,108.1-65.7,109.5-63.2
            c1.9,3.3-114.2,68.2-112.5,71.2c1.6,2.8,117.4-71.1,118.8-68.6c1.6,2.8-124,72.5-121.9,76.2c2.1,3.7,127.1-76.8,128.5-74.2
            c1.8,3.2-127.1,75.1-125.2,78.5c2,3.5,124.4-75.6,126-72.8c2.1,3.7-136,80.2-134.2,83.4c1.9,3.2,143.2-87,145.1-83.8
            c2,3.5-147.3,85.5-145,89.5c1.9,3.2,147.9-89.7,149.7-86.4c2,3.4-149.4,87.2-147.1,91.3c2.1,3.7,147.4-90,149.6-86.3
            c2.1,3.6-148.6,85.6-146.1,90c2.3,3.9,148-89.7,149.8-86.5c2.6,4.5-150.6,86.9-148.1,91c2.4,4.1,154.3-93.3,156.1-90.1
            c2.4,4.2-155.9,90-153.4,94.2c2.3,3.9,146.6-89.8,148.8-85.9c2.2,3.7-152.3,87.7-149.9,91.9c2.4,4.1,152.3-92.3,154.2-89
            c2.6,4.6-156.6,90.7-154,95.1c2.3,4.1,157.4-95.9,159.6-92.1c1.8,3.2-154.7,90.7-152.8,94c2.7,4.7,155.1-95.7,157.7-91.1
            c2.7,4.6-157,91.1-154.8,94.8c2.3,4.1,153.2-94,155.6-89.8c1.9,3.2-155.7,90.7-153.6,94.3c2.6,4.5,153.2-93.8,155.5-89.8
            c1.9,3.3-159.7,92.6-157.2,97c2.5,4.4,160.5-98.8,163.2-94.2c2.8,4.8-161.2,93.5-159.1,97.2c1.9,3.2,154-95.2,156.8-90.5
            c2.1,3.6-158.2,92.2-155.9,96.1c2.4,4.1,156.8-95,158.7-91.6c1.8,3.2-157.4,90.7-154.9,95.2c2.5,4.3,152.1-93.5,154.5-89.2
            c1.8,3-149,87.1-147.1,90.4c2.3,3.9,150.3-91.2,152.2-87.9c2,3.4-149.3,87.5-147.4,90.6c2.1,3.6,146.4-89.1,148.4-85.7
            c2.5,4.3-150,86.6-147.6,90.7c1.9,3.3,141.1-86.9,143.5-82.8c1.7,2.9-141.7,82.9-139.7,86.3c1.9,3.3,140.5-85.6,142.5-82.3
            c2,3.5-134,77.5-131.8,81.3c1.6,2.8,130.7-80.8,133-76.8c1.9,3.2-133.7,77.4-131.5,81.3c1.6,2.7,124.5-77,126.7-73.2
            c1.9,3.3-120,71.2-118.5,73.8c1.9,3.2,119.1-72.3,120.7-69.7c1.9,3.4-114.7,68.3-113.3,70.8c1.4,2.3,108.5-66.4,110.1-63.6
            c1.8,3.1-112.5,67.2-110.9,70.1c1.3,2.3,108.4-66.5,110.1-63.6c1.5,2.6-97.7,59.8-96.5,61.8c1.3,2.3,93.9-57.9,95.5-55.1
            c1.1,1.8-86.6,53.6-85.5,55.5c1.1,1.9,81.2-49.7,82.4-47.6c1.2,2.1-75.2,46.8-74.1,48.8c1.1,1.9,64-38.9,64.9-37.4
            c0.8,1.4-46,31.4-45.4,32.5c0.5,0.9,35.7-21.9,36.3-20.9"/>
    </g>
</g>
<circle class="st7" cx="394.3" cy="294.5" r="80"/>
<g>
    <path class="st8" d="M525.6,357.5c-84.6-31.9-178-31.9-262.7,0c-0.1,0-0.2,0-0.3-0.1c-6.1-16.1-12.2-32.3-18.3-48.4
        c0-0.1,0-0.2,0.1-0.3c96.5-36.4,203-36.4,299.5,0c0.1,0,0.2,0.2,0.1,0.3c-6.1,16.1-12.2,32.3-18.3,48.4
        C525.8,357.5,525.7,357.5,525.6,357.5z"/>
    <path class="st9" d="M525.6,357.5c-84.6-31.9-178-31.9-262.7,0c-0.1,0-0.2,0-0.3-0.1c-6.1-16.1-12.2-32.3-18.3-48.4
        c0-0.1,0-0.2,0.1-0.3c96.5-36.4,203-36.4,299.5,0c0.1,0,0.2,0.2,0.1,0.3c-6.1,16.1-12.2,32.3-18.3,48.4
        C525.8,357.5,525.7,357.5,525.6,357.5z"/>
</g>
<g>
    <g>
        <path class="st10" d="M368.3,346.1"/>
    </g>
</g>
<g>
    <g>
        <path class="st10" d="M368.9,349.2"/>
    </g>
</g>
<polygon class="st11" points="335,255.8 336.4,260.9 341.7,260.6 337.2,263.5 339.2,268.5 335,265.1 330.9,268.5 332.8,263.5 
    328.3,260.6 333.7,260.9 "/>
<polygon class="st11" points="453,255.8 454.4,260.9 459.7,260.6 455.2,263.5 457.2,268.5 453,265.1 448.9,268.5 450.8,263.5 
    446.3,260.6 451.7,260.9 "/>
<polygon class="st11" points="350.9,232.5 351.9,236.3 355.8,236 352.5,238.1 353.9,241.8 350.9,239.3 347.9,241.8 349.3,238.1 
    346,236 349.9,236.3 "/>
<polygon class="st11" points="437.1,232.5 438.1,236.3 442,236 438.7,238.1 440.1,241.8 437.1,239.3 434.1,241.8 435.5,238.1 
    432.2,236 436.1,236.3 "/>
<polygon class="st11" points="350.9,345.5 351.9,349.3 355.8,349 352.5,351.1 353.9,354.8 350.9,352.3 347.9,354.8 349.3,351.1 
    346,349 349.9,349.3 "/>
<polygon class="st11" points="437.1,345.5 438.1,349.3 442,349 438.7,351.1 440.1,354.8 437.1,352.3 434.1,354.8 435.5,351.1 
    432.2,349 436.1,349.3 "/>
<polygon class="st11" points="374,221 374.4,222.7 376.3,222.6 374.7,223.6 375.4,225.3 374,224.1 372.6,225.3 373.2,223.6 
    371.7,222.6 373.5,222.7 "/>
<polygon class="st11" points="414.1,221 414.5,222.7 416.3,222.6 414.8,223.6 415.5,225.3 414.1,224.1 412.7,225.3 413.3,223.6 
    411.8,222.6 413.6,222.7 "/>
<polygon class="st11" points="374,364 374.4,365.7 376.3,365.6 374.7,366.6 375.4,368.3 374,367.1 372.6,368.3 373.2,366.6 
    371.7,365.6 373.5,365.7 "/>
<polygon class="st11" points="414.1,364 414.5,365.7 416.3,365.6 414.8,366.6 415.5,368.3 414.1,367.1 412.7,368.3 413.3,366.6 
    411.8,365.6 413.6,365.7 "/>
</svg>
