<svg xmlns="http://www.w3.org/2000/svg" width="1440" height="900"><path d="M991,482L957,834L1186,686Z" fill="#fee4eb" stroke="#fee4eb" stroke-width="1.51"/><path d="M957,834L1291,935L1186,686Z" fill="#f9c7d7" stroke="#f9c7d7" stroke-width="1.51"/><path d="M1291,935L1406,526L1186,686Z" fill="#f7c4d4" stroke="#f7c4d4" stroke-width="1.51"/><path d="M1186,686L1406,526L991,482Z" fill="#fcdce6" stroke="#fcdce6" stroke-width="1.51"/><path d="M1406,526L1138,215L991,482Z" fill="#fae1ea" stroke="#fae1ea" stroke-width="1.51"/><path d="M991,482L542,470L957,834Z" fill="#fff5f7" stroke="#fff5f7" stroke-width="1.51"/><path d="M1138,215L915,198L991,482Z" fill="#f6eef4" stroke="#f6eef4" stroke-width="1.51"/><path d="M915,198L542,470L991,482Z" fill="#faf9fa" stroke="#faf9fa" stroke-width="1.51"/><path d="M542,470L510,949L957,834Z" fill="#fbe7ee" stroke="#fbe7ee" stroke-width="1.51"/><path d="M957,834L1026,1243L1291,935Z" fill="#efadc2" stroke="#efadc2" stroke-width="1.51"/><path d="M510,949L1026,1243L957,834Z" fill="#f2bbcc" stroke="#f2bbcc" stroke-width="1.51"/><path d="M542,470L254,535L510,949Z" fill="#f2eef5" stroke="#f2eef5" stroke-width="1.51"/><path d="M915,198L488,326L542,470Z" fill="#f4f8fc" stroke="#f4f8fc" stroke-width="1.51"/><path d="M1138,215L915,-111L915,198Z" fill="#e6e4ee" stroke="#e6e4ee" stroke-width="1.51"/><path d="M915,198L494,38L488,326Z" fill="#e9f1f8" stroke="#e9f1f8" stroke-width="1.51"/><path d="M1551,248L1250,73L1138,215Z" fill="#e7c7d8" stroke="#e7c7d8" stroke-width="1.51"/><path d="M1329,1257L1449,1122L1291,935Z" fill="#d981a0" stroke="#d981a0" stroke-width="1.51"/><path d="M1291,935L1627,1065L1406,526Z" fill="#ec9fba" stroke="#ec9fba" stroke-width="1.51"/><path d="M1026,1243L1329,1257L1291,935Z" fill="#da8da8" stroke="#da8da8" stroke-width="1.51"/><path d="M1406,526L1551,248L1138,215Z" fill="#f0c8d8" stroke="#f0c8d8" stroke-width="1.51"/><path d="M1840,424L1551,248L1406,526Z" fill="#e2b0c0" stroke="#e2b0c0" stroke-width="1.51"/><path d="M510,949L436,1125L1026,1243Z" fill="#e3b1c1" stroke="#e3b1c1" stroke-width="1.51"/><path d="M203,805L436,1125L510,949Z" fill="#e5bed0" stroke="#e5bed0" stroke-width="1.51"/><path d="M1449,1122L1627,1065L1291,935Z" fill="#dd7c9e" stroke="#dd7c9e" stroke-width="1.51"/><path d="M1801,1275L1627,1065L1449,1122Z" fill="#bc5d80" stroke="#bc5d80" stroke-width="1.51"/><path d="M276,342L254,535L542,470Z" fill="#ecf2f8" stroke="#ecf2f8" stroke-width="1.51"/><path d="M1250,73L915,-111L1138,215Z" fill="#e0d6e4" stroke="#e0d6e4" stroke-width="1.51"/><path d="M488,326L276,342L542,470Z" fill="#eef4fb" stroke="#eef4fb" stroke-width="1.51"/><path d="M1250,73L1289,-445L915,-111Z" fill="#c3b6c8" stroke="#c3b6c8" stroke-width="1.51"/><path d="M1551,248L1508,49L1250,73Z" fill="#deb4c9" stroke="#deb4c9" stroke-width="1.51"/><path d="M494,38L276,342L488,326Z" fill="#e3eef7" stroke="#e3eef7" stroke-width="1.51"/><path d="M915,-111L494,38L915,198Z" fill="#dfe6ef" stroke="#dfe6ef" stroke-width="1.51"/><path d="M-4,835L203,805L254,535Z" fill="#ddd5e3" stroke="#ddd5e3" stroke-width="1.51"/><path d="M254,535L203,805L510,949Z" fill="#e9d9e6" stroke="#e9d9e6" stroke-width="1.51"/><path d="M203,805L347,1202L436,1125Z" fill="#dbaec3" stroke="#dbaec3" stroke-width="1.51"/><path d="M655,1580L882,1565L1026,1243Z" fill="#be8999" stroke="#be8999" stroke-width="1.51"/><path d="M1627,1065L1852,851L1406,526Z" fill="#dc90ab" stroke="#dc90ab" stroke-width="1.51"/><path d="M1551,248L1866,-60L1508,49Z" fill="#c89cb2" stroke="#c89cb2" stroke-width="1.51"/><path d="M1852,851L1840,424L1406,526Z" fill="#dba2b3" stroke="#dba2b3" stroke-width="1.51"/><path d="M915,-111L799,-197L494,38Z" fill="#d3dde8" stroke="#d3dde8" stroke-width="1.51"/><path d="M1289,-445L799,-197L915,-111Z" fill="#a7a7b3" stroke="#a7a7b3" stroke-width="1.51"/><path d="M1840,424L1866,-60L1551,248Z" fill="#c79aae" stroke="#c79aae" stroke-width="1.51"/><path d="M1852,851L1901,489L1840,424Z" fill="#ca93a4" stroke="#ca93a4" stroke-width="1.51"/><path d="M655,1580L1026,1243L436,1125Z" fill="#c896a7" stroke="#c896a7" stroke-width="1.51"/><path d="M1026,1243L1405,1489L1329,1257Z" fill="#c0728e" stroke="#c0728e" stroke-width="1.51"/><path d="M1329,1257L1405,1489L1449,1122Z" fill="#be6585" stroke="#be6585" stroke-width="1.51"/><path d="M882,1565L1405,1489L1026,1243Z" fill="#ba798f" stroke="#ba798f" stroke-width="1.51"/><path d="M1627,1065L1801,1275L1852,851Z" fill="#bb5b7f" stroke="#bb5b7f" stroke-width="1.51"/><path d="M483,-329L354,-21L494,38Z" fill="#c6d6e6" stroke="#c6d6e6" stroke-width="1.51"/><path d="M494,38L354,-21L276,342Z" fill="#d5e3f0" stroke="#d5e3f0" stroke-width="1.51"/><path d="M347,1202L655,1580L436,1125Z" fill="#c394a7" stroke="#c394a7" stroke-width="1.51"/><path d="M1852,851L2067,523L1901,489Z" fill="#c28a9c" stroke="#c28a9c" stroke-width="1.51"/><path d="M1405,1489L1801,1275L1449,1122Z" fill="#b15276" stroke="#b15276" stroke-width="1.51"/><path d="M276,342L32,361L254,535Z" fill="#dee7f1" stroke="#dee7f1" stroke-width="1.51"/><path d="M203,805L-4,835L347,1202Z" fill="#d9b5ca" stroke="#d9b5ca" stroke-width="1.51"/><path d="M354,-21L32,361L276,342Z" fill="#d5e3f0" stroke="#d5e3f0" stroke-width="1.51"/><path d="M347,1202L196,1550L655,1580Z" fill="#b18499" stroke="#b18499" stroke-width="1.51"/><path d="M32,361L-4,835L254,535Z" fill="#dadee9" stroke="#dadee9" stroke-width="1.51"/><path d="M1801,1275L2052,860L1852,851Z" fill="#b5587b" stroke="#b5587b" stroke-width="1.51"/><path d="M1901,489L2134,144L1840,424Z" fill="#bc8d9e" stroke="#bc8d9e" stroke-width="1.51"/><path d="M2052,860L2067,523L1852,851Z" fill="#ba788e" stroke="#ba788e" stroke-width="1.51"/><path d="M1405,1489L1678,1692L1801,1275Z" fill="#9b3e63" stroke="#9b3e63" stroke-width="1.51"/><path d="M882,1565L1309,1693L1405,1489Z" fill="#b87089" stroke="#b87089" stroke-width="1.51"/><path d="M655,1580L1309,1693L882,1565Z" fill="#be8698" stroke="#be8698" stroke-width="1.51"/><path d="M354,-21L-22,-134L32,361Z" fill="#bfd1e3" stroke="#bfd1e3" stroke-width="1.51"/><path d="M799,-197L483,-329L494,38Z" fill="#bdcad8" stroke="#bdcad8" stroke-width="1.51"/><path d="M1289,-445L483,-329L799,-197Z" fill="#9397a2" stroke="#9397a2" stroke-width="1.51"/><path d="M2134,144L1866,-60L1840,424Z" fill="#b1859a" stroke="#b1859a" stroke-width="1.51"/><path d="M1508,49L1289,-445L1250,73Z" fill="#ccaec5" stroke="#ccaec5" stroke-width="1.51"/><path d="M1604,-490L1289,-445L1508,49Z" fill="#8f687f" stroke="#8f687f" stroke-width="1.51"/><path d="M655,1580L-311,1676L1309,1693Z" fill="#b8899b" stroke="#b8899b" stroke-width="1.51"/><path d="M-121,1220L196,1550L347,1202Z" fill="#aa8198" stroke="#aa8198" stroke-width="1.51"/><path d="M-4,835L-121,1220L347,1202Z" fill="#c59bb4" stroke="#c59bb4" stroke-width="1.51"/><path d="M32,361L-196,690L-4,835Z" fill="#ced1df" stroke="#ced1df" stroke-width="1.51"/><path d="M-541,540L-196,690L32,361Z" fill="#a2a8b3" stroke="#a2a8b3" stroke-width="1.51"/><path d="M1309,1693L1678,1692L1405,1489Z" fill="#ab4e71" stroke="#ab4e71" stroke-width="1.51"/><path d="M1801,1275L2096,1378L2052,860Z" fill="#973a5f" stroke="#973a5f" stroke-width="1.51"/><path d="M2256,-111L2134,144L2067,523Z" fill="#af8397" stroke="#af8397" stroke-width="1.51"/><path d="M2067,523L2134,144L1901,489Z" fill="#bb8b9b" stroke="#bb8b9b" stroke-width="1.51"/><path d="M-328,1033L-121,1220L-4,835Z" fill="#aa819a" stroke="#aa819a" stroke-width="1.51"/><path d="M1942,-329L1604,-490L1866,-60Z" fill="#714b62" stroke="#714b62" stroke-width="1.51"/><path d="M1866,-60L1604,-490L1508,49Z" fill="#a57d97" stroke="#a57d97" stroke-width="1.51"/><path d="M99,-454L-22,-134L354,-21Z" fill="#96a9bd" stroke="#96a9bd" stroke-width="1.51"/><path d="M2052,860L2256,-111L2067,523Z" fill="#bc8c9c" stroke="#bc8c9c" stroke-width="1.51"/><path d="M1678,1692L2096,1378L1801,1275Z" fill="#84294f" stroke="#84294f" stroke-width="1.51"/><path d="M2256,-111L1942,-329L1866,-60Z" fill="#866079" stroke="#866079" stroke-width="1.51"/><path d="M-196,690L-328,1033L-4,835Z" fill="#ad97ab" stroke="#ad97ab" stroke-width="1.51"/><path d="M-121,1220L-193,1442L196,1550Z" fill="#956e88" stroke="#956e88" stroke-width="1.51"/><path d="M-541,540L-328,1033L-196,690Z" fill="#8f8392" stroke="#8f8392" stroke-width="1.51"/><path d="M-465,1260L-193,1442L-121,1220Z" fill="#6e485f" stroke="#6e485f" stroke-width="1.51"/><path d="M483,-329L99,-454L354,-21Z" fill="#8e9dad" stroke="#8e9dad" stroke-width="1.51"/><path d="M1289,-445L99,-454L483,-329Z" fill="#848e99" stroke="#848e99" stroke-width="1.51"/><path d="M1604,-490L99,-454L1289,-445Z" fill="#82818d" stroke="#82818d" stroke-width="1.51"/><path d="M-22,-134L-285,-8L32,361Z" fill="#a9bccf" stroke="#a9bccf" stroke-width="1.51"/><path d="M-286,-359L-285,-8L-22,-134Z" fill="#71869a" stroke="#71869a" stroke-width="1.51"/><path d="M2134,144L2256,-111L1866,-60Z" fill="#9e768d" stroke="#9e768d" stroke-width="1.51"/><path d="M2096,1378L2256,-111L2052,860Z" fill="#bc7c92" stroke="#bc7c92" stroke-width="1.51"/><path d="M2256,-111L2074,-398L1942,-329Z" fill="#653f57" stroke="#653f57" stroke-width="1.51"/><path d="M1942,-329L2074,-398L1604,-490Z" fill="#5b364c" stroke="#5b364c" stroke-width="1.51"/><path d="M2096,1378L2158,1699L2256,-111Z" fill="#ad5174" stroke="#ad5174" stroke-width="1.51"/><path d="M1678,1692L2158,1699L2096,1378Z" fill="#791d46" stroke="#791d46" stroke-width="1.51"/><path d="M1309,1693L2158,1699L1678,1692Z" fill="#93365b" stroke="#93365b" stroke-width="1.51"/><path d="M-465,153L-541,540L32,361Z" fill="#8c97a2" stroke="#8c97a2" stroke-width="1.51"/><path d="M-328,1033L-465,1260L-121,1220Z" fill="#764f66" stroke="#764f66" stroke-width="1.51"/><path d="M-285,-8L-465,153L32,361Z" fill="#8f9eae" stroke="#8f9eae" stroke-width="1.51"/><path d="M-286,-359L-465,153L-285,-8Z" fill="#697c8f" stroke="#697c8f" stroke-width="1.51"/><path d="M99,-454L-155,-378L-22,-134Z" fill="#697d90" stroke="#697d90" stroke-width="1.51"/><path d="M-541,540L-465,1260L-328,1033Z" fill="#806075" stroke="#806075" stroke-width="1.51"/><path d="M99,-454L-286,-359L-155,-378Z" fill="#506375" stroke="#506375" stroke-width="1.51"/><path d="M-155,-378L-286,-359L-22,-134Z" fill="#57697c" stroke="#57697c" stroke-width="1.51"/><path d="M-465,1260L-311,1676L-193,1442Z" fill="#59344b" stroke="#59344b" stroke-width="1.51"/><path d="M-193,1442L-311,1676L196,1550Z" fill="#866079" stroke="#866079" stroke-width="1.51"/><path d="M196,1550L-311,1676L655,1580Z" fill="#a37990" stroke="#a37990" stroke-width="1.51"/></svg>