<?xml version="1.0" encoding="UTF-8"?>
<svg viewBox="0 0 325 57" version="1.1" xmlns="http://www.w3.org/2000/svg" xmlns:xlink="http://www.w3.org/1999/xlink">
    <style type="text/css">
        .st-1{stroke: rgb(109, 179, 190);fill: #ffeded;}
        .st-2{stroke: rgb(58, 28, 49);}
        .st-3{fill: #6a4f60;}
        .st-1, .st-3{fill-opacity: 0;}
    </style>
    <g stroke-width="1" fill="none" fill-rule="evenodd">

        <g id="Left-lent" transform="translate(28.500000, 35.500000) scale(-1, 1) translate(-28.500000, -35.500000) translate(0.000000, 15.000000)" fill-rule="nonzero">
            <polygon class="st-1" points="56.8 0.2 1 0.2 1 40.7 56.8 40.7 36.8 20.4"> </polygon>
            <path class="st-2" data-duration="350" d="M49.5,38.4 L2.8,38.4 L2.8,2.4 L49.5,2.4 L31.7,20.4 L49.5,38.4 Z M46.34345,37.131425 L29.8,20.5 L30.1,20.2 L46.5,3.6 L4.3,3.6 L4.3,37.131425 L46.34345,37.131425 Z"> </path>
            <polygon class="st-3" data-start="400" points="22.0451215 26.0024024 0.964541366 40.2714641 0.964541366 26.0024024"> </polygon>
        </g>
        <g id="Right-lent" transform="translate(266.000000, 15.000000)" fill-rule="nonzero">
            <polygon class="st-1" points="56.8 0.2 1 0.2 1 40.7 56.8 40.7 36.8 20.4"> </polygon>
            <path class="st-2" data-duration="350" d="M49.5,38.4 L2.8,38.4 L2.8,2.4 L49.5,2.4 L31.7,20.4 L49.5,38.4 Z M46.34345,37.131425 L29.8,20.5 L30.1,20.2 L46.5,3.6 L4.3,3.6 L4.3,37.131425 L46.34345,37.131425 Z" > </path>
            <polygon class="st-3" data-start="400" points="21.8202907 26.0020419 0.979651768 40.2632851 0.979651768 26.0020419"> </polygon>
        </g>
        <polygon class="st-1" fill-rule="nonzero" points="34 0.751993566 289.2 0.751993566 289.2 41 34 41"> </polygon>
        <polygon class="st-2" fill-rule="nonzero" transform="translate(161.550000, 20.906399) scale(1, -1) translate(-161.550000, -20.906399)" points="36.6 39.1127984 36.6 2.7 286.5 2.7 286.5 39.1127984"> </polygon>
        <polygon class="st-2" transform="translate(161.500000, 20.977121) scale(-1, -1) translate(-161.500000, -20.977121) " points="284.9 37.5327205 284.9 4.25424183 38.1 4.25424183 38.1 37.7"> </polygon>

    </g>

</svg>