<?xml version="1.0" encoding="UTF-8"?>
<svg id="text-svg" viewBox="0 0 325 57" version="1.1" xmlns="http://www.w3.org/2000/svg" xmlns:xlink="http://www.w3.org/1999/xlink"
style="position: absolute;">
    <style type="text/css">
        .st-0.text{stroke-width: 0.3; stroke: rgb(44, 100, 109);}
    </style>
    <g stroke-width="1" fill="none" fill-rule="evenodd">
        <path id="AWesomeness" class="st-0 text" d="M77.58,21.94 L77.58,22.56 L85.38,22.56 L85.38,21.94 C85.38,21.5799982 85.3500003,21.2466682 85.29,20.94 C85.2299997,20.6333318 85.1533338,20.346668 85.06,20.08 L83.68,16.82 C83.5333326,16.4733316 83.3800008,16.1833345 83.22,15.95 C83.0599992,15.7166655 82.7933352,15.6 82.42,15.6 L80.46,15.6 C80.059998,15.6 79.7800008,15.7166655 79.62,15.95 C79.4599992,16.1833345 79.313334,16.466665 79.18,16.8 L77.9,20.08 C77.8066662,20.346668 77.7300003,20.6333318 77.67,20.94 C77.6099997,21.2466682 77.58,21.5799982 77.58,21.94 Z M80.78,17.8 C80.8333336,17.6799994 80.8899997,17.5933336 80.95,17.54 C81.0100003,17.4866664 81.0799996,17.46 81.16,17.46 L81.66,17.46 C81.7400004,17.46 81.8099997,17.4866664 81.87,17.54 C81.9300003,17.5933336 81.9866664,17.6799994 82.04,17.8 L82.98,20.84 L79.84,20.84 L80.78,17.8 Z M85.38,26.2 L85.38,22.76 L77.58,22.76 L77.58,26.2 L77.38,26.2 L77.38,21.94 C77.38,21.5666648 77.4099997,21.2233349 77.47,20.91 C77.5300003,20.5966651 77.6133328,20.2933348 77.72,20 L79,16.72 C79.1466674,16.3466648 79.3133324,16.0333346 79.5,15.78 C79.6866676,15.5266654 80.0066644,15.4 80.46,15.4 L82.42,15.4 C82.8600022,15.4 83.1699991,15.5266654 83.35,15.78 C83.5300009,16.0333346 83.6999992,16.3533314 83.86,16.74 L85.24,20 C85.3466672,20.2933348 85.4299997,20.5966651 85.49,20.91 C85.5500003,21.2233349 85.58,21.5666648 85.58,21.94 L85.58,26.2 L85.38,26.2 Z M79.64,27.28 L79.64,24.48 L83.18,24.48 L83.18,27.28 C83.18,27.5333346 83.2433327,27.7166661 83.37,27.83 C83.4966673,27.9433339 83.693332,28 83.96,28 L86.98,28 C87.2333346,28 87.4166661,27.9433339 87.53,27.83 C87.6433339,27.7166661 87.7,27.5333346 87.7,27.28 L87.7,22 C87.7,21.599998 87.6366673,21.1400026 87.51,20.62 C87.3833327,20.0999974 87.186668,19.4933368 86.92,18.8 L85.18,14.26 C85.0999996,14.0333322 84.9766675,13.8666672 84.81,13.76 C84.6433325,13.6533328 84.4333346,13.6 84.18,13.6 L78.8,13.6 C78.533332,13.6 78.3166675,13.6533328 78.15,13.76 C77.9833325,13.8666672 77.8600004,14.0333322 77.78,14.26 L76.04,18.8 C75.773332,19.4933368 75.5766673,20.0999974 75.45,20.62 C75.3233327,21.1400026 75.26,21.599998 75.26,22 L75.26,27.28 C75.26,27.5333346 75.3166661,27.7166661 75.43,27.83 C75.5433339,27.9433339 75.7266654,28 75.98,28 L78.92,28 C79.1733346,28 79.3566661,27.9433339 79.47,27.83 C79.5833339,27.7166661 79.64,27.5333346 79.64,27.28 Z M99.36,21.1 C99.5733344,21.1 99.7433327,21.1633327 99.87,21.29 C99.9966673,21.4166673 100.153332,21.6666648 100.34,22.04 L102.18,25.72 C102.246667,25.853334 102.329999,25.9333332 102.43,25.96 C102.53,25.9866668 102.626666,26 102.72,26 L102.82,26 C102.926667,26 103.026666,25.9566671 103.12,25.87 C103.213334,25.7833329 103.266667,25.6866672 103.28,25.58 L103.78,23.3 C103.833334,23.0466654 103.863333,22.720002 103.87,22.32 C103.876667,21.919998 103.88,21.5733348 103.88,21.28 L103.88,15.4 L104.08,15.4 L104.08,21.3 C104.08,21.5933348 104.076667,21.939998 104.07,22.34 C104.063333,22.740002 104.033334,23.0666654 103.98,23.32 L103.48,25.58 C103.426666,25.7933344 103.343334,25.9499995 103.23,26.05 C103.116666,26.1500005 102.980001,26.2 102.82,26.2 L102.68,26.2 C102.559999,26.2 102.436667,26.1766669 102.31,26.13 C102.183333,26.0833331 102.086667,25.993334 102.02,25.86 L100.18,22.14 C100.006666,21.7933316 99.8666672,21.5666672 99.76,21.46 C99.6533328,21.3533328 99.5200008,21.3 99.36,21.3 L98.86,21.3 C98.6999992,21.3 98.5666672,21.3533328 98.46,21.46 C98.3533328,21.5666672 98.2133342,21.7933316 98.04,22.14 L96.2,25.86 C96.133333,25.993334 96.0366673,26.0833331 95.91,26.13 C95.7833327,26.1766669 95.6600006,26.2 95.54,26.2 L95.4,26.2 C95.2399992,26.2 95.1033339,26.1500005 94.99,26.05 C94.8766661,25.9499995 94.7933336,25.7933344 94.74,25.58 L94.24,23.32 C94.1866664,23.0666654 94.1566667,22.740002 94.15,22.34 C94.1433333,21.939998 94.14,21.5933348 94.14,21.3 L94.14,15.4 L94.34,15.4 L94.34,21.28 C94.34,21.5733348 94.3433333,21.919998 94.35,22.32 C94.3566667,22.720002 94.3866664,23.0466654 94.44,23.3 L94.94,25.58 C94.9533334,25.6866672 95.0066662,25.7833329 95.1,25.87 C95.1933338,25.9566671 95.2933328,26 95.4,26 L95.5,26 C95.5933338,26 95.6899995,25.9866668 95.79,25.96 C95.8900005,25.9333332 95.973333,25.853334 96.04,25.72 L97.88,22.04 C98.0666676,21.6666648 98.2233327,21.4166673 98.35,21.29 C98.4766673,21.1633327 98.6466656,21.1 98.86,21.1 L99.36,21.1 Z M102.5,13.6 C102.246665,13.6 102.063334,13.6566661 101.95,13.77 C101.836666,13.8833339 101.78,14.0666654 101.78,14.32 L101.78,21.68 L100.62,19.16 C100.513333,18.9333322 100.373334,18.7733338 100.2,18.68 C100.026666,18.5866662 99.8133346,18.54 99.56,18.54 L98.72,18.54 C98.4666654,18.54 98.2533342,18.5866662 98.08,18.68 C97.9066658,18.7733338 97.7666672,18.9333322 97.66,19.16 L96.5,21.68 L96.5,14.32 C96.5,14.0666654 96.4433339,13.8833339 96.33,13.77 C96.2166661,13.6566661 96.0333346,13.6 95.78,13.6 L92.7,13.6 C92.4466654,13.6 92.2633339,13.6566661 92.15,13.77 C92.0366661,13.8833339 91.98,14.0666654 91.98,14.32 L91.98,22.04 C91.98,22.4666688 91.9966665,22.8633315 92.03,23.23 C92.0633335,23.5966685 92.1666658,24.0266642 92.34,24.52 L93.34,27.28 C93.406667,27.4933344 93.5166659,27.666666 93.67,27.8 C93.8233341,27.933334 94.0066656,28 94.22,28 L96.86,28 C97.0733344,28 97.2533326,27.9500005 97.4,27.85 C97.5466674,27.7499995 97.6466664,27.600001 97.7,27.4 L98.64,24.14 C98.6800002,24.006666 98.7299997,23.9166669 98.79,23.87 C98.8500003,23.8233331 98.9199996,23.8 99,23.8 L99.18,23.8 C99.2600004,23.8 99.3299997,23.8233331 99.39,23.87 C99.4500003,23.9166669 99.4999998,24.006666 99.54,24.14 L100.46,27.4 C100.513334,27.6133344 100.626666,27.7666662 100.8,27.86 C100.973334,27.9533338 101.166666,28 101.38,28 L104.04,28 C104.253334,28 104.423333,27.9300007 104.55,27.79 C104.676667,27.6499993 104.773333,27.480001 104.84,27.28 L105.84,24.56 C106.013334,24.0666642 106.116666,23.6366685 106.15,23.27 C106.183333,22.9033315 106.2,22.5066688 106.2,22.08 L106.2,14.32 C106.2,14.0666654 106.143334,13.8833339 106.03,13.77 C105.916666,13.6566661 105.733335,13.6 105.48,13.6 L102.5,13.6 Z M120.78,28 C121.033335,28 121.216666,27.9433339 121.33,27.83 C121.443334,27.7166661 121.5,27.5333346 121.5,27.28 L121.5,24.94 C121.5,24.6866654 121.443334,24.5033339 121.33,24.39 C121.216666,24.2766661 121.033335,24.22 120.78,24.22 L115.26,24.22 L115.26,22.5 L119.16,22.5 C119.413335,22.5 119.596666,22.4433339 119.71,22.33 C119.823334,22.2166661 119.88,22.0333346 119.88,21.78 L119.88,19.64 C119.88,19.3866654 119.823334,19.2033339 119.71,19.09 C119.596666,18.9766661 119.413335,18.92 119.16,18.92 L115.26,18.92 L115.26,17.38 L120.78,17.38 C121.033335,17.38 121.216666,17.3233339 121.33,17.21 C121.443334,17.0966661 121.5,16.9133346 121.5,16.66 L121.5,14.32 C121.5,14.0666654 121.443334,13.8833339 121.33,13.77 C121.216666,13.6566661 121.033335,13.6 120.78,13.6 L111.5,13.6 C111.246665,13.6 111.063334,13.6566661 110.95,13.77 C110.836666,13.8833339 110.78,14.0666654 110.78,14.32 L110.78,27.28 C110.78,27.5333346 110.836666,27.7166661 110.95,27.83 C111.063334,27.9433339 111.246665,28 111.5,28 L120.78,28 Z M119.7,26 L119.7,26.2 L112.96,26.2 L112.96,15.4 L119.7,15.4 L119.7,15.6 L113.16,15.6 L113.16,20.62 L118.08,20.62 L118.08,20.82 L113.16,20.82 L113.16,26 L119.7,26 Z M132.54,28 C133.820006,28 134.829996,27.6966697 135.57,27.09 C136.310004,26.4833303 136.68,25.613339 136.68,24.48 L136.68,22.38 C136.68,21.2599944 136.393336,20.4600024 135.82,19.98 C135.246664,19.4999976 134.493338,19.193334 133.56,19.06 L130.58,18.66 C130.406666,18.6466666 130.273334,18.5800006 130.18,18.46 C130.086666,18.3399994 130.04,18.1933342 130.04,18.02 C130.04,17.8466658 130.086666,17.7033339 130.18,17.59 C130.273334,17.4766661 130.406666,17.42 130.58,17.42 L135.24,17.42 C135.493335,17.42 135.676666,17.3633339 135.79,17.25 C135.903334,17.1366661 135.96,16.9533346 135.96,16.7 L135.96,14.32 C135.96,14.0666654 135.903334,13.8833339 135.79,13.77 C135.676666,13.6566661 135.493335,13.6 135.24,13.6 L129.64,13.6 C128.34666,13.6 127.333337,13.9033303 126.6,14.51 C125.866663,15.1166697 125.5,15.986661 125.5,17.12 L125.5,19.22 C125.5,20.3400056 125.78333,21.1399976 126.35,21.62 C126.916669,22.1000024 127.666662,22.406666 128.6,22.54 L131.6,22.96 C131.773334,22.9733334 131.903333,23.0333328 131.99,23.14 C132.076667,23.2466672 132.12,23.4133322 132.12,23.64 C132.12,23.8000008 132.076667,23.9366661 131.99,24.05 C131.903333,24.1633339 131.773334,24.22 131.6,24.22 L126.22,24.22 C125.966665,24.22 125.783334,24.2766661 125.67,24.39 C125.556666,24.5033339 125.5,24.6866654 125.5,24.94 L125.5,27.28 C125.5,27.5333346 125.556666,27.7166661 125.67,27.83 C125.783334,27.9433339 125.966665,28 126.22,28 L132.54,28 Z M134.16,15.4 L134.16,15.6 L129.72,15.6 C129.159997,15.6 128.713335,15.7533318 128.38,16.06 C128.046665,16.3666682 127.88,16.753331 127.88,17.22 L127.88,18.86 C127.88,19.326669 127.973332,19.6533324 128.16,19.84 C128.346668,20.0266676 128.593332,20.1466664 128.9,20.2 L133.12,21.06 C133.520002,21.1400004 133.849999,21.313332 134.11,21.58 C134.370001,21.846668 134.5,22.3266632 134.5,23.02 L134.5,24.18 C134.5,24.7666696 134.300002,25.2499981 133.9,25.63 C133.499998,26.0100019 132.960003,26.2 132.28,26.2 L127.3,26.2 L127.3,26 L132.28,26 C132.893336,26 133.383331,25.8300017 133.75,25.49 C134.116668,25.1499983 134.3,24.713336 134.3,24.18 L134.3,23.02 C134.3,22.3933302 134.190001,21.9633345 133.97,21.73 C133.749999,21.4966655 133.453335,21.3400004 133.08,21.26 L128.86,20.4 C128.513332,20.333333 128.230001,20.1966677 128.01,19.99 C127.789999,19.7833323 127.68,19.4066694 127.68,18.86 L127.68,17.22 C127.68,16.686664 127.866665,16.2500017 128.24,15.91 C128.613335,15.5699983 129.106664,15.4 129.72,15.4 L134.16,15.4 Z M153.06,24.22 L153.06,17.4 C153.06,16.7866636 152.970001,16.2300025 152.79,15.73 C152.609999,15.2299975 152.290002,14.8000018 151.83,14.44 C151.369998,14.0799982 150.736671,13.800001 149.93,13.6 C149.123329,13.399999 148.100006,13.3 146.86,13.3 C145.619994,13.3 144.593337,13.399999 143.78,13.6 C142.966663,13.800001 142.330002,14.0799982 141.87,14.44 C141.409998,14.8000018 141.090001,15.2299975 140.91,15.73 C140.729999,16.2300025 140.64,16.7866636 140.64,17.4 L140.64,24.22 C140.64,24.8333364 140.729999,25.3899975 140.91,25.89 C141.090001,26.3900025 141.409998,26.8166649 141.87,27.17 C142.330002,27.5233351 142.966663,27.799999 143.78,28 C144.593337,28.200001 145.619994,28.3 146.86,28.3 C148.100006,28.3 149.123329,28.200001 149.93,28 C150.736671,27.799999 151.369998,27.5233351 151.83,27.17 C152.290002,26.8166649 152.609999,26.3900025 152.79,25.89 C152.970001,25.3899975 153.06,24.8333364 153.06,24.22 Z M150.88,23.76 C150.88,24.560004 150.593336,25.2099975 150.02,25.71 C149.446664,26.2100025 148.380008,26.46 146.82,26.46 C145.259992,26.46 144.200003,26.2100025 143.64,25.71 C143.079997,25.2099975 142.8,24.560004 142.8,23.76 L142.8,17.86 C142.8,17.059996 143.079997,16.4100025 143.64,15.91 C144.200003,15.4099975 145.259992,15.16 146.82,15.16 C148.380008,15.16 149.446664,15.4099975 150.02,15.91 C150.593336,16.4100025 150.88,17.059996 150.88,17.86 L150.88,23.76 Z M143,23.76 C143,24.5066704 143.266664,25.1099977 143.8,25.57 C144.333336,26.0300023 145.339993,26.26 146.82,26.26 C148.300007,26.26 149.313331,26.0300023 149.86,25.57 C150.406669,25.1099977 150.68,24.5066704 150.68,23.76 L150.68,17.86 C150.68,17.1133296 150.406669,16.5100023 149.86,16.05 C149.313331,15.5899977 148.300007,15.36 146.82,15.36 C145.339993,15.36 144.333336,15.5899977 143.8,16.05 C143.266664,16.5100023 143,17.1133296 143,17.86 L143,23.76 Z M145.18,23.5 L145.18,18.12 C145.18,17.8666654 145.279999,17.6500009 145.48,17.47 C145.680001,17.2899991 146.139996,17.2 146.86,17.2 C147.580004,17.2 148.039999,17.2899991 148.24,17.47 C148.440001,17.6500009 148.54,17.8666654 148.54,18.12 L148.54,23.5 C148.54,23.766668 148.440001,23.9899991 148.24,24.17 C148.039999,24.3500009 147.580004,24.44 146.86,24.44 C146.139996,24.44 145.680001,24.3500009 145.48,24.17 C145.279999,23.9899991 145.18,23.766668 145.18,23.5 Z M164.64,20.3 C164.880001,20.3 165.053333,20.2466672 165.16,20.14 C165.266667,20.0333328 165.433332,19.8066684 165.66,19.46 L168.1,15.74 C168.18,15.606666 168.269999,15.5166669 168.37,15.47 C168.47,15.4233331 168.573333,15.4 168.68,15.4 L169.02,15.4 C169.206668,15.4 169.343333,15.4499995 169.43,15.55 C169.516667,15.6500005 169.56,15.8066656 169.56,16.02 L169.56,26.2 L169.36,26.2 L169.36,16.02 C169.36,15.9133328 169.336667,15.8166671 169.29,15.73 C169.243333,15.6433329 169.153334,15.6 169.02,15.6 L168.72,15.6 C168.626666,15.6 168.546667,15.6133332 168.48,15.64 C168.413333,15.6666668 168.34,15.746666 168.26,15.88 L165.82,19.56 C165.579999,19.9200018 165.396667,20.166666 165.27,20.3 C165.143333,20.433334 164.933335,20.5 164.64,20.5 C164.346665,20.5 164.136667,20.433334 164.01,20.3 C163.883333,20.166666 163.700001,19.9200018 163.46,19.56 L161.02,15.88 C160.94,15.746666 160.863334,15.6666668 160.79,15.64 C160.716666,15.6133332 160.633334,15.6 160.54,15.6 L160.24,15.6 C160.106666,15.6 160.02,15.6433329 159.98,15.73 C159.94,15.8166671 159.92,15.9133328 159.92,16.02 L159.92,26.2 L159.72,26.2 L159.72,16.02 C159.72,15.8066656 159.763333,15.6500005 159.85,15.55 C159.936667,15.4499995 160.066666,15.4 160.24,15.4 L160.58,15.4 C160.686667,15.4 160.793333,15.4233331 160.9,15.47 C161.006667,15.5166669 161.1,15.606666 161.18,15.74 L163.62,19.46 C163.846668,19.8066684 164.013333,20.0333328 164.12,20.14 C164.226667,20.2466672 164.399999,20.3 164.64,20.3 Z M161.3,28 C161.553335,28 161.736666,27.9433339 161.85,27.83 C161.963334,27.7166661 162.02,27.5333346 162.02,27.28 L162.02,20.24 L163.2,22.42 C163.320001,22.6466678 163.463332,22.8099995 163.63,22.91 C163.796667,23.0100005 164.006665,23.06 164.26,23.06 L165.06,23.06 C165.313335,23.06 165.523332,23.0100005 165.69,22.91 C165.856667,22.8099995 165.999999,22.6466678 166.12,22.42 L167.3,20.24 L167.3,27.28 C167.3,27.5333346 167.356666,27.7166661 167.47,27.83 C167.583334,27.9433339 167.766665,28 168.02,28 L171.1,28 C171.353335,28 171.536666,27.9433339 171.65,27.83 C171.763334,27.7166661 171.82,27.5333346 171.82,27.28 L171.82,14.32 C171.82,14.0666654 171.763334,13.8833339 171.65,13.77 C171.536666,13.6566661 171.353335,13.6 171.1,13.6 L167.86,13.6 C167.646666,13.6 167.470001,13.6466662 167.33,13.74 C167.189999,13.8333338 167.060001,13.9866656 166.94,14.2 L165.16,17.46 C165.093333,17.5800006 165.036667,17.6666664 164.99,17.72 C164.943333,17.7733336 164.88,17.8 164.8,17.8 L164.62,17.8 C164.54,17.8 164.476667,17.7733336 164.43,17.72 C164.383333,17.6666664 164.326667,17.5800006 164.26,17.46 L162.46,14.2 C162.339999,13.9866656 162.210001,13.8333338 162.07,13.74 C161.929999,13.6466662 161.753334,13.6 161.54,13.6 L158.32,13.6 C158.066665,13.6 157.883334,13.6566661 157.77,13.77 C157.656666,13.8833339 157.6,14.0666654 157.6,14.32 L157.6,27.28 C157.6,27.5333346 157.656666,27.7166661 157.77,27.83 C157.883334,27.9433339 158.066665,28 158.32,28 L161.3,28 Z M186.58,28 C186.833335,28 187.016666,27.9433339 187.13,27.83 C187.243334,27.7166661 187.3,27.5333346 187.3,27.28 L187.3,24.94 C187.3,24.6866654 187.243334,24.5033339 187.13,24.39 C187.016666,24.2766661 186.833335,24.22 186.58,24.22 L181.06,24.22 L181.06,22.5 L184.96,22.5 C185.213335,22.5 185.396666,22.4433339 185.51,22.33 C185.623334,22.2166661 185.68,22.0333346 185.68,21.78 L185.68,19.64 C185.68,19.3866654 185.623334,19.2033339 185.51,19.09 C185.396666,18.9766661 185.213335,18.92 184.96,18.92 L181.06,18.92 L181.06,17.38 L186.58,17.38 C186.833335,17.38 187.016666,17.3233339 187.13,17.21 C187.243334,17.0966661 187.3,16.9133346 187.3,16.66 L187.3,14.32 C187.3,14.0666654 187.243334,13.8833339 187.13,13.77 C187.016666,13.6566661 186.833335,13.6 186.58,13.6 L177.3,13.6 C177.046665,13.6 176.863334,13.6566661 176.75,13.77 C176.636666,13.8833339 176.58,14.0666654 176.58,14.32 L176.58,27.28 C176.58,27.5333346 176.636666,27.7166661 176.75,27.83 C176.863334,27.9433339 177.046665,28 177.3,28 L186.58,28 Z M185.5,26 L185.5,26.2 L178.76,26.2 L178.76,15.4 L185.5,15.4 L185.5,15.6 L178.96,15.6 L178.96,20.62 L183.88,20.62 L183.88,20.82 L178.96,20.82 L178.96,26 L185.5,26 Z M194.3,15.56 L201.66,23.84 L201.66,15.4 L201.86,15.4 L201.86,26.2 L201.66,26.2 L201.66,24.14 L194.1,15.66 C194.086667,15.6466666 194.07,15.6333334 194.05,15.62 C194.03,15.6066666 194.013333,15.6 194,15.6 C193.986667,15.6 193.976667,15.6066666 193.97,15.62 C193.963333,15.6333334 193.96,15.6466666 193.96,15.66 L193.96,26.2 L193.76,26.2 L193.76,15.62 C193.76,15.5399996 193.786666,15.4800002 193.84,15.44 C193.893334,15.3999998 193.946666,15.38 194,15.38 C194.053334,15.38 194.1,15.3933332 194.14,15.42 C194.18,15.4466668 194.233333,15.493333 194.3,15.56 Z M195.38,28 C195.633335,28 195.816666,27.9433339 195.93,27.83 C196.043334,27.7166661 196.1,27.5333346 196.1,27.28 L196.1,20.68 L199.52,24.82 L199.52,27.28 C199.52,27.5333346 199.576666,27.7166661 199.69,27.83 C199.803334,27.9433339 199.986665,28 200.24,28 L203.24,28 C203.493335,28 203.676666,27.9433339 203.79,27.83 C203.903334,27.7166661 203.96,27.5333346 203.96,27.28 L203.96,14.32 C203.96,14.0666654 203.903334,13.8833339 203.79,13.77 C203.676666,13.6566661 203.493335,13.6 203.24,13.6 L200.24,13.6 C199.986665,13.6 199.803334,13.6566661 199.69,13.77 C199.576666,13.8833339 199.52,14.0666654 199.52,14.32 L199.52,18.58 L195.64,14.14 C195.466666,13.939999 195.290001,13.8000004 195.11,13.72 C194.929999,13.6399996 194.713335,13.6 194.46,13.6 L192.38,13.6 C192.126665,13.6 191.943334,13.6566661 191.83,13.77 C191.716666,13.8833339 191.66,14.0666654 191.66,14.32 L191.66,27.28 C191.66,27.5333346 191.716666,27.7166661 191.83,27.83 C191.943334,27.9433339 192.126665,28 192.38,28 L195.38,28 Z M218.72,28 C218.973335,28 219.156666,27.9433339 219.27,27.83 C219.383334,27.7166661 219.44,27.5333346 219.44,27.28 L219.44,24.94 C219.44,24.6866654 219.383334,24.5033339 219.27,24.39 C219.156666,24.2766661 218.973335,24.22 218.72,24.22 L213.2,24.22 L213.2,22.5 L217.1,22.5 C217.353335,22.5 217.536666,22.4433339 217.65,22.33 C217.763334,22.2166661 217.82,22.0333346 217.82,21.78 L217.82,19.64 C217.82,19.3866654 217.763334,19.2033339 217.65,19.09 C217.536666,18.9766661 217.353335,18.92 217.1,18.92 L213.2,18.92 L213.2,17.38 L218.72,17.38 C218.973335,17.38 219.156666,17.3233339 219.27,17.21 C219.383334,17.0966661 219.44,16.9133346 219.44,16.66 L219.44,14.32 C219.44,14.0666654 219.383334,13.8833339 219.27,13.77 C219.156666,13.6566661 218.973335,13.6 218.72,13.6 L209.44,13.6 C209.186665,13.6 209.003334,13.6566661 208.89,13.77 C208.776666,13.8833339 208.72,14.0666654 208.72,14.32 L208.72,27.28 C208.72,27.5333346 208.776666,27.7166661 208.89,27.83 C209.003334,27.9433339 209.186665,28 209.44,28 L218.72,28 Z M217.64,26 L217.64,26.2 L210.9,26.2 L210.9,15.4 L217.64,15.4 L217.64,15.6 L211.1,15.6 L211.1,20.62 L216.02,20.62 L216.02,20.82 L211.1,20.82 L211.1,26 L217.64,26 Z M230.48,28 C231.760006,28 232.769996,27.6966697 233.51,27.09 C234.250004,26.4833303 234.62,25.613339 234.62,24.48 L234.62,22.38 C234.62,21.2599944 234.333336,20.4600024 233.76,19.98 C233.186664,19.4999976 232.433338,19.193334 231.5,19.06 L228.52,18.66 C228.346666,18.6466666 228.213334,18.5800006 228.12,18.46 C228.026666,18.3399994 227.98,18.1933342 227.98,18.02 C227.98,17.8466658 228.026666,17.7033339 228.12,17.59 C228.213334,17.4766661 228.346666,17.42 228.52,17.42 L233.18,17.42 C233.433335,17.42 233.616666,17.3633339 233.73,17.25 C233.843334,17.1366661 233.9,16.9533346 233.9,16.7 L233.9,14.32 C233.9,14.0666654 233.843334,13.8833339 233.73,13.77 C233.616666,13.6566661 233.433335,13.6 233.18,13.6 L227.58,13.6 C226.28666,13.6 225.273337,13.9033303 224.54,14.51 C223.806663,15.1166697 223.44,15.986661 223.44,17.12 L223.44,19.22 C223.44,20.3400056 223.72333,21.1399976 224.29,21.62 C224.85667,22.1000024 225.606662,22.406666 226.54,22.54 L229.54,22.96 C229.713334,22.9733334 229.843333,23.0333328 229.93,23.14 C230.016667,23.2466672 230.06,23.4133322 230.06,23.64 C230.06,23.8000008 230.016667,23.9366661 229.93,24.05 C229.843333,24.1633339 229.713334,24.22 229.54,24.22 L224.16,24.22 C223.906665,24.22 223.723334,24.2766661 223.61,24.39 C223.496666,24.5033339 223.44,24.6866654 223.44,24.94 L223.44,27.28 C223.44,27.5333346 223.496666,27.7166661 223.61,27.83 C223.723334,27.9433339 223.906665,28 224.16,28 L230.48,28 Z M232.1,15.4 L232.1,15.6 L227.66,15.6 C227.099997,15.6 226.653335,15.7533318 226.32,16.06 C225.986665,16.3666682 225.82,16.753331 225.82,17.22 L225.82,18.86 C225.82,19.326669 225.913332,19.6533324 226.1,19.84 C226.286668,20.0266676 226.533332,20.1466664 226.84,20.2 L231.06,21.06 C231.460002,21.1400004 231.789999,21.313332 232.05,21.58 C232.310001,21.846668 232.44,22.3266632 232.44,23.02 L232.44,24.18 C232.44,24.7666696 232.240002,25.2499981 231.84,25.63 C231.439998,26.0100019 230.900003,26.2 230.22,26.2 L225.24,26.2 L225.24,26 L230.22,26 C230.833336,26 231.323331,25.8300017 231.69,25.49 C232.056669,25.1499983 232.24,24.713336 232.24,24.18 L232.24,23.02 C232.24,22.3933302 232.130001,21.9633345 231.91,21.73 C231.689999,21.4966655 231.393335,21.3400004 231.02,21.26 L226.8,20.4 C226.453332,20.333333 226.170001,20.1966677 225.95,19.99 C225.729999,19.7833323 225.62,19.4066694 225.62,18.86 L225.62,17.22 C225.62,16.686664 225.806665,16.2500017 226.18,15.91 C226.553335,15.5699983 227.046664,15.4 227.66,15.4 L232.1,15.4 Z M245.48,28 C246.760006,28 247.769996,27.6966697 248.51,27.09 C249.250004,26.4833303 249.62,25.613339 249.62,24.48 L249.62,22.38 C249.62,21.2599944 249.333336,20.4600024 248.76,19.98 C248.186664,19.4999976 247.433338,19.193334 246.5,19.06 L243.52,18.66 C243.346666,18.6466666 243.213334,18.5800006 243.12,18.46 C243.026666,18.3399994 242.98,18.1933342 242.98,18.02 C242.98,17.8466658 243.026666,17.7033339 243.12,17.59 C243.213334,17.4766661 243.346666,17.42 243.52,17.42 L248.18,17.42 C248.433335,17.42 248.616666,17.3633339 248.73,17.25 C248.843334,17.1366661 248.9,16.9533346 248.9,16.7 L248.9,14.32 C248.9,14.0666654 248.843334,13.8833339 248.73,13.77 C248.616666,13.6566661 248.433335,13.6 248.18,13.6 L242.58,13.6 C241.28666,13.6 240.273337,13.9033303 239.54,14.51 C238.806663,15.1166697 238.44,15.986661 238.44,17.12 L238.44,19.22 C238.44,20.3400056 238.72333,21.1399976 239.29,21.62 C239.85667,22.1000024 240.606662,22.406666 241.54,22.54 L244.54,22.96 C244.713334,22.9733334 244.843333,23.0333328 244.93,23.14 C245.016667,23.2466672 245.06,23.4133322 245.06,23.64 C245.06,23.8000008 245.016667,23.9366661 244.93,24.05 C244.843333,24.1633339 244.713334,24.22 244.54,24.22 L239.16,24.22 C238.906665,24.22 238.723334,24.2766661 238.61,24.39 C238.496666,24.5033339 238.44,24.6866654 238.44,24.94 L238.44,27.28 C238.44,27.5333346 238.496666,27.7166661 238.61,27.83 C238.723334,27.9433339 238.906665,28 239.16,28 L245.48,28 Z M247.1,15.38 L247.1,15.6 L242.66,15.6 C242.099997,15.6 241.653335,15.7533318 241.32,16.06 C240.986665,16.3666682 240.82,16.753331 240.82,17.22 L240.82,18.86 C240.82,19.326669 240.913332,19.6533324 241.1,19.84 C241.286668,20.0266676 241.533332,20.1466664 241.84,20.2 L246.06,21.06 C246.460002,21.1400004 246.789999,21.313332 247.05,21.58 C247.310001,21.846668 247.44,22.3266632 247.44,23.02 L247.44,24.18 C247.44,24.7666696 247.240002,25.2499981 246.84,25.63 C246.439998,26.0100019 245.900003,26.2 245.22,26.2 L240.24,26.2 L240.24,26 L245.22,26 C245.833336,26 246.323331,25.8300017 246.69,25.49 C247.056669,25.1499983 247.24,24.713336 247.24,24.18 L247.24,23.02 C247.24,22.3933302 247.130001,21.9633345 246.91,21.73 C246.689999,21.4966655 246.393335,21.3400004 246.02,21.26 L241.8,20.4 C241.453332,20.333333 241.170001,20.1966677 240.95,19.99 C240.729999,19.7833323 240.62,19.4066694 240.62,18.86 L240.62,17.22 C240.62,16.686664 240.806665,16.2500017 241.18,15.91 C241.553335,15.5699983 242.046664,15.4 242.66,15.4 L247.1,15.38 Z" > </path>
    </g>
</svg>