<svg xmlns="http://www.w3.org/2000/svg" xmlns:xlink="http://www.w3.org/1999/xlink" viewBox="0 0 779 564.147"><defs><style>.a{fill:#dddbe6;opacity:0.599;}.b{fill:url(#a);}.c{fill:url(#b);}.d{fill:#fcfbfc;}.e{fill:#d4cfe9;}.f{fill:#f9f8fa;}.g{fill:#6897cc;}.h{fill:#36567a;}.i{fill:#464974;}.j,.v{fill:#d0d4d9;}.j{opacity:0.404;}.k{fill:#731745;}.l{fill:#ab6789;}.m{fill:#ffd3b2;}.n{fill:#ffdfc7;}.o{fill:url(#c);}.p{fill:#fff;}.q{fill:#d5ae81;}.r{fill:#303030;}.s{fill:#99bae0;}.t{fill:#87a5c7;}.u{fill:#bae5e5;}.w{fill:#f0f5fa;}.x{fill:#e8c9b1;}.y{fill:#c0c5cc;}.z{fill:#3d0420;}.aa{fill:#333;}.ab{fill:#6f6f6f;}.ac{fill:none;stroke:#707070;}</style><linearGradient id="a" x1="0.874" y1="0.269" x2="0.264" y2="0.874" gradientUnits="objectBoundingBox"><stop offset="0" stop-color="#b0c5df"/><stop offset="1" stop-color="#ededed"/></linearGradient><linearGradient id="b" x1="0.5" y1="0" x2="0.5" y2="1" xlink:href="#a"/><linearGradient id="c" x1="0.5" x2="0.5" y2="1" gradientUnits="objectBoundingBox"><stop offset="0" stop-color="#ebb381"/><stop offset="0.433" stop-color="#ebb381"/><stop offset="1" stop-color="#a36baa"/></linearGradient></defs><g transform="translate(-992.73 -631)"><g transform="translate(-674.566 267)"><g transform="translate(1764.117 399.002)"><g transform="translate(0 0)"><path class="a" d="M475.638,146.338,100.862,368.057a15.04,15.04,0,0,0,0,25.685L347.637,539.735a44.641,44.641,0,0,0,45.353,0L767.9,318.15a15.04,15.04,0,0,0,0-25.685L520.991,146.338A44.641,44.641,0,0,0,475.638,146.338Z" transform="translate(-93.65 -39.757)"/><path class="b" d="M775.56,189.093l-16.764.266v8.784L521.507,57.738a44.641,44.641,0,0,0-45.353,0l-365.29,216v-9.981H94.1V290.37h0c-.13,5.856,1.819,11.445,7.277,14.639L348.154,451a44.641,44.641,0,0,0,45.353,0L768.412,229.417a14.894,14.894,0,0,0,7.277-13.308h0Z" transform="translate(-93.517 -23.07)"/><path class="c" d="M476.138,36.338,101.362,257.924a15.04,15.04,0,0,0,0,25.685L348.137,429.6a44.641,44.641,0,0,0,45.353,0L768.4,207.884a15.04,15.04,0,0,0,0-25.685L521.491,36.338A44.641,44.641,0,0,0,476.138,36.338Z" transform="translate(-93.5 -30.15)"/><path class="d" d="M469.509,47.5,128,249.522,387.12,402.7,728.629,200.68Z" transform="translate(-83.362 -24.41)"/></g><g transform="translate(294.272 30.41)"><path class="e" d="M463.3,166.222l34.567-20.495a5.189,5.189,0,0,0,0-8.917L390.273,73.2a14.262,14.262,0,0,0-14.554,0L320.1,106.068h25.86L434.716,158.5l12.865,7.586A15.473,15.473,0,0,0,463.3,166.222Z" transform="translate(-320.1 -46.979)"/><path class="f" d="M463.3,148.022l34.567-20.495a5.189,5.189,0,0,0,0-8.917L390.273,55a14.262,14.262,0,0,0-14.554,0L320.1,87.868h25.86L434.716,140.3l12.865,7.586A14.883,14.883,0,0,0,463.3,148.022Z" transform="translate(-320.1 -53)"/><path class="e" d="M341.257,121.623l-7.407,4.392,66.311,38.771,7.277-4.259Z" transform="translate(-239.194 -91.826)"/><g transform="translate(37.556 12.377)"><ellipse class="g" cx="23.261" cy="14.24" rx="23.261" ry="14.24"/><ellipse class="d" cx="8.967" cy="5.59" rx="8.967" ry="5.59" transform="translate(17.543 6.787)"/><path class="d" d="M355.6,72.8a35.946,35.946,0,0,0-3.9.266V73.2c0,6.521,8.447,11.844,19.1,11.978a6.772,6.772,0,0,0,.65-2.795C371.452,77.059,364.305,72.8,355.6,72.8Z" transform="translate(-348.191 -58.826)"/></g><path class="e" d="M341.363,121.625l-7.407,4.392,66,38.733,7.277-4.259Z" transform="translate(-252.239 -83.826)"/><path class="e" d="M340.628,121.034l-7.407,4.392,65.838,38.682,7.277-4.259Z" transform="translate(-265.239 -74.826)"/></g><g transform="translate(188.238 74.712)"><path class="e" d="M419.787,252.1l65.495-38.728a5.189,5.189,0,0,0,0-8.917L329.6,112.5a14.262,14.262,0,0,0-14.554,0L228.5,163.6h25.73l88.756,52.435L404.063,252.1A15.172,15.172,0,0,0,419.787,252.1Z" transform="translate(-228.5 -86.279)"/><path class="f" d="M419.787,234.035l65.495-38.728a5.189,5.189,0,0,0,0-8.917L329.6,94.3a14.262,14.262,0,0,0-14.554,0L228.5,145.4h25.73l88.756,52.435L404.063,233.9A15.476,15.476,0,0,0,419.787,234.035Z" transform="translate(-228.5 -92.3)"/><g transform="translate(74.072 32.872)"><path class="e" d="M312.707,128.5l-7.407,4.392,106.039,62.683,7.407-4.392Z" transform="translate(-279.57 -113.195)"/><path class="e" d="M322.607,122.8l-7.407,4.259,106.039,62.816,7.407-4.392Z" transform="translate(-276.605 -115.081)"/><path class="e" d="M302.677,134.2l-7.277,4.392,106.039,62.683,7.407-4.392Z" transform="translate(-282.535 -111.31)"/><path class="e" d="M332.507,117l-7.407,4.392,106.169,62.683,7.277-4.259Z" transform="translate(-273.64 -117)"/><path class="e" d="M292.777,139.9l-7.277,4.392,29.369,17.434,7.277-4.392Z" transform="translate(-285.5 -109.424)"/></g><g transform="translate(68.354 12.244)"><ellipse class="g" cx="23.261" cy="14.24" rx="23.261" ry="14.24"/><ellipse class="d" cx="8.967" cy="5.59" rx="8.967" ry="5.59" transform="translate(17.543 6.787)"/><path class="d" d="M287.7,112a35.944,35.944,0,0,0-3.9.266v.133c0,6.521,8.447,11.844,19.1,11.978a6.772,6.772,0,0,0,.65-2.795C303.552,116.259,296.405,112,287.7,112Z" transform="translate(-280.291 -98.026)"/></g></g><g transform="translate(194.275 179.198)"><path class="e" d="M397.076,321.973l60.947-36.066a5.189,5.189,0,0,0,0-8.917L302.212,184.9a14.262,14.262,0,0,0-14.554,0l-41.974,24.887a5.189,5.189,0,0,0,0,8.917l151.522,89.566v13.708Z" transform="translate(-243.15 -158.812)"/><path class="f" d="M397.076,303.873l60.947-36.066a5.189,5.189,0,0,0,0-8.917L302.212,166.8a14.262,14.262,0,0,0-14.554,0l-41.974,24.887a5.189,5.189,0,0,0,0,8.917l151.392,89.566Z" transform="translate(-243.15 -164.8)"/><g transform="translate(17.478 11.179)"><path class="e" d="M283.777,173.2l-7.277,4.259,105,62.15,7.277-4.392Z" transform="translate(-250.64 -173.2)"/><path class="e" d="M273.907,178.9l-7.407,4.392,105,62.017,7.407-4.392Z" transform="translate(-253.635 -171.314)"/><path class="e" d="M264.007,184.6l-7.407,4.392,57.438,33.936,7.407-4.392Z" transform="translate(-256.6 -169.428)"/></g><g transform="translate(144.44 86.372)"><ellipse class="h" cx="23.261" cy="14.24" rx="23.261" ry="14.24"/><ellipse class="d" cx="8.967" cy="5.59" rx="8.967" ry="5.59" transform="translate(17.543 6.654)"/><path class="d" d="M360.9,240.1a35.952,35.952,0,0,0-3.9.266v.133c0,6.521,8.447,11.845,19.1,11.978a6.772,6.772,0,0,0,.65-2.795C376.752,244.492,369.605,240.1,360.9,240.1Z" transform="translate(-353.491 -226.259)"/></g></g><path class="i" d="M496.579,96.13a1.69,1.69,0,1,0-1.689,1.73A1.585,1.585,0,0,0,496.579,96.13Z" transform="translate(26.016 -8.893)"/><path class="i" d="M483.239,88.063a1.82,1.82,0,1,0-1.819,1.863A1.881,1.881,0,0,0,483.239,88.063Z" transform="translate(21.942 -11.606)"/><g transform="translate(-96.822 -35.002)"><path class="j" d="M261.415,334.042l-123.692-73.19L278.265,193.3s88.366,58.158,84.857,78.387C354.806,319.73,261.415,334.042,261.415,334.042Z" transform="translate(2.886 48.829)"/><path class="j" d="M261.374,333.6,137.722,260.447l.01-28.468,123.642,73.167Z" transform="translate(2.886 77.706)"/></g></g><g transform="translate(1667.296 364)"><g transform="translate(139.852 458.043)"><path class="k" d="M161.8,410.428c11.6-2.071,35.736-8.517,35.736-8.517,13.385-3.194,23.183-5.821,14.591-37.489-7.974-7.2-18.32-4.921-29.944-1.975,0,0-45.462,24.376-43.3,36.647S150.2,412.5,161.8,410.428Z" transform="matrix(0.995, -0.105, 0.105, 0.995, -177.596, -335.584)"/><path class="l" d="M159.321,404.161l35.736-8.517c5.434-1.3,10.773-2.416,14.21-6.886,4.424-5.741,5.414-16.005,2.944-23.99h0c-4.288-13.974-22.061-12.318-35.056-6.2,0,0-20.823,7.527-27.97,13.782C129.562,390.054,135.93,409.75,159.321,404.161Z" transform="matrix(0.995, -0.105, 0.105, 0.995, -176.458, -333.55)"/></g><g transform="translate(0 499.369)"><path class="k" d="M56.524,447.448l33.3-16.817c12.475-5.723,16.343-19.833,9.845-32.076h0c-6.757-12.909-22.925-16.038-34.491-7.52L34.822,412.928C15.589,427.3,34.822,457.563,56.524,447.448Z" transform="translate(-26.916 -384.698)"/><path class="l" d="M57.812,444.657s17.367-8.445,34.573-18.091c9.439-4.825,14.7-16.547,10.832-30.263S96.224,390.64,96,390.224l-4.908-1.73c-13.347-2.506-10.245-8.517-21.811,0L37.929,409.656C18.567,424.029,35.98,454.772,57.812,444.657Z" transform="translate(-28.724 -384.088)"/></g><path class="m" d="M181.039,394.237a15.337,15.337,0,0,1-14.814-11.844l-12.215-49.64a15.681,15.681,0,0,1,11.046-19.031,15.256,15.256,0,0,1,18.583,11.312l12.215,49.64A15.681,15.681,0,0,1,184.808,393.7,12.286,12.286,0,0,1,181.039,394.237Z" transform="translate(7.107 90.508)"/><path class="m" d="M73.04,428.2a14.393,14.393,0,0,1-7.927-2.262,15.859,15.859,0,0,1-5.2-21.56l24.171-40.99a14.952,14.952,0,0,1,20.922-5.323,15.73,15.73,0,0,1,5.2,21.427L86.035,420.619A15.029,15.029,0,0,1,73.04,428.2Z" transform="translate(-21.601 104.584)"/><path class="n" d="M192.919,243.567c-2.209,0-5.4-2.414-7.349-3.612-5.718-3.593,1.212-7.768,4.721-13.757,14.911-17.528,20.393-22.838,27.482-33.281,15.594-23.955,26.209-47.975,49.34-98.68,2.859-6.255,4.006-8.023,10.114-5.1a12.631,12.631,0,0,1,5.848,16.636c-23.911,52.435-33.786,68.128-47.828,95.28-11.628,15.071-20.653,19.764-30.919,36.932C201.989,241.983,196.947,243.567,192.919,243.567Z" transform="translate(16.048 15.914)"/><g transform="translate(251.243 14.045)"><path class="o" d="M242.948,21.418h0c-2.729-.4-5.718.8-8.317,3.993-5.328,6.388-7.277,18.1-4.548,25.951,1.559,4.259,4.028,6.521,7.017,6.787l2.859.532-3.9-3.993-.26-.4a19,19,0,0,1-2.6-7.985c-.162-4.059-.78-5.656.65-10.78a31.964,31.964,0,0,1,5.068-9.715l2.339-1.6,1.559-1.065,3.639-1.331Z" transform="translate(-229.578 -21.39)"/><path class="k" d="M241.637,59.123,231.5,57.26c-2.859-.266-5.458-2.529-7.017-6.787-2.729-7.852-.78-19.563,4.548-25.951,2.6-3.194,5.588-4.525,8.187-3.993h.13l10.526,2Z" transform="translate(-220.255 -19.86)"/><path class="p" d="M237.331,25.921c-5.328,6.388-7.277,18.1-4.548,25.951s9.356,9.183,14.684,2.662c5.328-6.388,7.277-18.1,4.548-25.951C249.157,20.731,242.659,19.533,237.331,25.921Z" transform="translate(-220.769 -19.951)"/></g><path class="q" d="M256.745,143.737c1.04,1.065,2.209,2.129,3.249,3.194,17.023,16.1,38.465,29.811,61.6,28.879,1.819-.133,3.769-.266,5.2-1.464A7.856,7.856,0,0,0,329,169.955c4.158-15.039,5.068-30.742,4.548-46.313a265.6,265.6,0,0,0-5.978-46.446c-2.729-12.643-1.949-25.951-8.707-37.8-9.1-15.837-30.928-32.606-54.189-27.682-15.074,3.194-30.538,15.438-34.7,33.537-2.469,10.514-1.17,22.358,4.418,31.674,8.447,14.373-.65,29.145,6.238,44.716C244.27,130.029,250.248,137.216,256.745,143.737Z" transform="translate(29.643 -9.536)"/><path class="r" d="M266.531,349.313c36.516-7.985,61.6-16.636,77.32-56.827,14.5-37.429,22.182-160.781-1.528-188.459-3.5-3.965-14.993-18.463-28.169-22.292-7.443-2.163-14.444-4.791-25.616-3.148-21.857,2.841-24.7,19.548-27.041,29.929-.113,38.979-17.189,45.181-4.974,67.406,25.47,46.313,3.639,48.959-45.872,60.138C153.6,249.1,210.653,361.557,266.531,349.313Z" transform="translate(17.128 12.595)"/><g transform="translate(142.613 264.128)"><path class="g" d="M225.739,208.956c-1.17,0-2.339-.133-3.509-.133-21.312-1.065-50.421-2.529-68.874,20.495-17.153,21.56-16.662,47.338-6.944,89.3.13.4,4.845,23.028,4.975,23.427l30.038-28.081v.133c-8.187-41.788-1.949-55.762,1.429-60.021,6.238-7.719,22.092-6.92,37.426-6.255,1.17,0,2.469.133,3.639.133,10.526.532,19.493-7.852,20.012-18.632A19.322,19.322,0,0,0,225.739,208.956Z" transform="translate(-139.661 -208.327)"/><path class="s" d="M151,323.425c1.611,7.985,4.628,32,7.252,38.775,6.3-2.116,7.89-2.967,15.237-6.6,10.266-2.662,10.611-3.429,17.789-5.155-.78-3.194-10.617-52.73-11.267-55.658l-5.367,3.682C162.038,306.991,156.719,312.415,151,323.425Z" transform="translate(-136.265 -179.721)"/><path class="g" d="M147.953,303.5c1.942,11.227,2.594,20.9,4.023,22.229h0c3.289-5.965,16.374-20.1,28.979-28.613v-.133c-.65-3.194-1.3-6.122-1.949-9.05V287.8S144.748,286.852,147.953,303.5Z" transform="translate(-137.24 -182.037)"/><path class="t" d="M-.025,2.1c0-.662.7-2.348,1.009-2.088s25.161,16.632,29.858,18.87c.134.4-.632,1.218-1.32,1.373C20.522,15.9.35,3.085-.025,2.1Z" transform="translate(20.579 181.242) rotate(-50)"/></g><path class="u" d="M258.745,292.676c-10.916,8.118-32.488-3.593-48.211-25.951s-19.622-47.112-8.707-55.1,32.488,3.593,48.211,25.951S269.661,284.691,258.745,292.676Z" transform="translate(19.717 56.057)"/><path class="n" d="M297.128,107.174c11.306-7.852,14.5-14.533,4.494-21.453-11.559-4.962-28.145-9.422-40.75-3.833-12.475,5.59-11.176,13.575-6.627,25.02C267.37,139.514,278.675,119.817,297.128,107.174Z" transform="translate(36.302 12.787)"/><path class="m" d="M296.033,120.576c-7.407,10.247-9.746,24.088-5.2,30.876s14.294,3.993,21.7-6.255,9.746-24.088,5.2-30.876S303.441,110.329,296.033,120.576Z" transform="translate(47.533 23.473)"/><g transform="translate(289.243 48.89)"><path class="m" d="M275.5,113.409a12.263,12.263,0,0,1-11.825-9.316L252.891,62.305A12.611,12.611,0,0,1,261.6,47a12.257,12.257,0,0,1,14.944,8.917l10.786,41.788a12.3,12.3,0,0,1-11.825,15.7Z" transform="translate(-252.497 -46.597)"/></g><ellipse class="n" cx="36.516" cy="37.53" rx="36.516" ry="37.53" transform="translate(262.868 8.703)"/><path class="q" d="M232.156,46.042c3.379,8.118,18.973,9.848,28.589,8.784,10.4-1.065,15.464-.932,21.7-.133,15.724,2.129,15.854,25.552,25.08,24.487,5.328-.532,8.707-10.381,9.616-15.7,3.249-17.168-8.447-36.2-23.911-45.249-3.509-2-20.272-11.179-37.945-3.593C240.992,20.756,228.387,36.86,232.156,46.042Z" transform="translate(30.452 -9.259)"/><g transform="translate(48.233 300.07)"><path class="g" d="M250.153,249.4a19.221,19.221,0,0,0-23.781-13.308A237.316,237.316,0,0,0,179.2,256.449s18.843,8.784,21.442,20.1c2.209,9.981,13.385,5.989,16.114,4.791.13-.133.39-.133.52-.266h0a188.708,188.708,0,0,1,19.882-7.453C247.424,270.689,253.142,259.776,250.153,249.4Z" transform="translate(-33.439 -235.334)"/><path class="s" d="M234.131,271.3c-2.6-11.312-21.312-20.1-21.442-20.1a289.7,289.7,0,0,0-40.934,27.815c-32.747,26.351-55.271,58.3-79.961,98.755-4.224,6.942-23.181,38.216-24.411,41.975,2.329,2.767,5.536,3.416,11.534,8.459,3.119,2,12.388,8.623,15.9,8.623,4.95-3.107,19.243-30.45,22.881-36.306,46.262-76.124,99.542-109.928,132.679-124.434C247.516,277.284,236.34,281.277,234.131,271.3Z" transform="translate(-66.928 -230.085)"/><path class="t" d="M67.033,378.693c-.012-.671.613-2,.919-1.73S91.035,392.4,95.693,394.726a1.816,1.816,0,0,1-1.161,1.661C85.6,391.862,67.414,379.692,67.033,378.693Z" transform="translate(-67.033 -188.489)"/></g><path class="v" d="M288.978,236.513l-5.042-2.872L192.1,180.972a10.935,10.935,0,0,0-11.046,0l-66.191,39.047,102.161,60.4c5.518,3.59,4.965,1.856,9.366-.74L284.2,242.6C285.755,241.666,288.957,239.061,288.978,236.513Z" transform="translate(-3.175 47.586)"/><path class="w" d="M286.594,233.934,192.12,178.172a10.935,10.935,0,0,0-11.046,0L114.8,217.3,222.139,280.78l64.455-38.062A5.176,5.176,0,0,0,286.594,233.934Z" transform="translate(-3.194 46.659)"/><path class="x" d="M249.9,45.363s27.549,1.2,29.889,13.974-.26,21.959-12.475,23.955c10.136-1.464,18.193-5.856,24.041-13.175,0,0,3.249-26.75.78-28.613C289.535,39.507,249.9,45.363,249.9,45.363Z" transform="translate(35.969 0.471)"/><path class="u" d="M288.017,165.191s33.1,56.028-29.536,57.226l-19.008,13.158s22.241,8.194,55.508,1.673c68.094-13.442,20.158-94.549,20.158-94.549s2.6,15.7-14.295,22.491C291.488,169.051,288.017,165.191,288.017,165.191Z" transform="translate(32.846 34.088)"/><g transform="translate(126.42 240.536)"><path class="y" d="M226.89,212.065l-15.984,9.449a5.516,5.516,0,0,1-5.718,0l-24.041-14.24a2.155,2.155,0,0,1,0-3.726l15.984-9.449a5.516,5.516,0,0,1,5.718,0l24.041,14.24A2.155,2.155,0,0,1,226.89,212.065Z" transform="translate(-111.364 -188.376)"/><g transform="translate(24.431)"><path class="i" d="M160.865,194.992l-5.458,3.194L148,193.794l5.458-3.194Z" transform="translate(-148 -190.6)"/><path class="i" d="M167.865,199.092l-5.458,3.194L155,197.894l5.458-3.194Z" transform="translate(-145.903 -189.244)"/><path class="i" d="M174.865,203.092l-5.458,3.194L162,201.894l5.458-3.194Z" transform="translate(-143.807 -187.92)"/><path class="i" d="M181.865,207.092l-5.458,3.194L169,205.894l5.458-3.194Z" transform="translate(-141.71 -186.597)"/><path class="i" d="M188.865,211.192l-5.458,3.194L176,209.994l5.458-3.194Z" transform="translate(-139.614 -185.24)"/><path class="i" d="M195.865,215.192l-5.458,3.194L183,213.994l5.458-3.194Z" transform="translate(-137.425 -183.73)"/><path class="i" d="M219.481,228.98l-5.458,3.194L195.7,221.394l5.458-3.194Z" transform="translate(-142.81 -186.792)"/></g><path class="i" d="M149.235,201.392l-5.328,3.194-7.407-4.392L141.828,197Z" transform="translate(-127.014 -188.483)"/><path class="i" d="M156.235,205.392l-5.328,3.194-7.407-4.392L148.828,201Z" transform="translate(-124.917 -187.159)"/><path class="i" d="M163.235,209.359l-5.328,3.194-7.407-4.259,5.328-3.194Z" transform="translate(-122.821 -185.803)"/><path class="i" d="M170.235,213.492l-5.328,3.194-7.407-4.392,5.328-3.194Z" transform="translate(-120.724 -184.479)"/><path class="i" d="M177.235,217.492l-5.328,3.194-7.407-4.392,5.328-3.194Z" transform="translate(-118.628 -183.156)"/><path class="i" d="M184.235,221.592l-5.328,3.194-7.407-4.392,5.328-3.194Z" transform="translate(-119.13 -183.13)"/><path class="i" d="M191.235,225.592l-5.328,3.194-7.407-4.392,5.328-3.194Z" transform="translate(-117.034 -181.807)"/><path class="i" d="M198.235,229.692l-5.328,3.194-7.407-4.392,5.328-3.194Z" transform="translate(-114.937 -180.451)"/><path class="i" d="M205.235,233.692l-5.328,3.194-7.407-4.392,5.328-3.194Z" transform="translate(-112.841 -179.127)"/><path class="i" d="M212.235,237.692l-5.328,3.194-7.407-4.392,5.328-3.194Z" transform="translate(-110.744 -177.804)"/><path class="i" d="M221.347,243.334l-5.4,3.163-10.31-5.961,5.329-3.277Z" transform="translate(-107.607 -176.494)"/><path class="i" d="M141.935,205.592l-5.328,3.194-7.407-4.392,5.328-3.194Z" transform="translate(-129.2 -187.093)"/><path class="i" d="M148.935,209.592l-5.328,3.194-7.407-4.392,5.328-3.194Z" transform="translate(-127.103 -185.77)"/><path class="i" d="M155.935,213.559l-5.328,3.194-7.407-4.259,5.328-3.194Z" transform="translate(-125.007 -184.413)"/><path class="i" d="M162.935,217.692l-5.328,3.194-7.407-4.392,5.328-3.194Z" transform="translate(-122.91 -183.09)"/><path class="i" d="M169.935,221.692l-5.328,3.194-7.407-4.392,5.328-3.194Z" transform="translate(-120.814 -181.767)"/><path class="i" d="M176.935,225.792l-5.328,3.194-7.407-4.392,5.328-3.194Z" transform="translate(-118.717 -180.41)"/><path class="i" d="M183.935,229.792l-5.328,3.194-7.407-4.392,5.328-3.194Z" transform="translate(-114.022 -180.418)"/><path class="i" d="M190.935,233.892l-5.328,3.194-7.407-4.392,5.328-3.194Z" transform="translate(-111.925 -179.061)"/><path class="i" d="M197.935,237.892l-5.328,3.194-7.407-4.392,5.328-3.194Z" transform="translate(-109.829 -177.738)"/><path class="i" d="M204.935,241.892l-5.328,3.194-7.407-4.392,5.328-3.194Z" transform="translate(-107.732 -176.414)"/><path class="i" d="M212.325,246.125,207,249.319l-7.8-4.525,5.328-3.194Z" transform="translate(-105.636 -175.058)"/><path class="i" d="M157.6,199.656l-5.458,3.194-9.746-5.856,5.328-3.194Z" transform="translate(-125.247 -189.541)"/><path class="i" d="M164.065,203.292l-5.458,3.194-7.407-4.392,5.458-3.194Z" transform="translate(-122.611 -187.854)"/><path class="i" d="M171.065,207.259l-5.458,3.194-7.407-4.259L163.658,203Z" transform="translate(-120.514 -186.498)"/><path class="i" d="M178.065,211.392l-5.458,3.194-7.407-4.392L170.658,207Z" transform="translate(-118.418 -185.174)"/><path class="i" d="M185.065,215.392l-5.458,3.194-7.407-4.392L177.658,211Z" transform="translate(-115.022 -182.52)"/><path class="i" d="M192.065,219.492l-5.458,3.194-7.407-4.392,5.458-3.194Z" transform="translate(-112.925 -181.164)"/><path class="i" d="M199.065,223.492l-5.458,3.194-7.407-4.392,5.458-3.194Z" transform="translate(-110.829 -179.84)"/><path class="i" d="M206.065,227.592l-5.458,3.194-7.407-4.392,5.458-3.194Z" transform="translate(-108.732 -178.484)"/><path class="i" d="M213.065,231.592l-5.458,3.194-7.407-4.392,5.458-3.194Z" transform="translate(-106.636 -177.16)"/><path class="i" d="M220.065,235.592l-5.458,3.194-7.407-4.392,5.458-3.194Z" transform="translate(-103.693 -175.837)"/><path class="i" d="M224.726,238.228l-5.458,3.327-5.068-3.061,5.458-3.194Z" transform="translate(-103.742 -175.811)"/><path class="i" d="M224.726,238.228l-5.458,3.327-5.068-3.061,5.458-3.194Z" transform="translate(-97.245 -179.804)"/><path class="i" d="M224.726,238.228l-5.458,3.327-5.068-3.061,5.458-3.194Z" transform="translate(-103.742 -183.796)"/><path class="i" d="M224.726,238.228l-5.458,3.327-5.068-3.061,5.458-3.194Z" transform="translate(-110.24 -187.789)"/><path class="i" d="M224.726,238.228l-5.458,3.327-5.068-3.061,5.458-3.194Z" transform="translate(-116.737 -191.781)"/><path class="i" d="M224.726,238.228l-5.458,3.327-5.068-3.061,5.458-3.194Z" transform="translate(-124.897 -163.088)"/><path class="i" d="M224.726,238.228l-5.458,3.327-5.068-3.061,5.458-3.194Z" transform="translate(-131.897 -167.088)"/><path class="i" d="M224.726,238.228l-5.458,3.327-5.068-3.061,5.458-3.194Z" transform="translate(-138.897 -171.088)"/><path class="i" d="M221.646,240.024l-2.378,1.531-5.068-3.061,2.617-1.341Z" transform="translate(-128.897 -160.088)"/></g><path class="n" d="M347.591,126.628c-1.429-6.787-6.913-11.02-13.54-9.556a12.5,12.5,0,0,0-9.356,14.905C328.847,151.2,329.2,164.7,329.5,179.52c-.514,20.488-.243,34.826-4.805,41.357-10.526,11.711-39.332,11.6-81.046,6.012-.13,0-4.851-5.746-9.659-8.141-4.938-2.4-6.887-5.057-11.436-8.784-2.6-2.129-7.147,1.331-3.639,5.057a40.515,40.515,0,0,0,7.391,5.856s-3.752-.4-28.573-1.863c-5.9,1.144-7.714,18.128,4.109,22.367,3.9.266,25.8,4.636,35.113,3,20.008,1.371,33.012,3.943,45.228,3.943,5.2,0,46.357,1.654,56.233-9.259,9.1-10.114,10.449-28.409,11.748-46.242C351.464,176.451,349.912,168.148,347.591,126.628Z" transform="translate(19.002 25.514)"/><g transform="translate(221.932 0)"><g transform="translate(15.504 71.785)"><path class="k" d="M329.676,336.756c-8.317,0-14.165-5.723-22.351-13.708-11.046-10.78-62.884-.867-94.2-10.981-.26-.133-.493-.225-.493-.491.13-.266.233-.2.493-.2,31.578,10.247,83.806-.037,94.982,10.876,10.266,9.981,16.374,15.97,28.2,12.244l1.949-.665c12.605-3.993,20.922-6.787,22.611-12.377,1.3-4.126-1.04-9.981-7.537-18.9-13.9-19.031-9.226-50.971-4.158-84.775,3.119-20.761,6.238-42.321,4.548-60.154-2.209-23.689-14.814-38.062-27.03-52.036-10.916-12.51-21.312-24.221-21.312-41.256a.52.52,0,1,1,1.04,0c0,16.5,10.136,28.214,20.922,40.458,11.7,13.442,25.08,28.613,27.29,52.568,1.689,17.966-1.559,39.659-4.548,60.42-4.808,32.073-9.746,65.211,3.9,83.976,6.757,9.183,9.1,15.3,7.667,19.963-1.949,6.122-10.4,8.917-23.391,13.042l-1.949.665A16.842,16.842,0,0,1,329.676,336.756Z" transform="translate(-212.63 -63.8)"/></g><g transform="translate(91.895 41.825)"><path class="k" d="M305.784,50.009l-8.4-7.108a.151.151,0,0,0-.15-.127c-2.079-1.73-5.178-2-9.077-.538-7.667,2.928-15.074,11.978-16.5,20.229-.78,4.392.39,7.719,2.729,9.449l7.967,6.67Z" transform="translate(-271.415 -41.288)"/><path class="o" d="M301.786,46.5h0c-2.209-1.863-5.328-2.129-9.226-.665-7.667,2.928-15.074,11.978-16.5,20.229-.78,4.392.39,7.719,2.729,9.449l2.209,1.863s-1.633-3.925-1.553-6.7-.266-3.911,1.553-7.537,2.014-5.323,5.718-9.05a30.465,30.465,0,0,1,9.1-5.856l2.729-.133,1.949-.133,3.769.665Z" transform="translate(-270.097 -40.095)"/><path class="l" d="M294.888,47.53c-7.772,2.94-15.28,12.028-16.729,20.314s3.688,12.7,11.592,9.756c7.772-2.94,15.28-12.028,16.729-20.314C307.8,49,302.66,44.589,294.888,47.53Z" transform="translate(-269.856 -39.658)"/></g><path class="z" d="M233.679,26.914a22.5,22.5,0,0,1,4.937-3.632s6.266-8.8,12.5-8.665-3.387-.513-6.474.628a19.3,19.3,0,0,0-5.872,3.936,19.8,19.8,0,0,0-3.294,3.95A28.237,28.237,0,0,0,233.679,26.914Z" transform="translate(-190.822 -8.309)"/><g transform="translate(0 318.391)"><path class="aa" d="M243.054,232.474c-2.191-.635-.148-.012-2.668-.845-.319-.1-.49-.259-.384-.645a.689.689,0,0,1,.852-.386l2.475.8c.319.1-.066.161-.173.547C243.051,232.136,243.267,232.474,243.054,232.474Z" transform="translate(-226.951 -230.574)"/><path class="ab" d="M229.952,234.764v1.563l3.574-2.253v-1.418Z" transform="translate(-229.952 -227.016)"/><path class="ab" d="M229.952,234.11v.922l2.414-1.469v-.931Z" transform="translate(-224.076 -229.651)"/></g><g transform="translate(41.57)"><path class="k" d="M259.213,15.751c-5.962-2.684-9.631-2.38-12.652-1.895a14.967,14.967,0,0,0-6.97,2.56,16.616,16.616,0,0,0-6.9,10.625l1.358.246c3.249-9.981,13.689-14.129,25.167-9.086,15.7,7.568,31.092,24.516,35.77,43.014l1.656.715C293.454,42.073,276.107,22.405,259.213,15.751Z" transform="translate(-232.689 -8.645)"/><path class="l" d="M245.453,15.078c5.322-.99,10.9,1.248,12.239,1.888,18.227,9.011,33.148,26.5,37.177,45.666,1.689-2,4.8-3.886,7.663-5.483-4.548-18.765-20.8-38.586-37.433-45.107-7.667-3.061-14.165-2.795-18.843.133h0l-.26.133-8.229,5.529C239.847,16.64,240.131,16.069,245.453,15.078Z" transform="translate(-231.168 -9.861)"/></g></g><g transform="translate(81.485 195.234)"><path class="v" d="M90.445,156.651c.533,1.629,31.718,68.237,31.718,68.237l105.758,61.555-30.515-67.749a15.582,15.582,0,0,0-5.07-6.05L94.613,154.886C89.962,152.109,89.912,155.022,90.445,156.651Z" transform="translate(-89.913 -153.596)"/><path class="w" d="M191.106,213.546l-98.762-58.69a1.611,1.611,0,0,0-2.209,2.129s23.373,53.134,32.01,71.329c2.56,1.467,2.011,1.143,2.538,1.45l100.21,59.241a1.756,1.756,0,0,0,2.469-2.262L197.344,220.6A16.277,16.277,0,0,0,191.106,213.546Z" transform="translate(-89.983 -154.63)"/></g></g><path class="ac" d="M1880.092,613.744"/></g></g></svg>