<svg xmlns="http://www.w3.org/2000/svg" xmlns:xlink="http://www.w3.org/1999/xlink" x="0px" y="0px" width="200" height="200">
    <path stroke-width="1.5" stroke="#d94f5c" fill="none"
          d="M 44.881980999999996 68.246212 C 26.987865999999997 68.246212 11.150916999999993 59.306954 1.573045999999998 45.669628 L 3.871148999999998 43.371337000000004 C 12.832396 56.44372200000001 27.870984999999997 65.03999400000001 44.881980999999996 65.03999400000001 C 61.81329099999999 65.03999400000001 76.78591399999999 56.523408 85.762948 43.55457700000001 L 88.061239 45.85286800000001 C 78.469085 59.38682800000001 62.696411 68.24621300000001 44.881981 68.24621300000001 Z"
          transform="matrix(-1 1.22465e-16 -1.22465e-16 -1 89.2487 68.7741)"/>
    <path stroke-width="1.5" stroke="#d94f5c" fill="none"
          d="M 44.881980999999996 55.421341 C 30.513389999999994 55.421341 17.893558999999996 47.816064999999995 10.817514999999993 36.425158999999994 L 13.151701999999993 34.09247599999999 C 19.57992399999999 44.92915399999999 31.393313999999993 52.21512399999999 44.881980999999996 52.21512399999999 C 58.289271 52.21512399999999 70.044964 45.019927999999986 76.49799399999999 34.289810999999986 L 78.824287 36.616103999999986 C 71.726255 47.90063699999999 59.169195 55.421340999999984 44.881980999999996 55.421340999999984 Z"
          transform="matrix(-1 1.22465e-16 -1.22465e-16 -1 89.2487 68.7741)"/>
    <path stroke-width="1.5" stroke="#d94f5c" fill="none"
          d="M 44.725429 42.594967 C 33.902846999999994 42.594967 24.561401999999998 36.238913 20.165349999999997 27.075820999999998 L 22.565315 24.677359999999997 C 26.217696999999998 33.312911 34.774878 39.38856199999999 44.725429 39.38856199999999 C 54.675979999999996 39.38856199999999 63.233160999999996 33.31272299999999 66.88573099999999 24.677359999999993 L 69.285508 27.075820999999994 C 64.889457 36.238913 55.54801199999999 42.594967 44.72542899999999 42.594967 Z"
          transform="matrix(-1 1.22465e-16 -1.22465e-16 -1 89.2487 68.7741)"/>
    <path d="M 53.81277 47.37781 C 60.8843 47.37781 66.63764 53.13115 66.63764 60.20268 C 66.63764 67.27421 60.8843 73.02755 53.81277 73.02755 C 46.74124 73.02755 40.987899999999996 67.27421000000001 40.987899999999996 60.20268 C 40.987899999999996 53.13115 46.741049999999994 47.37781 53.81277 47.37781 Z M 53.81277 69.82134 C 59.11694 69.82134 63.43142 65.50667000000001 63.43142 60.202690000000004 C 63.43142 54.89871 59.11693 50.58404 53.81277 50.58404 C 48.50879 50.58404 44.19412 54.89871 44.19412 60.202690000000004 C 44.19412 65.50667 48.50879 69.82134 53.81277 69.82134 Z"
          stroke-width="1.5" stroke="#d94f5c" fill="none" stroke-linecap="butt"
          stroke-linejoin="miter" stroke-miterlimit="10" stroke-dasharray="" stroke-dashoffset="0"
          transform="matrix(1 0 0 1 -9.28953 -6.77077)"/>
</svg>
