<?xml version="1.0" encoding="utf-8"?>
<!-- Generator: Adobe Illustrator 22.0.1, SVG Export Plug-In . SVG Version: 6.00 Build 0)  -->
<svg version="1.1" id="Layer_1" xmlns="http://www.w3.org/2000/svg" xmlns:xlink="http://www.w3.org/1999/xlink" x="0px" y="0px"
	 viewBox="0 0 52.7 39.4" style="enable-background:new 0 0 52.7 39.4;" xml:space="preserve">
<style type="text/css">
	.st0{fill:#EAEAEA;}
	.st1{fill:#D54C3F;}
	.st2{fill:#B63524;}
	.st3{fill:#DE5145;}
	.st4{fill:none;}
	.st5{fill:#EFEFEF;}
	.st6{fill:#C64132;}
	.st7{fill:#E3E3E3;}
	.st8{fill:url(#SVGID_1_);}
	.st9{fill:url(#SVGID_2_);}
</style>
<path class="st0" d="M49.2,39.5H3.3C1.5,39.5,0,38,0,36.2V3.4c0-1.8,1.5-3.3,3.3-3.3h45.9c1.8,0,3.3,1.5,3.3,3.3v32.8
	C52.5,38,51,39.5,49.2,39.5z"/>
<path class="st1" d="M6.5,39.5H3.3C1.5,39.5,0,38,0,36.2V3.4c0-1.8,1.5-3.3,3.3-3.3l0,0c1.8,0,3.3,1.5,3.3,3.3V39.5z"/>
<path class="st2" d="M45.9,39.5h3.3c1.8,0,3.3-1.5,3.3-3.3V3.4c0-1.8-1.5-3.3-3.3-3.3l0,0c-1.8,0-3.3,1.5-3.3,3.3V39.5z"/>
<path class="st3" d="M51.1,6.1c0.8-0.6,1.4-1.6,1.4-2.7c0-1.8-1.5-3.3-3.3-3.3c-0.7,0-1.3,0.2-1.9,0.6L26.2,16l0,0l0,0L5.1,0.7
	C4.6,0.3,4,0.1,3.3,0.1C1.5,0.1,0,1.6,0,3.4c0,1.1,0.6,2.1,1.4,2.7L1.3,6l24.9,18.2"/>
<line class="st4" x1="51.2" y1="6" x2="26.2" y2="24.2"/>
<path class="st5" d="M49.2,0.1c-0.7,0-1.3,0.2-1.9,0.6L26.2,16l0,0l0,0L5.1,0.7C4.6,0.3,4,0.1,3.3,0.1H49.2z"/>
<path class="st6" d="M6.6,11.2L1,5.8l0,0C1.1,5.9,1.3,6,1.4,6.1L1.3,6l5.2,3.8L6.6,11.2"/>
<polyline class="st7" points="22.6,27 6.5,39.5 6.6,11.1 22.6,27 "/>
<linearGradient id="SVGID_1_" gradientUnits="userSpaceOnUse" x1="-35.5616" y1="55.8736" x2="-17.5626" y2="55.8736" gradientTransform="matrix(1.0938 0 0 -1.0938 45.4465 79.5259)">
	<stop  offset="0" style="stop-color:#C8C8C8"/>
	<stop  offset="1" style="stop-color:#CDCDCD"/>
</linearGradient>
<polygon class="st8" points="22.6,27 26.2,24.2 6.6,9.8 6.6,11.1 22.6,27 "/>
<linearGradient id="SVGID_2_" gradientUnits="userSpaceOnUse" x1="-20.8976" y1="50.1696" x2="0.4374" y2="50.1696" gradientTransform="matrix(1.0938 0 0 -1.0938 45.4465 79.5259)">
	<stop  offset="0" style="stop-color:#D9D9D9"/>
	<stop  offset="1" style="stop-color:#E2E2E2"/>
</linearGradient>
<polygon class="st9" points="35.1,39.5 45.9,39.5 45.9,9.8 26.2,24.2 22.6,27 "/>
</svg>
