<svg xmlns="http://www.w3.org/2000/svg" viewBox="0 0 82.67 82.67" height="50" width="50"><defs><style><![CDATA[.cls-1{fill: #fdfdfd;} svg{ background-image: radial-gradient(circle farthest-corner at 35% 90%, #fec564, transparent 50%), radial-gradient(circle farthest-corner at 0 140%, #fec564, transparent 50%), radial-gradient(ellipse farthest-corner at 0 -25%, #5258cf, transparent 50%), radial-gradient(ellipse farthest-corner at 20% -50%, #5258cf, transparent 50%), radial-gradient(ellipse farthest-corner at 100% 0, #893dc2, transparent 50%), radial-gradient(ellipse farthest-corner at 60% -20%, #893dc2, transparent 50%), radial-gradient(ellipse farthest-corner at 100% 100%, #d9317a, transparent), linear-gradient(#6559ca, #bc318f 30%, #e33f5f 50%, #f77638 70%, #fec66d 100%); }]]></style></defs><g id="Layer_1"><path class="cls-1" d="M41.73 31.15a10.36 10.36 0 0 1 7.38 3.09H62V29a8 8 0 0 0-8-8H32.11v10.07h-1.64V21h-1.14v10.07h-1.64v-9.88a7.32 7.32 0 0 0-1.15.36v9.52h-1.65v-8.62A8 8 0 0 0 21.51 29v5.26h12.84a10.36 10.36 0 0 1 7.38-3.11zm9.71-5.54a1.28 1.28 0 0 1 1.29-1.28h4.32a1.28 1.28 0 0 1 1.29 1.28V30a1.29 1.29 0 0 1-1.29 1.28h-4.32A1.28 1.28 0 0 1 51.44 30zM47 35.51a8 8 0 0 0-8.54-1.27 8.3 8.3 0 0 0-2 1.27 8 8 0 1 0 10.51 0zm-5.23 11.9a5.9 5.9 0 1 1 5.9-5.9 5.9 5.9 0 0 1-5.92 5.9zM29.52 61.68H54a8 8 0 0 0 8-8V35.51H50.17a10.36 10.36 0 1 1-16.88 0H21.51v18.16a8 8 0 0 0 8.01 8.01z"/></g></svg>