<svg xmlns="http://www.w3.org/2000/svg" xmlns:xlink="http://www.w3.org/1999/xlink" width="60" height="60" viewBox="0 0 602 602"><defs><linearGradient id="A"><stop offset="0" stop-color="#70efff"/><stop offset="1" stop-color="#5770ff"/></linearGradient><linearGradient xlink:href="#A" id="B" gradientUnits="userSpaceOnUse" x1="46.63" y1="1051" x2="46.72" y2="962.45"/></defs><path d="M21.65 961.36h48.69A20.6 20.6 0 0 1 91 982.01v48.69a20.6 20.6 0 0 1-20.65 20.65H21.65A20.6 20.6 0 0 1 1 1030.71v-48.69a20.6 20.6 0 0 1 20.65-20.65z" fill="url(#B)" transform="matrix(6.6667 0 0 6.6667 -5.6668 -6408.0791)"/><path d="M132.46 171.64c-3.16 0-6.14.54-8.96 1.67l170.21 175.63c.82.5 3.18 2.69 5.02 3.62 2.38 1.19 4.95 2.29 7.61 2.38 2.87.1 5.8-.72 8.37-1.97 1.93-.94 2.79-2.29 5.03-4.02l169.17-174.38c-3.54-1.92-7.47-2.91-11.67-2.91zm-17.29 7.08c-6.02 5.7-9.79 14.28-9.79 23.96v190.83c0 7.84 2.52 14.96 6.67 20.42l7.92-7.5 111.25-107.92-1.04-1.25-114.58-118.13zm381.25 1.88L382.46 298.31l116.88 113.34c3.17-5.1 5-11.37 5-18.13V202.69c0-8.63-2.99-16.45-7.92-22.08zM237.88 305.39L119.13 420.61c3.95 2.54 8.45 4.16 13.33 4.16h344.79c5.87 0 11.19-2.25 15.63-5.83l-3.75-3.75-113.54-109.79-48.96 50.42c-2.65 1.76-4.42 3.71-7.01 4.9-4.16 1.93-8.73 3.55-13.32 3.48-4.6-.07-9.11-1.87-13.24-3.9-2.07-1.02-3.18-2.03-5.61-4.07z" fill="#fff"/></svg>