<svg xmlns="http://www.w3.org/2000/svg" viewBox="0 0 512 512" width="60" height="60" style="enable-background:new 0 0 512 512;"><path d="M502.9 258.7c0-133-109.3-240.8-244.2-240.8L217 21.4C195.1 7.9 169.3 0 141.6 0 63.4 0 0 62.5 0 139.6c0 25.8 7.1 49.9 19.5 70.6a239 239 0 0 0-5 48.4c0 133 109.3 240.8 244.2 240.8a251 251 0 0 0 44.7-4c20 10.6 42.7 16.6 67 16.6 78.2 0 141.6-62.5 141.6-139.6 0-22.3-5.3-43.3-14.7-62a238 238 0 0 0 5.6-51.7z" fill="#03A9F4"/><path d="M384 373.7c-11.3 15.8-28 28.3-49.6 37.1-21.4 8.8-47 13.3-76.3 13.3-35.1 0-64.5-6.1-87.5-18.1-16.4-8.7-29.9-20.5-40.2-35.2-10.4-14.7-15.6-29.3-15.6-43.5a30 30 0 0 1 10.2-22.7 36 36 0 0 1 25.5-9.3c8.4 0 15.6 2.5 21.5 7.4 5.6 4.7 10.4 11.7 14.3 20.6a119 119 0 0 0 14 24.5c4.8 6.3 11.7 11.6 20.5 15.7 8.9 4.1 20.8 6.2 35.5 6.2 20.2 0 36.8-4.3 49.2-12.6 12.2-8.2 18.1-18 18.1-30 0-9.5-3.1-17-9.4-22.8-6.7-6.1-15.4-10.9-26-14.2a518 518 0 0 0-44.8-10.9l-64-18.9c-17.5-7.4-31.6-17.5-42-30.2-10.5-13-15.8-29.2-15.8-48.3 0-18.2 5.6-34.6 16.6-48.7 10.9-14 26.8-25 47.4-32.5 20.3-7.4 44.4-11.1 71.6-11.1 21.8 0 41 2.5 57 7.4 16.1 4.9 29.7 11.6 40.3 19.8 10.8 8.3 18.8 17.1 23.7 26.3 5.1 9.3 7.6 18.5 7.6 27.5 0 8.6-3.4 16.4-10 23.2a34 34 0 0 1-25.1 10.3c-9 0-16.1-2.2-21-6.5-4.6-4-9.3-10.2-14.6-19.1-6.1-11.4-13.5-20.4-21.9-26.8-8.2-6.2-21.9-9.2-40.8-9.2-17.5 0-31.7 3.5-42.3 10.3-10.2 6.6-15.1 14.1-15.1 23.1 0 5.5 1.6 10 4.9 14 3.5 4.2 8.4 7.8 14.6 10.9 6.4 3.2 13 5.7 19.6 7.5a881 881 0 0 0 33.8 8.2c19.8 4.2 37.9 8.9 54 14a173 173 0 0 1 41.8 18.8 83 83 0 0 1 27.5 28.6 85 85 0 0 1 9.9 42.4c0 19.8-5.8 37.9-17.1 53.7z" fill="#FAFAFA"/></svg>